Name Sans-Display Bold.ufo
<glyph name="exclam" format="2">
	<advance width="228"/>
	<unicode hex="0021"/>
	<outline>
		<contour>
			<point x="66" y="241" type="line"/>
			<point x="32" y="445" type="line"/>
			<point x="32" y="727" type="line"/>
			<point x="196" y="727" type="line"/>
			<point x="196" y="445" type="line"/>
			<point x="162" y="241" type="line"/>
		</contour>
		<component base="period" xOffset="-12"/>
	</outline>
</glyph>
<glyph name="numbersign" format="2">
	<advance width="798"/>
	<unicode hex="0023"/>
	<guideline y="727" name="capCenter"/>
	<outline>
		<contour>
			<point x="289" y="727" type="line"/>
			<point x="67" y="0" type="line"/>
			<point x="213" y="0" type="line"/>
			<point x="436" y="727" type="line"/>
		</contour>
		<contour>
			<point x="586" y="727" type="line"/>
			<point x="363" y="0" type="line"/>
			<point x="510" y="0" type="line"/>
			<point x="733" y="727" type="line"/>
		</contour>
		<contour>
			<point x="54" y="438" type="line"/>
			<point x="257" y="438" type="line"/>
			<point x="271" y="440" type="line"/>
			<point x="534" y="440" type="line"/>
			<point x="548" y="438" type="line"/>
			<point x="781" y="438" type="line"/>
			<point x="781" y="582" type="line"/>
			<point x="54" y="582" type="line"/>
		</contour>
		<contour>
			<point x="18" y="151" type="line"/>
			<point x="745" y="151" type="line"/>
			<point x="745" y="294" type="line"/>
			<point x="548" y="294" type="line"/>
			<point x="534" y="292" type="line"/>
			<point x="271" y="292" type="line"/>
			<point x="257" y="294" type="line"/>
			<point x="18" y="294" type="line"/>
		</contour>
	</outline>
</glyph>
<glyph name="dollar" format="2">
	<advance width="620"/>
	<unicode hex="0024"/>
	<outline>
		<contour>
			<point x="54" y="531" type="curve" smooth="yes"/>
			<point x="54" y="421"/>
			<point x="120" y="357"/>
			<point x="242" y="324" type="curve" smooth="yes"/>
			<point x="345" y="296" type="line" smooth="yes"/>
			<point x="405" y="279"/>
			<point x="438" y="255"/>
			<point x="438" y="208" type="curve" smooth="yes"/>
			<point x="438" y="156"/>
			<point x="391" y="118"/>
			<point x="309" y="118" type="curve" smooth="yes"/>
			<point x="232" y="118"/>
			<point x="187" y="154"/>
			<point x="165" y="235" type="curve"/>
			<point x="25" y="195" type="line"/>
			<point x="60" y="58"/>
			<point x="157" y="-15"/>
			<point x="307" y="-15" type="curve" smooth="yes"/>
			<point x="481" y="-15"/>
			<point x="590" y="78"/>
			<point x="590" y="214" type="curve" smooth="yes"/>
			<point x="590" y="330"/>
			<point x="522" y="399"/>
			<point x="393" y="433" type="curve" smooth="yes"/>
			<point x="303" y="457" type="line" smooth="yes"/>
			<point x="231" y="476"/>
			<point x="203" y="496"/>
			<point x="203" y="536" type="curve" smooth="yes"/>
			<point x="203" y="580"/>
			<point x="241" y="609"/>
			<point x="308" y="609" type="curve" smooth="yes"/>
			<point x="374" y="609"/>
			<point x="410" y="580"/>
			<point x="428" y="527" type="curve"/>
			<point x="564" y="565" type="line"/>
			<point x="526" y="683"/>
			<point x="438" y="742"/>
			<point x="308" y="742" type="curve" smooth="yes"/>
			<point x="149" y="742"/>
			<point x="54" y="653"/>
		</contour>
		<contour>
			<point x="384" y="824" type="line"/>
			<point x="240" y="824" type="line"/>
			<point x="240" y="698" type="line"/>
			<point x="384" y="698" type="line"/>
		</contour>
		<contour>
			<point x="233" y="-100" type="line"/>
			<point x="378" y="-100" type="line"/>
			<point x="378" y="48" type="line"/>
			<point x="233" y="48" type="line"/>
		</contour>
		<contour>
			<point x="366" y="680" type="line"/>
			<point x="257" y="680" type="line"/>
			<point x="257" y="429" type="line"/>
			<point x="250" y="377" type="line"/>
			<point x="250" y="60" type="line"/>
			<point x="359" y="60" type="line"/>
			<point x="359" y="340" type="line"/>
			<point x="366" y="396" type="line"/>
		</contour>
	</outline>
</glyph>
<glyph name="percent" format="2">
	<advance width="805"/>
	<unicode hex="0025"/>
	<outline>
		<contour>
			<point x="224" y="332" type="curve" smooth="yes"/>
			<point x="100" y="332"/>
			<point x="10" y="417"/>
			<point x="10" y="540" type="curve" smooth="yes"/>
			<point x="10" y="662"/>
			<point x="100" y="747"/>
			<point x="224" y="747" type="curve" smooth="yes"/>
			<point x="349" y="747"/>
			<point x="438" y="662"/>
			<point x="438" y="540" type="curve" smooth="yes"/>
			<point x="438" y="417"/>
			<point x="349" y="332"/>
		</contour>
		<contour>
			<point x="224" y="448" type="curve" smooth="yes"/>
			<point x="276" y="448"/>
			<point x="314" y="484"/>
			<point x="314" y="540" type="curve" smooth="yes"/>
			<point x="314" y="595"/>
			<point x="276" y="631"/>
			<point x="224" y="631" type="curve" smooth="yes"/>
			<point x="173" y="631"/>
			<point x="135" y="595"/>
			<point x="135" y="540" type="curve" smooth="yes"/>
			<point x="135" y="484"/>
			<point x="173" y="448"/>
		</contour>
		<contour>
			<point x="581" y="-20" type="curve" smooth="yes"/>
			<point x="457" y="-20"/>
			<point x="367" y="66"/>
			<point x="367" y="189" type="curve" smooth="yes"/>
			<point x="367" y="311"/>
			<point x="457" y="396"/>
			<point x="581" y="396" type="curve" smooth="yes"/>
			<point x="706" y="396"/>
			<point x="795" y="311"/>
			<point x="795" y="189" type="curve" smooth="yes"/>
			<point x="795" y="66"/>
			<point x="706" y="-20"/>
		</contour>
		<contour>
			<point x="581" y="97" type="curve" smooth="yes"/>
			<point x="633" y="97"/>
			<point x="671" y="133"/>
			<point x="671" y="189" type="curve" smooth="yes"/>
			<point x="671" y="244"/>
			<point x="633" y="280"/>
			<point x="581" y="280" type="curve" smooth="yes"/>
			<point x="531" y="280"/>
			<point x="493" y="244"/>
			<point x="493" y="189" type="curve" smooth="yes"/>
			<point x="493" y="133"/>
			<point x="531" y="97"/>
		</contour>
		<contour>
			<point x="774" y="727" type="line"/>
			<point x="602" y="445" type="line"/>
			<point x="470" y="445" type="line"/>
			<point x="623" y="727" type="line"/>
		</contour>
		<contour>
			<point x="35" y="0" type="line"/>
			<point x="202" y="283" type="line"/>
			<point x="334" y="283" type="line"/>
			<point x="186" y="0" type="line"/>
		</contour>
	</outline>
</glyph>
<glyph name="ampersand" format="2">
	<advance width="675"/>
	<unicode hex="0026"/>
	<outline>
		<contour>
			<point x="477" y="82" type="line"/>
			<point x="429" y="82" type="line"/>
			<point x="384" y="22"/>
			<point x="322" y="-14"/>
			<point x="232" y="-14" type="curve" smooth="yes"/>
			<point x="92" y="-15"/>
			<point x="12" y="70"/>
			<point x="12" y="190" type="curve" smooth="yes"/>
			<point x="12" y="285"/>
			<point x="53" y="352"/>
			<point x="157" y="395" type="curve"/>
			<point x="157" y="429" type="line"/>
			<point x="247" y="323" type="line"/>
			<point x="177" y="293"/>
			<point x="159" y="252"/>
			<point x="159" y="208" type="curve" smooth="yes"/>
			<point x="159" y="157"/>
			<point x="193" y="120"/>
			<point x="240" y="120" type="curve" smooth="yes"/>
			<point x="290" y="120"/>
			<point x="323" y="135"/>
			<point x="369" y="193" type="curve"/>
		</contour>
		<contour>
			<point x="105" y="547" type="curve" smooth="yes"/>
			<point x="105" y="665"/>
			<point x="194" y="743"/>
			<point x="316" y="743" type="curve" smooth="yes"/>
			<point x="438" y="743"/>
			<point x="514" y="666"/>
			<point x="514" y="565" type="curve" smooth="yes"/>
			<point x="514" y="473"/>
			<point x="460" y="415"/>
			<point x="376" y="379" type="curve"/>
			<point x="376" y="348" type="line"/>
			<point x="290" y="452" type="line"/>
			<point x="361" y="483"/>
			<point x="380" y="518"/>
			<point x="380" y="559" type="curve" smooth="yes"/>
			<point x="380" y="596"/>
			<point x="357" y="620"/>
			<point x="319" y="620" type="curve" smooth="yes"/>
			<point x="274" y="620"/>
			<point x="253" y="591"/>
			<point x="253" y="553" type="curve" smooth="yes"/>
			<point x="253" y="522"/>
			<point x="264" y="499"/>
			<point x="306" y="451" type="curve" smooth="yes"/>
			<point x="553" y="167" type="line" smooth="yes"/>
			<point x="583" y="133"/>
			<point x="610" y="127"/>
			<point x="637" y="127" type="curve" smooth="yes"/>
			<point x="644" y="127"/>
			<point x="653" y="128"/>
			<point x="660" y="129" type="curve"/>
			<point x="660" y="-12" type="line"/>
			<point x="653" y="-13"/>
			<point x="646" y="-14"/>
			<point x="632" y="-14" type="curve" smooth="yes"/>
			<point x="536" y="-14"/>
			<point x="486" y="25"/>
			<point x="444" y="72" type="curve" smooth="yes"/>
			<point x="177" y="375" type="line" smooth="yes"/>
			<point x="131" y="427"/>
			<point x="105" y="486"/>
		</contour>
		<contour>
			<point x="666" y="380" type="line"/>
			<point x="619" y="311"/>
			<point x="573" y="241"/>
			<point x="527" y="172" type="curve"/>
			<point x="420" y="290" type="line"/>
			<point x="452" y="290" type="line"/>
			<point x="471" y="320"/>
			<point x="490" y="350"/>
			<point x="508" y="380" type="curve"/>
		</contour>
	</outline>
</glyph>
<glyph name="quotesingle" format="2">
	<advance width="228"/>
	<unicode hex="0027"/>
	<outline>
		<contour>
			<point x="32" y="603" type="line"/>
			<point x="32" y="727" type="line"/>
			<point x="196" y="727" type="line"/>
			<point x="196" y="603" type="line"/>
			<point x="158" y="424" type="line"/>
			<point x="70" y="424" type="line"/>
		</contour>
	</outline>
</glyph>
<glyph name="parenleft" format="2">
	<advance width="322"/>
	<unicode hex="0028"/>
	<outline>
		<contour>
			<point x="31" y="334" type="curve" smooth="yes"/>
			<point x="31" y="541"/>
			<point x="83" y="689"/>
			<point x="188" y="821" type="curve"/>
			<point x="310" y="750" type="line"/>
			<point x="225" y="621"/>
			<point x="187" y="485"/>
			<point x="187" y="334" type="curve" smooth="yes"/>
			<point x="187" y="183"/>
			<point x="225" y="48"/>
			<point x="310" y="-82" type="curve"/>
			<point x="188" y="-153" type="line"/>
			<point x="83" y="-21"/>
			<point x="31" y="128"/>
		</contour>
	</outline>
</glyph>
<glyph name="asterisk" format="2">
	<advance width="561"/>
	<unicode hex="002A"/>
	<outline>
		<contour>
			<point x="208" y="747" type="line"/>
			<point x="234" y="572" type="line"/>
			<point x="328" y="572" type="line"/>
			<point x="354" y="747" type="line"/>
		</contour>
		<contour>
			<point x="30" y="512" type="line"/>
			<point x="205" y="482" type="line"/>
			<point x="234" y="572" type="line"/>
			<point x="76" y="651" type="line"/>
		</contour>
		<contour>
			<point x="199" y="269" type="line"/>
			<point x="281" y="426" type="line"/>
			<point x="205" y="482" type="line"/>
			<point x="81" y="355" type="line"/>
		</contour>
		<contour>
			<point x="481" y="355" type="line"/>
			<point x="357" y="482" type="line"/>
			<point x="281" y="426" type="line"/>
			<point x="363" y="270" type="line"/>
		</contour>
		<contour>
			<point x="486" y="651" type="line"/>
			<point x="328" y="572" type="line"/>
			<point x="357" y="482" type="line"/>
			<point x="531" y="511" type="line"/>
		</contour>
		<contour>
			<point x="340" y="422" type="line"/>
			<point x="382" y="536" type="line"/>
			<point x="281" y="614" type="line"/>
			<point x="182" y="536" type="line"/>
			<point x="220" y="422" type="line"/>
		</contour>
	</outline>
</glyph>
<glyph name="plus" format="2">
	<advance width="620"/>
	<unicode hex="002B"/>
	<outline>
		<contour>
			<point x="45" y="231" type="line"/>
			<point x="575" y="231" type="line"/>
			<point x="575" y="371" type="line"/>
			<point x="45" y="371" type="line"/>
		</contour>
		<contour>
			<point x="380" y="36" type="line"/>
			<point x="380" y="566" type="line"/>
			<point x="240" y="566" type="line"/>
			<point x="240" y="36" type="line"/>
		</contour>
	</outline>
</glyph>
<glyph name="comma" format="2">
	<advance width="252"/>
	<unicode hex="002C"/>
	<outline>
		<contour>
			<point x="43" y="0" type="line"/>
			<point x="43" y="167" type="line"/>
			<point x="209" y="167" type="line"/>
			<point x="209" y="0" type="line"/>
			<point x="136" y="-145" type="line"/>
			<point x="45" y="-145" type="line"/>
			<point x="90" y="-4" type="line"/>
			<point x="88" y="0" type="line"/>
		</contour>
	</outline>
</glyph>
<glyph name="hyphen" format="2">
	<advance width="386"/>
	<unicode hex="002D"/>
	<outline>
		<contour>
			<point x="35" y="231" type="line"/>
			<point x="352" y="231" type="line"/>
			<point x="352" y="371" type="line"/>
			<point x="35" y="371" type="line"/>
		</contour>
	</outline>
</glyph>
<glyph name="slash" format="2">
	<advance width="405"/>
	<unicode hex="002F"/>
	<outline>
		<contour>
			<point x="397" y="783" type="line"/>
			<point x="124" y="-122" type="line"/>
			<point x="-28" y="-122" type="line"/>
			<point x="245" y="783" type="line"/>
		</contour>
	</outline>
</glyph>
<glyph name="zero" format="2">
	<advance width="620"/>
	<unicode hex="0030"/>
	<outline>
		<contour>
			<point x="309" y="-15" type="curve" smooth="yes"/>
			<point x="136" y="-15"/>
			<point x="31" y="111"/>
			<point x="31" y="363" type="curve" smooth="yes"/>
			<point x="31" y="614"/>
			<point x="136" y="742"/>
			<point x="309" y="742" type="curve" smooth="yes"/>
			<point x="482" y="742"/>
			<point x="589" y="614"/>
			<point x="589" y="363" type="curve" smooth="yes"/>
			<point x="589" y="111"/>
			<point x="482" y="-15"/>
		</contour>
		<contour>
			<point x="309" y="131" type="curve" smooth="yes"/>
			<point x="388" y="131"/>
			<point x="431" y="211"/>
			<point x="431" y="363" type="curve" smooth="yes"/>
			<point x="431" y="515"/>
			<point x="388" y="596"/>
			<point x="309" y="596" type="curve" smooth="yes"/>
			<point x="229" y="596"/>
			<point x="189" y="515"/>
			<point x="189" y="363" type="curve" smooth="yes"/>
			<point x="189" y="211"/>
			<point x="229" y="131"/>
		</contour>
	</outline>
</glyph>
<glyph name="one" format="2">
	<advance width="306"/>
	<unicode hex="0031"/>
	<outline>
		<contour>
			<point x="264" y="727" type="line"/>
			<point x="264" y="0" type="line"/>
			<point x="113" y="0" type="line"/>
			<point x="113" y="497" type="line"/>
			<point x="108" y="497" type="line"/>
			<point x="79" y="497"/>
			<point x="49" y="497"/>
			<point x="20" y="497" type="curve"/>
			<point x="20" y="630" type="line"/>
			<point x="82" y="645"/>
			<point x="126" y="676"/>
			<point x="158" y="727" type="curve"/>
		</contour>
	</outline>
</glyph>
<glyph name="two" format="2">
	<advance width="552"/>
	<unicode hex="0032"/>
	<outline>
		<contour>
			<point x="31" y="0" type="line"/>
			<point x="502" y="0" type="line"/>
			<point x="526" y="134" type="line"/>
			<point x="150" y="134" type="line"/>
			<point x="190" y="116" type="line"/>
			<point x="184" y="155"/>
			<point x="186" y="179"/>
			<point x="298" y="249" type="curve" smooth="yes"/>
			<point x="366" y="292" type="line" smooth="yes"/>
			<point x="488" y="368"/>
			<point x="521" y="439"/>
			<point x="521" y="523" type="curve" smooth="yes"/>
			<point x="521" y="654"/>
			<point x="432" y="742"/>
			<point x="279" y="742" type="curve" smooth="yes"/>
			<point x="156" y="742"/>
			<point x="74" y="678"/>
			<point x="39" y="577" type="curve"/>
			<point x="165" y="521" type="line"/>
			<point x="187" y="580"/>
			<point x="219" y="606"/>
			<point x="274" y="607" type="curve" smooth="yes"/>
			<point x="333" y="607"/>
			<point x="371" y="574"/>
			<point x="371" y="519" type="curve" smooth="yes"/>
			<point x="371" y="478"/>
			<point x="356" y="449"/>
			<point x="270" y="397" type="curve" smooth="yes"/>
			<point x="207" y="358" type="line" smooth="yes"/>
			<point x="95" y="291"/>
			<point x="31" y="206"/>
			<point x="31" y="88" type="curve" smooth="yes"/>
		</contour>
	</outline>
</glyph>
<glyph name="three" format="2">
	<advance width="590"/>
	<unicode hex="0033"/>
	<outline>
		<contour>
			<point x="541" y="547" type="curve" smooth="yes"/>
			<point x="541" y="469"/>
			<point x="488" y="407"/>
			<point x="429" y="389" type="curve"/>
			<point x="445" y="424" type="line"/>
			<point x="445" y="362" type="line"/>
			<point x="430" y="394" type="line"/>
			<point x="522" y="377"/>
			<point x="572" y="309"/>
			<point x="572" y="215" type="curve" smooth="yes"/>
			<point x="572" y="85"/>
			<point x="464" y="-14"/>
			<point x="291" y="-14" type="curve" smooth="yes"/>
			<point x="146" y="-14"/>
			<point x="65" y="54"/>
			<point x="18" y="168" type="curve"/>
			<point x="146" y="230" type="line"/>
			<point x="181" y="150"/>
			<point x="219" y="120"/>
			<point x="289" y="120" type="curve" smooth="yes"/>
			<point x="378" y="120"/>
			<point x="420" y="161"/>
			<point x="420" y="223" type="curve" smooth="yes"/>
			<point x="420" y="283"/>
			<point x="383" y="323"/>
			<point x="297" y="323" type="curve"/>
			<point x="272" y="323" type="line"/>
			<point x="272" y="449" type="line"/>
			<point x="295" y="449" type="line"/>
			<point x="364" y="449"/>
			<point x="392" y="487"/>
			<point x="392" y="532" type="curve" smooth="yes"/>
			<point x="392" y="578"/>
			<point x="359" y="612"/>
			<point x="298" y="612" type="curve" smooth="yes"/>
			<point x="242" y="612"/>
			<point x="206" y="583"/>
			<point x="179" y="530" type="curve"/>
			<point x="61" y="587" type="line"/>
			<point x="103" y="684"/>
			<point x="180" y="742"/>
			<point x="298" y="742" type="curve" smooth="yes"/>
			<point x="445" y="742"/>
			<point x="541" y="661"/>
		</contour>
	</outline>
</glyph>
<glyph name="four" format="2">
	<advance width="622"/>
	<unicode hex="0034"/>
	<outline>
		<contour>
			<point x="20" y="124" type="line"/>
			<point x="20" y="217" type="line"/>
			<point x="419" y="727" type="line"/>
			<point x="524" y="727" type="line"/>
			<point x="524" y="0" type="line"/>
			<point x="374" y="0" type="line"/>
			<point x="374" y="192" type="line"/>
			<point x="374" y="512" type="line"/>
			<point x="474" y="459" type="line"/>
			<point x="344" y="459" type="line"/>
			<point x="414" y="517" type="line"/>
			<point x="187" y="228" type="line"/>
			<point x="211" y="284" type="line"/>
			<point x="211" y="226" type="line"/>
			<point x="174" y="254" type="line"/>
			<point x="602" y="254" type="line"/>
			<point x="602" y="124" type="line"/>
		</contour>
	</outline>
</glyph>
<glyph name="five" format="2">
	<advance width="584"/>
	<unicode hex="0035"/>
	<outline>
		<contour>
			<point x="321" y="504" type="curve" smooth="yes"/>
			<point x="474" y="504"/>
			<point x="559" y="399"/>
			<point x="559" y="257" type="curve" smooth="yes"/>
			<point x="559" y="97"/>
			<point x="448" y="-14"/>
			<point x="275" y="-14" type="curve" smooth="yes"/>
			<point x="156" y="-14"/>
			<point x="81" y="27"/>
			<point x="23" y="126" type="curve"/>
			<point x="142" y="210" type="line"/>
			<point x="175" y="150"/>
			<point x="218" y="124"/>
			<point x="278" y="124" type="curve" smooth="yes"/>
			<point x="356" y="124"/>
			<point x="408" y="179"/>
			<point x="408" y="255" type="curve" smooth="yes"/>
			<point x="408" y="332"/>
			<point x="358" y="383"/>
			<point x="280" y="383" type="curve" smooth="yes"/>
			<point x="214" y="383"/>
			<point x="171" y="349"/>
			<point x="143" y="299" type="curve"/>
			<point x="38" y="346" type="line"/>
			<point x="38" y="727" type="line"/>
			<point x="518" y="727" type="line"/>
			<point x="498" y="593" type="line"/>
			<point x="186" y="593" type="line"/>
			<point x="186" y="422" type="line"/>
			<point x="164" y="481" type="line"/>
			<point x="215" y="450" type="line"/>
			<point x="133" y="405" type="line"/>
			<point x="177" y="471"/>
			<point x="235" y="504"/>
		</contour>
	</outline>
</glyph>
<glyph name="six" format="2">
	<advance width="620"/>
	<unicode hex="0036"/>
	<outline>
		<contour>
			<point x="318" y="116" type="curve" smooth="yes"/>
			<point x="393" y="116"/>
			<point x="447" y="167"/>
			<point x="447" y="245" type="curve" smooth="yes"/>
			<point x="447" y="323"/>
			<point x="393" y="372"/>
			<point x="317" y="372" type="curve" smooth="yes"/>
			<point x="241" y="372"/>
			<point x="191" y="324"/>
			<point x="191" y="245" type="curve" smooth="yes"/>
			<point x="191" y="165"/>
			<point x="243" y="116"/>
		</contour>
		<contour>
			<point x="31" y="339" type="curve"/>
			<point x="31" y="598"/>
			<point x="142" y="741"/>
			<point x="326" y="741" type="curve" smooth="yes"/>
			<point x="442" y="741"/>
			<point x="511" y="690"/>
			<point x="560" y="615" type="curve"/>
			<point x="448" y="541" type="line"/>
			<point x="419" y="587"/>
			<point x="384" y="611"/>
			<point x="329" y="611" type="curve" smooth="yes"/>
			<point x="234" y="611"/>
			<point x="176" y="526"/>
			<point x="176" y="364" type="curve"/>
			<point x="176" y="332"/>
			<point x="176" y="315"/>
			<point x="177" y="299" type="curve"/>
			<point x="132" y="433" type="line"/>
			<point x="211" y="411" type="line"/>
			<point x="134" y="282" type="line"/>
			<point x="153" y="428"/>
			<point x="234" y="491"/>
			<point x="345" y="491" type="curve" smooth="yes"/>
			<point x="504" y="491"/>
			<point x="592" y="380"/>
			<point x="592" y="252" type="curve" smooth="yes"/>
			<point x="592" y="101"/>
			<point x="489" y="-15"/>
			<point x="316" y="-15" type="curve" smooth="yes"/>
			<point x="135" y="-15"/>
			<point x="31" y="105"/>
		</contour>
	</outline>
</glyph>
<glyph name="seven" format="2">
	<advance width="574"/>
	<unicode hex="0037"/>
	<outline>
		<contour>
			<point x="543" y="727" type="line"/>
			<point x="543" y="634" type="line"/>
			<point x="365" y="406"/>
			<point x="330" y="277"/>
			<point x="330" y="54" type="curve" smooth="yes"/>
			<point x="330" y="0" type="line"/>
			<point x="167" y="0" type="line"/>
			<point x="167" y="54" type="line" smooth="yes"/>
			<point x="167" y="270"/>
			<point x="220" y="425"/>
			<point x="391" y="610" type="curve"/>
			<point x="369" y="562" type="line"/>
			<point x="369" y="620" type="line"/>
			<point x="394" y="590" type="line"/>
			<point x="29" y="590" type="line"/>
			<point x="29" y="727" type="line"/>
		</contour>
	</outline>
</glyph>
<glyph name="eight" format="2">
	<advance width="620"/>
	<unicode hex="0038"/>
	<outline>
		<contour>
			<point x="310" y="742" type="curve" smooth="yes"/>
			<point x="160" y="742"/>
			<point x="66" y="659"/>
			<point x="66" y="540" type="curve" smooth="yes"/>
			<point x="66" y="474"/>
			<point x="99" y="418"/>
			<point x="162" y="380" type="curve"/>
			<point x="162" y="375" type="line"/>
			<point x="67" y="344"/>
			<point x="24" y="271"/>
			<point x="24" y="197" type="curve" smooth="yes"/>
			<point x="24" y="72"/>
			<point x="132" y="-14"/>
			<point x="310" y="-14" type="curve" smooth="yes"/>
			<point x="480" y="-14"/>
			<point x="596" y="76"/>
			<point x="596" y="214" type="curve" smooth="yes"/>
			<point x="596" y="300"/>
			<point x="562" y="365"/>
			<point x="459" y="406" type="curve"/>
			<point x="459" y="411" type="line"/>
			<point x="519" y="443"/>
			<point x="553" y="496"/>
			<point x="553" y="561" type="curve" smooth="yes"/>
			<point x="553" y="659"/>
			<point x="463" y="742"/>
		</contour>
		<contour>
			<point x="331" y="450" type="line" smooth="yes"/>
			<point x="244" y="472"/>
			<point x="213" y="503"/>
			<point x="213" y="542" type="curve" smooth="yes"/>
			<point x="213" y="585"/>
			<point x="245" y="617"/>
			<point x="309" y="617" type="curve" smooth="yes"/>
			<point x="374" y="617"/>
			<point x="408" y="581"/>
			<point x="408" y="532" type="curve" smooth="yes"/>
			<point x="408" y="499"/>
			<point x="387" y="467"/>
			<point x="348" y="445" type="curve"/>
		</contour>
		<contour>
			<point x="310" y="121" type="curve" smooth="yes"/>
			<point x="233" y="121"/>
			<point x="175" y="151"/>
			<point x="175" y="221" type="curve" smooth="yes"/>
			<point x="175" y="266"/>
			<point x="205" y="305"/>
			<point x="266" y="330" type="curve"/>
			<point x="292" y="323" type="line" smooth="yes"/>
			<point x="410" y="291"/>
			<point x="436" y="262"/>
			<point x="436" y="213" type="curve" smooth="yes"/>
			<point x="436" y="154"/>
			<point x="383" y="121"/>
		</contour>
	</outline>
</glyph>
<glyph name="nine" format="2">
	<advance width="620"/>
	<unicode hex="0039"/>
	<outline>
		<contour>
			<point x="303" y="611" type="curve" smooth="yes"/>
			<point x="227" y="611"/>
			<point x="173" y="559"/>
			<point x="174" y="481" type="curve" smooth="yes"/>
			<point x="174" y="404"/>
			<point x="227" y="354"/>
			<point x="304" y="354" type="curve" smooth="yes"/>
			<point x="379" y="354"/>
			<point x="429" y="403"/>
			<point x="429" y="481" type="curve" smooth="yes"/>
			<point x="429" y="561"/>
			<point x="377" y="611"/>
		</contour>
		<contour>
			<point x="589" y="377" type="curve" smooth="yes"/>
			<point x="589" y="119"/>
			<point x="478" y="-15"/>
			<point x="294" y="-15" type="curve" smooth="yes"/>
			<point x="172" y="-15"/>
			<point x="99" y="28"/>
			<point x="39" y="121" type="curve"/>
			<point x="154" y="197" type="line"/>
			<point x="192" y="140"/>
			<point x="228" y="115"/>
			<point x="292" y="115" type="curve" smooth="yes"/>
			<point x="387" y="115"/>
			<point x="445" y="194"/>
			<point x="445" y="365" type="curve"/>
			<point x="445" y="395"/>
			<point x="444" y="411"/>
			<point x="444" y="428" type="curve"/>
			<point x="489" y="294" type="line"/>
			<point x="409" y="315" type="line"/>
			<point x="487" y="445" type="line"/>
			<point x="471" y="293"/>
			<point x="387" y="235"/>
			<point x="276" y="235" type="curve" smooth="yes"/>
			<point x="120" y="235"/>
			<point x="29" y="338"/>
			<point x="29" y="477" type="curve" smooth="yes"/>
			<point x="29" y="625"/>
			<point x="132" y="741"/>
			<point x="305" y="741" type="curve" smooth="yes"/>
			<point x="485" y="741"/>
			<point x="589" y="622"/>
		</contour>
	</outline>
</glyph>
<glyph name="less" format="2">
	<advance width="620"/>
	<unicode hex="003C"/>
	<guideline x="1126" y="223" angle="90"/>
	<outline>
		<contour>
			<point x="563" y="580" type="line" smooth="yes"/>
			<point x="57" y="372" type="line"/>
			<point x="57" y="230" type="line"/>
			<point x="563" y="37" type="line"/>
			<point x="563" y="187" type="line"/>
			<point x="226" y="308" type="line"/>
			<point x="243" y="276" type="line"/>
			<point x="243" y="332" type="line"/>
			<point x="226" y="299" type="line"/>
			<point x="563" y="431" type="line"/>
		</contour>
	</outline>
</glyph>
<glyph name="greater" format="2">
	<advance width="620"/>
	<unicode hex="003E"/>
	<guideline x="118" y="216" angle="90"/>
	<outline>
		<contour>
			<point x="59" y="577" type="line" smooth="yes"/>
			<point x="561" y="370" type="line"/>
			<point x="561" y="227" type="line"/>
			<point x="59" y="34" type="line"/>
			<point x="59" y="183" type="line"/>
			<point x="397" y="302" type="line"/>
			<point x="385" y="273" type="line"/>
			<point x="385" y="329" type="line"/>
			<point x="397" y="300" type="line"/>
			<point x="59" y="427" type="line"/>
		</contour>
	</outline>
</glyph>
<glyph name="question" format="2">
	<advance width="488"/>
	<unicode hex="003F"/>
	<outline>
		<contour>
			<point x="165" y="315" type="line" smooth="yes"/>
			<point x="165" y="377"/>
			<point x="181" y="414"/>
			<point x="238" y="451" type="curve" smooth="yes"/>
			<point x="269" y="471" type="line" smooth="yes"/>
			<point x="309" y="496"/>
			<point x="324" y="520"/>
			<point x="324" y="556" type="curve" smooth="yes"/>
			<point x="324" y="593"/>
			<point x="295" y="624"/>
			<point x="241" y="624" type="curve" smooth="yes"/>
			<point x="187" y="624"/>
			<point x="159" y="596"/>
			<point x="145" y="547" type="curve"/>
			<point x="22" y="574" type="line"/>
			<point x="46" y="678"/>
			<point x="118" y="745"/>
			<point x="244" y="745" type="curve" smooth="yes"/>
			<point x="378" y="745"/>
			<point x="464" y="666"/>
			<point x="464" y="557" type="curve" smooth="yes"/>
			<point x="464" y="482"/>
			<point x="437" y="430"/>
			<point x="373" y="392" type="curve" smooth="yes"/>
			<point x="342" y="373" type="line" smooth="yes"/>
			<point x="305" y="351"/>
			<point x="298" y="337"/>
			<point x="298" y="302" type="curve" smooth="yes"/>
			<point x="298" y="227" type="line"/>
			<point x="165" y="227" type="line"/>
		</contour>
		<component base="period" xOffset="104"/>
	</outline>
</glyph>
<glyph name="at" format="2">
	<advance width="957"/>
	<unicode hex="0040"/>
	<outline>
		<contour>
			<point x="479" y="393" type="curve" smooth="yes"/>
			<point x="535" y="393"/>
			<point x="568" y="355"/>
			<point x="568" y="303" type="curve"/>
			<point x="568" y="302" type="line"/>
			<point x="568" y="252"/>
			<point x="535" y="212"/>
			<point x="479" y="212" type="curve" smooth="yes"/>
			<point x="425" y="212"/>
			<point x="389" y="246"/>
			<point x="389" y="302" type="curve" smooth="yes"/>
			<point x="389" y="361"/>
			<point x="425" y="393"/>
		</contour>
		<contour>
			<point x="486" y="749" type="curve" smooth="yes"/>
			<point x="219" y="749"/>
			<point x="28" y="571"/>
			<point x="28" y="297" type="curve" smooth="yes"/>
			<point x="28" y="29"/>
			<point x="221" y="-142"/>
			<point x="480" y="-142" type="curve" smooth="yes"/>
			<point x="606" y="-142"/>
			<point x="710" y="-106"/>
			<point x="788" y="-39" type="curve"/>
			<point x="691" y="35" type="line"/>
			<point x="639" y="-9"/>
			<point x="567" y="-30"/>
			<point x="480" y="-30" type="curve" smooth="yes"/>
			<point x="290" y="-30"/>
			<point x="154" y="93"/>
			<point x="154" y="297" type="curve" smooth="yes"/>
			<point x="154" y="508"/>
			<point x="290" y="636"/>
			<point x="484" y="636" type="curve" smooth="yes"/>
			<point x="690" y="636"/>
			<point x="813" y="521"/>
			<point x="813" y="339" type="curve" smooth="yes"/>
			<point x="813" y="243"/>
			<point x="784" y="203"/>
			<point x="734" y="203" type="curve" smooth="yes"/>
			<point x="706" y="203"/>
			<point x="695" y="216"/>
			<point x="695" y="241" type="curve" smooth="yes"/>
			<point x="695" y="498" type="line"/>
			<point x="596" y="498" type="line"/>
			<point x="586" y="459" type="line"/>
			<point x="583" y="459" type="line"/>
			<point x="557" y="492"/>
			<point x="516" y="512"/>
			<point x="459" y="512" type="curve" smooth="yes"/>
			<point x="348" y="511"/>
			<point x="259" y="432"/>
			<point x="259" y="302" type="curve" smooth="yes"/>
			<point x="259" y="174"/>
			<point x="347" y="93"/>
			<point x="459" y="93" type="curve" smooth="yes"/>
			<point x="520" y="93"/>
			<point x="569" y="114"/>
			<point x="592" y="152" type="curve"/>
			<point x="642" y="152" type="line"/>
			<point x="581" y="234" type="line"/>
			<point x="581" y="206" type="line"/>
			<point x="584" y="135"/>
			<point x="637" y="94"/>
			<point x="721" y="94" type="curve" smooth="yes"/>
			<point x="872" y="94"/>
			<point x="930" y="212"/>
			<point x="930" y="340" type="curve" smooth="yes"/>
			<point x="930" y="576"/>
			<point x="763" y="749"/>
		</contour>
	</outline>
</glyph>
<glyph name="A" format="2">
	<advance width="720"/>
	<unicode hex="0041"/>
	<anchor x="724" y="0" name="ogonek"/>
	<anchor x="362" y="727" name="top"/>
	<anchor x="362" y="726" name="ring"/>
	<anchor x="364" y="0" name="bottom"/>
	<outline>
		<contour>
			<point x="140" y="118" type="line"/>
			<point x="585" y="118" type="line"/>
			<point x="533" y="251" type="line"/>
			<point x="192" y="251" type="line"/>
		</contour>
		<contour>
			<point x="552" y="0" type="line"/>
			<point x="724" y="0" type="line"/>
			<point x="422" y="727" type="line"/>
			<point x="307" y="727" type="line"/>
			<point x="-4" y="0" type="line"/>
			<point x="165" y="0" type="line"/>
			<point x="359" y="482" type="line"/>
			<point x="322" y="476" type="line"/>
			<point x="396" y="476" type="line"/>
			<point x="360" y="482" type="line"/>
		</contour>
	</outline>
</glyph>
<glyph name="B" format="2">
	<advance width="623"/>
	<unicode hex="0042"/>
	<outline>
		<contour>
			<point x="40" y="0" type="line"/>
			<point x="357" y="0" type="line" smooth="yes"/>
			<point x="506" y="0"/>
			<point x="600" y="79"/>
			<point x="600" y="215" type="curve" smooth="yes"/>
			<point x="600" y="291"/>
			<point x="566" y="356"/>
			<point x="484" y="384" type="curve"/>
			<point x="502" y="361" type="line"/>
			<point x="502" y="398" type="line"/>
			<point x="485" y="374" type="line"/>
			<point x="548" y="400"/>
			<point x="584" y="453"/>
			<point x="584" y="526" type="curve" smooth="yes"/>
			<point x="584" y="651"/>
			<point x="496" y="727"/>
			<point x="336" y="727" type="curve" smooth="yes"/>
			<point x="40" y="727" type="line"/>
		</contour>
		<contour>
			<point x="322" y="594" type="line" smooth="yes"/>
			<point x="397" y="594"/>
			<point x="426" y="566"/>
			<point x="426" y="516" type="curve" smooth="yes"/>
			<point x="426" y="464"/>
			<point x="395" y="434"/>
			<point x="324" y="434" type="curve" smooth="yes"/>
			<point x="198" y="434" type="line"/>
			<point x="198" y="594" type="line"/>
		</contour>
		<contour>
			<point x="345" y="304" type="line" smooth="yes"/>
			<point x="408" y="304"/>
			<point x="442" y="274"/>
			<point x="442" y="219" type="curve" smooth="yes"/>
			<point x="442" y="158"/>
			<point x="403" y="133"/>
			<point x="336" y="133" type="curve" smooth="yes"/>
			<point x="198" y="133" type="line"/>
			<point x="198" y="304" type="line"/>
		</contour>
	</outline>
</glyph>
<glyph name="C" format="2">
	<advance width="728"/>
	<unicode hex="0043"/>
	<anchor x="407" y="727" name="top"/>
	<anchor x="405" y="0" name="bottom"/>
	<outline>
		<contour>
			<point x="27" y="363" type="curve" smooth="yes"/>
			<point x="27" y="141"/>
			<point x="177" y="-17"/>
			<point x="402" y="-17" type="curve" smooth="yes"/>
			<point x="539" y="-17"/>
			<point x="636" y="37"/>
			<point x="702" y="130" type="curve"/>
			<point x="585" y="223" type="line"/>
			<point x="542" y="163"/>
			<point x="487" y="133"/>
			<point x="405" y="133" type="curve" smooth="yes"/>
			<point x="270" y="133"/>
			<point x="191" y="232"/>
			<point x="191" y="363" type="curve" smooth="yes"/>
			<point x="191" y="493"/>
			<point x="270" y="592"/>
			<point x="405" y="592" type="curve" smooth="yes"/>
			<point x="487" y="592"/>
			<point x="542" y="563"/>
			<point x="585" y="503" type="curve"/>
			<point x="702" y="595" type="line"/>
			<point x="636" y="688"/>
			<point x="539" y="742"/>
			<point x="402" y="742" type="curve" smooth="yes"/>
			<point x="177" y="742"/>
			<point x="27" y="584"/>
		</contour>
	</outline>
</glyph>
<glyph name="D" format="2">
	<advance width="694"/>
	<unicode hex="0044"/>
	<anchor x="329" y="727" name="top"/>
	<outline>
		<contour>
			<point x="299" y="0" type="curve" smooth="yes"/>
			<point x="40" y="0" type="line"/>
			<point x="40" y="727" type="line"/>
			<point x="298" y="727" type="line" smooth="yes"/>
			<point x="519" y="727"/>
			<point x="668" y="585"/>
			<point x="668" y="363" type="curve" smooth="yes"/>
			<point x="668" y="140"/>
			<point x="519" y="0"/>
		</contour>
		<contour>
			<point x="299" y="576" type="curve" smooth="yes"/>
			<point x="198" y="576" type="line"/>
			<point x="198" y="152" type="line"/>
			<point x="298" y="152" type="line" smooth="yes"/>
			<point x="432" y="152"/>
			<point x="508" y="227"/>
			<point x="508" y="363" type="curve" smooth="yes"/>
			<point x="508" y="499"/>
			<point x="432" y="576"/>
		</contour>
	</outline>
</glyph>
<glyph name="E" format="2">
	<advance width="561"/>
	<unicode hex="0045"/>
	<anchor x="298" y="727" name="top"/>
	<anchor x="284" y="0" name="bottom"/>
	<anchor x="539" y="0" name="ogonek"/>
	<outline>
		<contour>
			<point x="539" y="0" type="line"/>
			<point x="539" y="145" type="line"/>
			<point x="199" y="145" type="line"/>
			<point x="199" y="300" type="line"/>
			<point x="447" y="300" type="line"/>
			<point x="447" y="443" type="line"/>
			<point x="199" y="443" type="line"/>
			<point x="199" y="583" type="line"/>
			<point x="523" y="583" type="line"/>
			<point x="523" y="727" type="line"/>
			<point x="40" y="727" type="line"/>
			<point x="40" y="0" type="line"/>
		</contour>
	</outline>
</glyph>
<glyph name="F" format="2">
	<advance width="545"/>
	<unicode hex="0046"/>
	<outline>
		<contour>
			<point x="525" y="582" type="line"/>
			<point x="525" y="727" type="line"/>
			<point x="40" y="727" type="line"/>
			<point x="40" y="0" type="line"/>
			<point x="198" y="0" type="line"/>
			<point x="198" y="253" type="line"/>
			<point x="464" y="253" type="line"/>
			<point x="464" y="395" type="line"/>
			<point x="198" y="395" type="line"/>
			<point x="198" y="582" type="line"/>
		</contour>
	</outline>
</glyph>
<glyph name="G" format="2">
	<advance width="769"/>
	<unicode hex="0047"/>
	<anchor x="400" y="727" name="top"/>
	<anchor x="400" y="0" name="bottom"/>
	<outline>
		<contour>
			<point x="395" y="592" type="curve" smooth="yes"/>
			<point x="487" y="592"/>
			<point x="540" y="553"/>
			<point x="558" y="482" type="curve"/>
			<point x="722" y="482" type="line"/>
			<point x="689" y="647"/>
			<point x="568" y="742"/>
			<point x="394" y="742" type="curve" smooth="yes"/>
			<point x="186" y="742"/>
			<point x="27" y="595"/>
			<point x="27" y="364" type="curve" smooth="yes"/>
			<point x="27" y="137"/>
			<point x="172" y="-15"/>
			<point x="379" y="-15" type="curve" smooth="yes"/>
			<point x="475" y="-15"/>
			<point x="557" y="20"/>
			<point x="597" y="77" type="curve"/>
			<point x="601" y="77" type="line"/>
			<point x="608" y="0" type="line"/>
			<point x="731" y="0" type="line"/>
			<point x="731" y="384" type="line"/>
			<point x="455" y="384" type="line"/>
			<point x="455" y="259" type="line"/>
			<point x="590" y="259" type="line"/>
			<point x="582" y="280" type="line"/>
			<point x="582" y="271" type="line"/>
			<point x="582" y="194"/>
			<point x="510" y="132"/>
			<point x="398" y="132" type="curve" smooth="yes"/>
			<point x="261" y="132"/>
			<point x="190" y="224"/>
			<point x="190" y="362" type="curve" smooth="yes"/>
			<point x="190" y="500"/>
			<point x="274" y="592"/>
		</contour>
	</outline>
</glyph>
<glyph name="H" format="2">
	<advance width="681"/>
	<unicode hex="0048"/>
	<outline>
		<contour>
			<point x="199" y="727" type="line"/>
			<point x="199" y="0" type="line"/>
			<point x="40" y="0" type="line"/>
			<point x="40" y="727" type="line"/>
		</contour>
		<contour>
			<point x="118" y="295" type="line"/>
			<point x="118" y="433" type="line"/>
			<point x="572" y="433" type="line"/>
			<point x="572" y="295" type="line"/>
		</contour>
		<contour>
			<point x="641" y="727" type="line"/>
			<point x="641" y="0" type="line"/>
			<point x="482" y="0" type="line"/>
			<point x="482" y="727" type="line"/>
		</contour>
	</outline>
</glyph>
<glyph name="I" format="2">
	<advance width="239"/>
	<unicode hex="0049"/>
	<anchor x="199" y="0" name="ogonek"/>
	<anchor x="119" y="0" name="bottom"/>
	<anchor x="119" y="727" name="top"/>
	<outline>
		<contour>
			<point x="199" y="727" type="line"/>
			<point x="40" y="727" type="line"/>
			<point x="40" y="0" type="line"/>
			<point x="199" y="0" type="line"/>
		</contour>
	</outline>
</glyph>
<glyph name="J" format="2">
	<advance width="522"/>
	<unicode hex="004A"/>
	<outline>
		<contour>
			<point x="487" y="727" type="line"/>
			<point x="487" y="242" type="line" smooth="yes"/>
			<point x="487" y="72"/>
			<point x="384" y="-15"/>
			<point x="233" y="-15" type="curve" smooth="yes"/>
			<point x="121" y="-15"/>
			<point x="48" y="27"/>
			<point x="10" y="118" type="curve"/>
			<point x="138" y="190" type="line"/>
			<point x="158" y="148"/>
			<point x="184" y="128"/>
			<point x="227" y="128" type="curve" smooth="yes"/>
			<point x="295" y="128"/>
			<point x="327" y="166"/>
			<point x="327" y="242" type="curve" smooth="yes"/>
			<point x="327" y="727" type="line"/>
		</contour>
	</outline>
</glyph>
<glyph name="K" format="2">
	<advance width="662"/>
	<unicode hex="004B"/>
	<anchor x="308" y="727" name="top"/>
	<anchor x="308" y="0" name="bottom"/>
	<outline>
		<contour>
			<point x="198" y="727" type="line"/>
			<point x="198" y="0" type="line"/>
			<point x="40" y="0" type="line"/>
			<point x="40" y="727" type="line"/>
		</contour>
		<contour>
			<point x="651" y="727" type="line"/>
			<point x="350" y="404" type="line"/>
			<point x="305" y="372" type="line"/>
			<point x="176" y="233" type="line"/>
			<point x="176" y="455" type="line"/>
			<point x="205" y="455" type="line"/>
			<point x="451" y="727" type="line"/>
		</contour>
		<contour>
			<point x="467" y="0" type="line"/>
			<point x="273" y="329" type="line"/>
			<point x="237" y="329" type="line"/>
			<point x="368" y="471" type="line"/>
			<point x="657" y="0" type="line"/>
		</contour>
	</outline>
</glyph>
<glyph name="L" format="2">
	<advance width="535"/>
	<unicode hex="004C"/>
	<anchor x="116" y="727" name="top"/>
	<anchor x="264" y="0" name="bottom"/>
	<outline>
		<contour>
			<point x="200" y="727" type="line"/>
			<point x="40" y="727" type="line"/>
			<point x="40" y="0" type="line"/>
			<point x="508" y="0" type="line"/>
			<point x="508" y="146" type="line"/>
			<point x="200" y="146" type="line"/>
		</contour>
	</outline>
</glyph>
<glyph name="M" format="2">
	<advance width="845"/>
	<unicode hex="004D"/>
	<outline>
		<contour>
			<point x="40" y="0" type="line"/>
			<point x="40" y="727" type="line"/>
			<point x="199" y="727" type="line"/>
			<point x="444" y="152" type="line"/>
			<point x="366" y="203" type="line"/>
			<point x="493" y="203" type="line"/>
			<point x="408" y="152" type="line"/>
			<point x="647" y="727" type="line"/>
			<point x="805" y="727" type="line"/>
			<point x="805" y="0" type="line"/>
			<point x="654" y="0" type="line"/>
			<point x="654" y="546" type="line"/>
			<point x="762" y="365" type="line"/>
			<point x="614" y="365" type="line"/>
			<point x="702" y="490" type="line"/>
			<point x="491" y="0" type="line"/>
			<point x="355" y="0" type="line"/>
			<point x="145" y="490" type="line"/>
			<point x="231" y="365" type="line"/>
			<point x="84" y="365" type="line"/>
			<point x="193" y="546" type="line"/>
			<point x="193" y="0" type="line"/>
		</contour>
	</outline>
</glyph>
<glyph name="N" format="2">
	<advance width="696"/>
	<unicode hex="004E"/>
	<anchor x="346" y="727" name="top"/>
	<anchor x="348" y="-1" name="bottom"/>
	<outline>
		<contour>
			<point x="40" y="0" type="line"/>
			<point x="40" y="727" type="line"/>
			<point x="194" y="727" type="line"/>
			<point x="501" y="271" type="line"/>
			<point x="481" y="281" type="line"/>
			<point x="519" y="281" type="line"/>
			<point x="499" y="271" type="line"/>
			<point x="499" y="727" type="line"/>
			<point x="656" y="727" type="line"/>
			<point x="656" y="0" type="line"/>
			<point x="502" y="0" type="line"/>
			<point x="196" y="455" type="line"/>
			<point x="216" y="445" type="line"/>
			<point x="178" y="445" type="line"/>
			<point x="198" y="455" type="line"/>
			<point x="198" y="0" type="line"/>
		</contour>
	</outline>
</glyph>
<glyph name="O" format="2">
	<advance width="815"/>
	<unicode hex="004F"/>
	<anchor x="406" y="727" name="top"/>
	<anchor x="408" y="-15" name="bottom"/>
	<outline>
		<contour>
			<point x="406" y="-15" type="curve" smooth="yes"/>
			<point x="186" y="-15"/>
			<point x="27" y="142"/>
			<point x="27" y="363" type="curve" smooth="yes"/>
			<point x="27" y="584"/>
			<point x="187" y="742"/>
			<point x="406" y="742" type="curve" smooth="yes"/>
			<point x="626" y="742"/>
			<point x="788" y="583"/>
			<point x="788" y="363" type="curve" smooth="yes"/>
			<point x="788" y="142"/>
			<point x="626" y="-15"/>
		</contour>
		<contour>
			<point x="406" y="135" type="curve" smooth="yes"/>
			<point x="534" y="135"/>
			<point x="625" y="228"/>
			<point x="625" y="363" type="curve" smooth="yes"/>
			<point x="625" y="497"/>
			<point x="533" y="592"/>
			<point x="406" y="592" type="curve" smooth="yes"/>
			<point x="280" y="592"/>
			<point x="191" y="498"/>
			<point x="191" y="363" type="curve" smooth="yes"/>
			<point x="191" y="227"/>
			<point x="279" y="135"/>
		</contour>
	</outline>
</glyph>
<glyph name="P" format="2">
	<advance width="593"/>
	<unicode hex="0050"/>
	<outline>
		<contour>
			<point x="40" y="727" type="line"/>
			<point x="40" y="0" type="line"/>
			<point x="199" y="0" type="line"/>
			<point x="199" y="591" type="line"/>
			<point x="309" y="591" type="line" smooth="yes"/>
			<point x="383" y="591"/>
			<point x="417" y="549"/>
			<point x="417" y="488" type="curve" smooth="yes"/>
			<point x="417" y="428"/>
			<point x="382" y="388"/>
			<point x="309" y="388" type="curve" smooth="yes"/>
			<point x="151" y="388" type="line"/>
			<point x="151" y="252" type="line"/>
			<point x="314" y="252" type="line" smooth="yes"/>
			<point x="478" y="252"/>
			<point x="574" y="344"/>
			<point x="574" y="490" type="curve" smooth="yes"/>
			<point x="574" y="637"/>
			<point x="478" y="727"/>
			<point x="313" y="727" type="curve" smooth="yes"/>
		</contour>
	</outline>
</glyph>
<glyph name="Q" format="2">
	<advance width="815"/>
	<unicode hex="0051"/>
	<outline>
		<contour>
			<point x="521" y="298" type="line"/>
			<point x="615" y="176" type="line"/>
			<point x="673" y="130" type="line"/>
			<point x="700" y="96" type="line" smooth="yes"/>
			<point x="712" y="82"/>
			<point x="717" y="81"/>
			<point x="735" y="81" type="curve" smooth="yes"/>
			<point x="784" y="81" type="line"/>
			<point x="784" y="-59" type="line"/>
			<point x="717" y="-59" type="line"/>
			<point x="648" y="-59"/>
			<point x="619" y="-45"/>
			<point x="578" y="10" type="curve" smooth="yes"/>
			<point x="557" y="39" type="line"/>
			<point x="515" y="110" type="line"/>
			<point x="422" y="219" type="line"/>
		</contour>
		<component base="O"/>
	</outline>
</glyph>
<glyph name="S" format="2">
	<advance width="601"/>
	<unicode hex="0053"/>
	<guideline x="123" y="350" angle="38.3612"/>
	<guideline x="936" y="1170" angle="38.6598"/>
	<anchor x="291" y="727" name="top"/>
	<anchor x="285" y="0" name="bottom"/>
	<outline>
		<contour>
			<point x="41" y="518" type="curve" smooth="yes"/>
			<point x="41" y="416"/>
			<point x="104" y="346"/>
			<point x="226" y="314" type="curve" smooth="yes"/>
			<point x="330" y="287" type="line" smooth="yes"/>
			<point x="398" y="269"/>
			<point x="423" y="244"/>
			<point x="423" y="205" type="curve" smooth="yes"/>
			<point x="423" y="153"/>
			<point x="380" y="123"/>
			<point x="311" y="123" type="curve" smooth="yes"/>
			<point x="239" y="123"/>
			<point x="193" y="156"/>
			<point x="181" y="222" type="curve"/>
			<point x="17" y="224" type="line"/>
			<point x="43" y="64"/>
			<point x="149" y="-15"/>
			<point x="311" y="-15" type="curve" smooth="yes"/>
			<point x="477" y="-15"/>
			<point x="586" y="76"/>
			<point x="586" y="213" type="curve" smooth="yes"/>
			<point x="586" y="320"/>
			<point x="526" y="391"/>
			<point x="388" y="425" type="curve" smooth="yes"/>
			<point x="283" y="451" type="line" smooth="yes"/>
			<point x="220" y="467"/>
			<point x="200" y="490"/>
			<point x="200" y="525" type="curve" smooth="yes"/>
			<point x="200" y="569"/>
			<point x="230" y="604"/>
			<point x="298" y="604" type="curve" smooth="yes"/>
			<point x="365" y="604"/>
			<point x="401" y="573"/>
			<point x="411" y="514" type="curve"/>
			<point x="566" y="515" type="line"/>
			<point x="549" y="658"/>
			<point x="454" y="742"/>
			<point x="298" y="742" type="curve" smooth="yes"/>
			<point x="139" y="741"/>
			<point x="41" y="650"/>
		</contour>
	</outline>
</glyph>
<glyph name="T" format="2">
	<advance width="606"/>
	<unicode hex="0054"/>
	<anchor x="303" y="727" name="top"/>
	<anchor x="303" y="0" name="bottom"/>
	<outline>
		<contour>
			<point x="8" y="582" type="line"/>
			<point x="223" y="582" type="line"/>
			<point x="223" y="0" type="line"/>
			<point x="383" y="0" type="line"/>
			<point x="383" y="582" type="line"/>
			<point x="599" y="582" type="line"/>
			<point x="599" y="727" type="line"/>
			<point x="8" y="727" type="line"/>
		</contour>
	</outline>
</glyph>
<glyph name="U" format="2">
	<advance width="645"/>
	<unicode hex="0055"/>
	<anchor x="428" y="0" name="ogonek"/>
	<anchor x="323" y="-15" name="bottom"/>
	<anchor x="323" y="727" name="top"/>
	<outline>
		<contour>
			<point x="611" y="727" type="line"/>
			<point x="454" y="727" type="line"/>
			<point x="454" y="276" type="line" smooth="yes"/>
			<point x="454" y="182"/>
			<point x="412" y="135"/>
			<point x="323" y="135" type="curve" smooth="yes"/>
			<point x="235" y="135"/>
			<point x="195" y="182"/>
			<point x="195" y="276" type="curve" smooth="yes"/>
			<point x="195" y="727" type="line"/>
			<point x="35" y="727" type="line"/>
			<point x="35" y="266" type="line" smooth="yes"/>
			<point x="35" y="82"/>
			<point x="145" y="-15"/>
			<point x="321" y="-15" type="curve" smooth="yes"/>
			<point x="498" y="-15"/>
			<point x="611" y="82"/>
			<point x="611" y="266" type="curve" smooth="yes"/>
		</contour>
	</outline>
</glyph>
<glyph name="W" format="2">
	<advance width="1015"/>
	<unicode hex="0057"/>
	<guideline x="1432" y="608" angle="0"/>
	<outline>
		<contour>
			<point x="-4" y="727" type="line"/>
			<point x="176" y="727" type="line"/>
			<point x="318" y="275" type="line"/>
			<point x="280" y="304" type="line"/>
			<point x="342" y="304" type="line"/>
			<point x="303" y="276" type="line"/>
			<point x="463" y="727" type="line"/>
			<point x="561" y="727" type="line"/>
			<point x="725" y="274" type="line"/>
			<point x="685" y="304" type="line"/>
			<point x="747" y="304" type="line"/>
			<point x="709" y="274" type="line"/>
			<point x="848" y="727" type="line"/>
			<point x="1019" y="727" type="line"/>
			<point x="776" y="0" type="line"/>
			<point x="671" y="0" type="line"/>
			<point x="502" y="455" type="line"/>
			<point x="541" y="428" type="line"/>
			<point x="479" y="428" type="line"/>
			<point x="518" y="455" type="line"/>
			<point x="344" y="0" type="line"/>
			<point x="241" y="0" type="line"/>
		</contour>
	</outline>
</glyph>
<glyph name="X" format="2">
	<advance width="667"/>
	<unicode hex="0058"/>
	<outline>
		<contour>
			<point x="201" y="727" type="line"/>
			<point x="13" y="727" type="line"/>
			<point x="264" y="336" type="line"/>
			<point x="304" y="290" type="line"/>
			<point x="485" y="0" type="line"/>
			<point x="671" y="0" type="line"/>
			<point x="406" y="414" type="line"/>
			<point x="363" y="466" type="line"/>
		</contour>
		<contour>
			<point x="174" y="0" type="line"/>
			<point x="324" y="248" type="line"/>
			<point x="376" y="248" type="line"/>
			<point x="255" y="402" type="line"/>
			<point x="-4" y="0" type="line"/>
		</contour>
		<contour>
			<point x="489" y="727" type="line"/>
			<point x="350" y="496" type="line"/>
			<point x="305" y="496" type="line"/>
			<point x="406" y="329" type="line"/>
			<point x="664" y="727" type="line"/>
		</contour>
	</outline>
</glyph>
<glyph name="Y" format="2">
	<advance width="720"/>
	<unicode hex="0059"/>
	<anchor x="363" y="727" name="top"/>
	<anchor x="359" y="0" name="bottom"/>
	<outline>
		<contour>
			<point x="181" y="727" type="line"/>
			<point x="361" y="436" type="line"/>
			<point x="331" y="438" type="line"/>
			<point x="396" y="438" type="line"/>
			<point x="363" y="436" type="line"/>
			<point x="546" y="727" type="line"/>
			<point x="727" y="727" type="line"/>
			<point x="418" y="251" type="line"/>
			<point x="303" y="251" type="line"/>
			<point x="-7" y="727" type="line"/>
		</contour>
		<contour>
			<point x="440" y="397" type="line"/>
			<point x="440" y="0" type="line"/>
			<point x="280" y="0" type="line"/>
			<point x="280" y="397" type="line"/>
		</contour>
	</outline>
</glyph>
<glyph name="Z" format="2">
	<advance width="591"/>
	<unicode hex="005A"/>
	<anchor x="297" y="727" name="top"/>
	<outline>
		<contour>
			<point x="41" y="727" type="line"/>
			<point x="568" y="727" type="line"/>
			<point x="568" y="591" type="line"/>
			<point x="193" y="109" type="line"/>
			<point x="227" y="189" type="line"/>
			<point x="227" y="123" type="line"/>
			<point x="160" y="146" type="line"/>
			<point x="572" y="146" type="line"/>
			<point x="572" y="0" type="line"/>
			<point x="26" y="0" type="line"/>
			<point x="26" y="126" type="line"/>
			<point x="402" y="607" type="line"/>
			<point x="377" y="538" type="line"/>
			<point x="377" y="605" type="line"/>
			<point x="399" y="582" type="line"/>
			<point x="41" y="582" type="line"/>
		</contour>
	</outline>
</glyph>
<glyph name="bracketleft" format="2">
	<advance width="309"/>
	<unicode hex="005B"/>
	<outline>
		<contour>
			<point x="197" y="22" type="line"/>
			<point x="292" y="22" type="line"/>
			<point x="292" y="-125" type="line"/>
			<point x="45" y="-125" type="line"/>
			<point x="45" y="786" type="line"/>
			<point x="292" y="786" type="line"/>
			<point x="292" y="639" type="line"/>
			<point x="197" y="639" type="line"/>
		</contour>
	</outline>
</glyph>
<glyph name="asciicircum" format="2">
	<advance width="620"/>
	<unicode hex="005E"/>
	<outline>
		<contour>
			<point x="428" y="417" type="line"/>
			<point x="610" y="417" type="line"/>
			<point x="376" y="727" type="line"/>
			<point x="245" y="727" type="line"/>
			<point x="11" y="417" type="line"/>
			<point x="184" y="417" type="line"/>
			<point x="306" y="593" type="line"/>
			<point x="309" y="593" type="line"/>
		</contour>
	</outline>
</glyph>
<glyph name="underscore" format="2">
	<advance width="440"/>
	<unicode hex="005F"/>
	<outline>
		<contour>
			<point x="29" y="-178" type="line"/>
			<point x="411" y="-178" type="line"/>
			<point x="411" y="-49" type="line"/>
			<point x="29" y="-49" type="line"/>
		</contour>
	</outline>
</glyph>
<glyph name="a" format="2">
	<advance width="550"/>
	<unicode hex="0061"/>
	<anchor x="277" y="536" name="top"/>
	<anchor x="513" y="0" name="ogonek"/>
	<anchor x="277" y="-9" name="bottom"/>
	<outline>
		<contour>
			<point x="194" y="368" type="line"/>
			<point x="200" y="400"/>
			<point x="229" y="425"/>
			<point x="280" y="425" type="curve" smooth="yes"/>
			<point x="337" y="425"/>
			<point x="368" y="394"/>
			<point x="368" y="341" type="curve" smooth="yes"/>
			<point x="368" y="327" type="line"/>
			<point x="215" y="317" type="line" smooth="yes"/>
			<point x="86" y="309"/>
			<point x="25" y="251"/>
			<point x="25" y="149" type="curve" smooth="yes"/>
			<point x="25" y="52"/>
			<point x="99" y="-9"/>
			<point x="210" y="-9" type="curve" smooth="yes"/>
			<point x="282" y="-9"/>
			<point x="335" y="12"/>
			<point x="367" y="56" type="curve"/>
			<point x="371" y="56" type="line"/>
			<point x="371" y="0" type="line"/>
			<point x="513" y="0" type="line"/>
			<point x="513" y="318" type="line" smooth="yes"/>
			<point x="513" y="475"/>
			<point x="434" y="549"/>
			<point x="279" y="549" type="curve" smooth="yes"/>
			<point x="150" y="549"/>
			<point x="66" y="475"/>
			<point x="49" y="368" type="curve"/>
		</contour>
		<contour>
			<point x="244" y="107" type="curve" smooth="yes"/>
			<point x="199" y="109"/>
			<point x="176" y="126"/>
			<point x="176" y="159" type="curve" smooth="yes"/>
			<point x="176" y="189"/>
			<point x="190" y="213"/>
			<point x="235" y="216" type="curve" smooth="yes"/>
			<point x="367" y="225" type="line"/>
			<point x="367" y="207" type="line" smooth="yes"/>
			<point x="367" y="145"/>
			<point x="325" y="107"/>
		</contour>
	</outline>
</glyph>
<glyph name="b" format="2">
	<advance width="628"/>
	<unicode hex="0062"/>
	<outline>
		<contour>
			<point x="191" y="727" type="line"/>
			<point x="191" y="476" type="line"/>
			<point x="195" y="476" type="line"/>
			<point x="233" y="522"/>
			<point x="286" y="545"/>
			<point x="357" y="545" type="curve" smooth="yes"/>
			<point x="489" y="545"/>
			<point x="598" y="448"/>
			<point x="598" y="268" type="curve" smooth="yes"/>
			<point x="598" y="88"/>
			<point x="488" y="-12"/>
			<point x="356" y="-12" type="curve" smooth="yes"/>
			<point x="276" y="-12"/>
			<point x="223" y="19"/>
			<point x="190" y="65" type="curve"/>
			<point x="186" y="65" type="line"/>
			<point x="186" y="0" type="line"/>
			<point x="41" y="0" type="line"/>
			<point x="41" y="727" type="line"/>
		</contour>
		<contour>
			<point x="317" y="417" type="curve" smooth="yes"/>
			<point x="243" y="417"/>
			<point x="190" y="365"/>
			<point x="190" y="269" type="curve" smooth="yes"/>
			<point x="190" y="175"/>
			<point x="245" y="120"/>
			<point x="317" y="120" type="curve" smooth="yes"/>
			<point x="390" y="120"/>
			<point x="442" y="176"/>
			<point x="442" y="269" type="curve" smooth="yes"/>
			<point x="442" y="361"/>
			<point x="391" y="417"/>
		</contour>
	</outline>
</glyph>
<glyph name="c" format="2">
	<advance width="595"/>
	<unicode hex="0063"/>
	<anchor x="310" y="535" name="top"/>
	<anchor x="308" y="0" name="bottom"/>
	<outline>
		<contour>
			<point x="571" y="201" type="curve"/>
			<point x="420" y="201" type="line"/>
			<point x="405" y="140"/>
			<point x="362" y="111"/>
			<point x="305" y="112" type="curve" smooth="yes"/>
			<point x="227" y="113"/>
			<point x="179" y="174"/>
			<point x="179" y="269" type="curve" smooth="yes"/>
			<point x="179" y="362"/>
			<point x="227" y="425"/>
			<point x="305" y="425" type="curve" smooth="yes"/>
			<point x="362" y="425"/>
			<point x="404" y="397"/>
			<point x="419" y="336" type="curve"/>
			<point x="571" y="337" type="line"/>
			<point x="544" y="478"/>
			<point x="449" y="553"/>
			<point x="310" y="553" type="curve" smooth="yes"/>
			<point x="136" y="553"/>
			<point x="28" y="434"/>
			<point x="28" y="268" type="curve" smooth="yes"/>
			<point x="28" y="103"/>
			<point x="135" y="-16"/>
			<point x="307" y="-16" type="curve" smooth="yes"/>
			<point x="449" y="-16"/>
			<point x="544" y="60"/>
		</contour>
	</outline>
</glyph>
<glyph name="d" format="2">
	<advance width="628"/>
	<unicode hex="0064"/>
	<outline>
		<contour>
			<point x="437" y="727" type="line"/>
			<point x="587" y="727" type="line"/>
			<point x="587" y="0" type="line"/>
			<point x="442" y="0" type="line"/>
			<point x="442" y="65" type="line"/>
			<point x="438" y="65" type="line"/>
			<point x="405" y="19"/>
			<point x="352" y="-12"/>
			<point x="272" y="-12" type="curve" smooth="yes"/>
			<point x="140" y="-12"/>
			<point x="30" y="88"/>
			<point x="30" y="268" type="curve" smooth="yes"/>
			<point x="30" y="448"/>
			<point x="139" y="545"/>
			<point x="271" y="545" type="curve" smooth="yes"/>
			<point x="342" y="545"/>
			<point x="395" y="522"/>
			<point x="433" y="476" type="curve"/>
			<point x="437" y="476" type="line"/>
		</contour>
		<contour>
			<point x="311" y="417" type="curve" smooth="yes"/>
			<point x="237" y="417"/>
			<point x="186" y="361"/>
			<point x="186" y="269" type="curve" smooth="yes"/>
			<point x="186" y="176"/>
			<point x="238" y="120"/>
			<point x="311" y="120" type="curve" smooth="yes"/>
			<point x="383" y="120"/>
			<point x="438" y="175"/>
			<point x="438" y="269" type="curve" smooth="yes"/>
			<point x="438" y="365"/>
			<point x="385" y="417"/>
		</contour>
	</outline>
</glyph>
<glyph name="e" format="2">
	<advance width="599"/>
	<unicode hex="0065"/>
	<anchor x="532" y="87" name="ogonek"/>
	<anchor x="305" y="0" name="bottom"/>
	<anchor x="301" y="536" name="top"/>
	<outline>
		<contour>
			<point x="136" y="220" type="line"/>
			<point x="575" y="220" type="line"/>
			<point x="585" y="434"/>
			<point x="484" y="554"/>
			<point x="301" y="554" type="curve" smooth="yes"/>
			<point x="132" y="554"/>
			<point x="28" y="431"/>
			<point x="28" y="267" type="curve" smooth="yes"/>
			<point x="28" y="103"/>
			<point x="132" y="-18"/>
			<point x="305" y="-18" type="curve" smooth="yes"/>
			<point x="435" y="-18"/>
			<point x="531" y="44"/>
			<point x="569" y="164" type="curve"/>
			<point x="418" y="164" type="line"/>
			<point x="404" y="127"/>
			<point x="366" y="102"/>
			<point x="306" y="102" type="curve" smooth="yes"/>
			<point x="230" y="102"/>
			<point x="181" y="161"/>
			<point x="181" y="252" type="curve"/>
			<point x="181" y="281" type="line"/>
			<point x="181" y="376"/>
			<point x="224" y="430"/>
			<point x="301" y="430" type="curve" smooth="yes"/>
			<point x="373" y="430"/>
			<point x="418" y="389"/>
			<point x="419" y="315" type="curve"/>
			<point x="452" y="324" type="line"/>
			<point x="136" y="324" type="line"/>
		</contour>
	</outline>
</glyph>
<glyph name="f" format="2">
	<advance width="327"/>
	<unicode hex="0066"/>
	<outline>
		<contour>
			<point x="10" y="536" type="line"/>
			<point x="10" y="400" type="line"/>
			<point x="299" y="400" type="line"/>
			<point x="299" y="536" type="line"/>
		</contour>
		<contour>
			<point x="222" y="0" type="line"/>
			<point x="222" y="456" type="line"/>
			<point x="222" y="510" type="line"/>
			<point x="222" y="563" type="line" smooth="yes"/>
			<point x="222" y="589"/>
			<point x="235" y="601"/>
			<point x="259" y="601" type="curve" smooth="yes"/>
			<point x="272" y="601"/>
			<point x="287" y="599"/>
			<point x="300" y="596" type="curve"/>
			<point x="300" y="727" type="line"/>
			<point x="279" y="731"/>
			<point x="257" y="734"/>
			<point x="236" y="734" type="curve" smooth="yes"/>
			<point x="135" y="734"/>
			<point x="71" y="673"/>
			<point x="71" y="571" type="curve" smooth="yes"/>
			<point x="71" y="0" type="line"/>
		</contour>
	</outline>
</glyph>
<glyph name="g" format="2">
	<advance width="622"/>
	<unicode hex="0067"/>
	<anchor x="305" y="536" name="top"/>
	<outline>
		<contour>
			<point x="431" y="64" type="line" smooth="yes"/>
			<point x="431" y="-23"/>
			<point x="396" y="-59"/>
			<point x="301" y="-59" type="curve" smooth="yes"/>
			<point x="236" y="-59"/>
			<point x="203" y="-38"/>
			<point x="192" y="0" type="curve"/>
			<point x="30" y="0" type="line"/>
			<point x="55" y="-112"/>
			<point x="139" y="-178"/>
			<point x="301" y="-178" type="curve" smooth="yes"/>
			<point x="489" y="-178"/>
			<point x="581" y="-88"/>
			<point x="581" y="64" type="curve" smooth="yes"/>
			<point x="581" y="536" type="line"/>
			<point x="438" y="536" type="line"/>
			<point x="438" y="472" type="line"/>
			<point x="434" y="472" type="line"/>
			<point x="405" y="522"/>
			<point x="351" y="549"/>
			<point x="272" y="549" type="curve" smooth="yes"/>
			<point x="135" y="549"/>
			<point x="28" y="450"/>
			<point x="28" y="286" type="curve" smooth="yes"/>
			<point x="28" y="122"/>
			<point x="135" y="31"/>
			<point x="271" y="31" type="curve" smooth="yes"/>
			<point x="343" y="31"/>
			<point x="393" y="54"/>
			<point x="426" y="102" type="curve"/>
			<point x="431" y="102" type="line"/>
		</contour>
		<contour>
			<point x="178" y="287" type="curve" smooth="yes"/>
			<point x="178" y="369"/>
			<point x="229" y="420"/>
			<point x="304" y="420" type="curve" smooth="yes"/>
			<point x="379" y="420"/>
			<point x="431" y="364"/>
			<point x="431" y="288" type="curve"/>
			<point x="431" y="287" type="line"/>
			<point x="431" y="210"/>
			<point x="379" y="154"/>
			<point x="304" y="154" type="curve" smooth="yes"/>
			<point x="229" y="154"/>
			<point x="178" y="205"/>
		</contour>
	</outline>
</glyph>
<glyph name="h" format="2">
	<advance width="576"/>
	<unicode hex="0068"/>
	<outline>
		<contour>
			<point x="191" y="0" type="line"/>
			<point x="191" y="311" type="line" smooth="yes"/>
			<point x="191" y="388"/>
			<point x="230" y="422"/>
			<point x="289" y="422" type="curve" smooth="yes"/>
			<point x="347" y="422"/>
			<point x="387" y="388"/>
			<point x="387" y="311" type="curve" smooth="yes"/>
			<point x="387" y="0" type="line"/>
			<point x="537" y="0" type="line"/>
			<point x="537" y="319" type="line" smooth="yes"/>
			<point x="537" y="466"/>
			<point x="460" y="550"/>
			<point x="333" y="550" type="curve" smooth="yes"/>
			<point x="271" y="550"/>
			<point x="225" y="528"/>
			<point x="196" y="489" type="curve"/>
			<point x="191" y="489" type="line"/>
			<point x="191" y="536" type="line"/>
			<point x="191" y="727" type="line"/>
			<point x="41" y="727" type="line"/>
			<point x="41" y="0" type="line"/>
		</contour>
	</outline>
</glyph>
<glyph name="k" format="2">
	<advance width="582"/>
	<unicode hex="006B"/>
	<anchor x="113" y="727" name="top"/>
	<anchor x="277" y="0" name="bottom"/>
	<outline>
		<contour>
			<point x="191" y="0" type="line"/>
			<point x="41" y="0" type="line"/>
			<point x="41" y="727" type="line"/>
			<point x="191" y="727" type="line"/>
		</contour>
		<contour>
			<point x="560" y="536" type="line"/>
			<point x="326" y="301" type="line"/>
			<point x="283" y="275" type="line"/>
			<point x="174" y="164" type="line"/>
			<point x="162" y="164" type="line"/>
			<point x="153" y="345" type="line"/>
			<point x="196" y="345" type="line"/>
			<point x="374" y="536" type="line"/>
		</contour>
		<contour>
			<point x="406" y="0" type="line"/>
			<point x="257" y="242" type="line"/>
			<point x="227" y="242" type="line"/>
			<point x="343" y="370" type="line"/>
			<point x="586" y="0" type="line"/>
		</contour>
	</outline>
</glyph>
<glyph name="m" format="2">
	<advance width="878"/>
	<unicode hex="006D"/>
	<outline>
		<contour>
			<point x="191" y="0" type="line"/>
			<point x="191" y="325" type="line" smooth="yes"/>
			<point x="191" y="392"/>
			<point x="227" y="422"/>
			<point x="279" y="422" type="curve" smooth="yes"/>
			<point x="331" y="422"/>
			<point x="366" y="392"/>
			<point x="366" y="325" type="curve" smooth="yes"/>
			<point x="366" y="0" type="line"/>
			<point x="516" y="0" type="line"/>
			<point x="516" y="325" type="line" smooth="yes"/>
			<point x="516" y="392"/>
			<point x="550" y="422"/>
			<point x="602" y="422" type="curve" smooth="yes"/>
			<point x="654" y="422"/>
			<point x="689" y="392"/>
			<point x="689" y="325" type="curve" smooth="yes"/>
			<point x="689" y="0" type="line"/>
			<point x="839" y="0" type="line"/>
			<point x="839" y="332" type="line" smooth="yes"/>
			<point x="839" y="470"/>
			<point x="768" y="551"/>
			<point x="650" y="551" type="curve" smooth="yes"/>
			<point x="570" y="551"/>
			<point x="529" y="527"/>
			<point x="491" y="471" type="curve"/>
			<point x="489" y="471" type="line"/>
			<point x="459" y="525"/>
			<point x="406" y="551"/>
			<point x="347" y="551" type="curve" smooth="yes"/>
			<point x="269" y="551"/>
			<point x="226" y="529"/>
			<point x="191" y="479" type="curve"/>
			<point x="188" y="479" type="line"/>
			<point x="188" y="536" type="line"/>
			<point x="41" y="536" type="line"/>
			<point x="41" y="0" type="line"/>
		</contour>
	</outline>
</glyph>
<glyph name="n" format="2">
	<advance width="576"/>
	<unicode hex="006E"/>
	<anchor x="288" y="536" name="top"/>
	<anchor x="288" y="0" name="bottom"/>
	<outline>
		<contour>
			<point x="191" y="0" type="line"/>
			<point x="191" y="300" type="line" smooth="yes"/>
			<point x="191" y="385"/>
			<point x="229" y="422"/>
			<point x="290" y="422" type="curve" smooth="yes"/>
			<point x="349" y="422"/>
			<point x="387" y="391"/>
			<point x="387" y="320" type="curve" smooth="yes"/>
			<point x="387" y="0" type="line"/>
			<point x="537" y="0" type="line"/>
			<point x="537" y="324" type="line" smooth="yes"/>
			<point x="537" y="469"/>
			<point x="461" y="551"/>
			<point x="341" y="551" type="curve" smooth="yes"/>
			<point x="278" y="551"/>
			<point x="224" y="528"/>
			<point x="190" y="481" type="curve"/>
			<point x="186" y="481" type="line"/>
			<point x="186" y="536" type="line"/>
			<point x="41" y="536" type="line"/>
			<point x="41" y="0" type="line"/>
		</contour>
	</outline>
</glyph>
<glyph name="o" format="2">
	<advance width="633"/>
	<unicode hex="006F"/>
	<anchor x="316" y="536" name="top"/>
	<anchor x="580" y="0" name="ogonek"/>
	<anchor x="316" y="-16" name="bottom"/>
	<outline>
		<contour>
			<point x="317" y="-17" type="curve" smooth="yes"/>
			<point x="149" y="-17"/>
			<point x="28" y="105"/>
			<point x="28" y="268" type="curve" smooth="yes"/>
			<point x="28" y="430"/>
			<point x="149" y="553"/>
			<point x="317" y="553" type="curve" smooth="yes"/>
			<point x="484" y="553"/>
			<point x="605" y="430"/>
			<point x="605" y="268" type="curve" smooth="yes"/>
			<point x="605" y="105"/>
			<point x="485" y="-17"/>
		</contour>
		<contour>
			<point x="317" y="121" type="curve" smooth="yes"/>
			<point x="399" y="121"/>
			<point x="453" y="181"/>
			<point x="453" y="268" type="curve" smooth="yes"/>
			<point x="453" y="355"/>
			<point x="398" y="416"/>
			<point x="317" y="416" type="curve" smooth="yes"/>
			<point x="234" y="416"/>
			<point x="180" y="355"/>
			<point x="180" y="268" type="curve" smooth="yes"/>
			<point x="180" y="181"/>
			<point x="234" y="121"/>
		</contour>
	</outline>
</glyph>
<glyph name="p" format="2">
	<advance width="626"/>
	<unicode hex="0070"/>
	<outline>
		<contour>
			<point x="191" y="-191" type="line"/>
			<point x="41" y="-191" type="line"/>
			<point x="41" y="536" type="line"/>
			<point x="186" y="536" type="line"/>
			<point x="186" y="471" type="line"/>
			<point x="190" y="471" type="line"/>
			<point x="223" y="517"/>
			<point x="276" y="548"/>
			<point x="356" y="548" type="curve" smooth="yes"/>
			<point x="488" y="548"/>
			<point x="598" y="448"/>
			<point x="598" y="268" type="curve" smooth="yes"/>
			<point x="598" y="88"/>
			<point x="489" y="-9"/>
			<point x="357" y="-9" type="curve" smooth="yes"/>
			<point x="286" y="-9"/>
			<point x="233" y="14"/>
			<point x="195" y="60" type="curve"/>
			<point x="191" y="60" type="line"/>
		</contour>
		<contour>
			<point x="317" y="119" type="curve" smooth="yes"/>
			<point x="391" y="119"/>
			<point x="442" y="175"/>
			<point x="442" y="267" type="curve" smooth="yes"/>
			<point x="442" y="360"/>
			<point x="390" y="416"/>
			<point x="317" y="416" type="curve" smooth="yes"/>
			<point x="245" y="416"/>
			<point x="190" y="361"/>
			<point x="190" y="267" type="curve" smooth="yes"/>
			<point x="190" y="171"/>
			<point x="243" y="119"/>
		</contour>
	</outline>
</glyph>
<glyph name="q" format="2">
	<advance width="633"/>
	<unicode hex="0071"/>
	<outline>
		<contour>
			<point x="443" y="-191" type="line"/>
			<point x="443" y="58" type="line"/>
			<point x="439" y="58" type="line"/>
			<point x="401" y="13"/>
			<point x="346" y="-9"/>
			<point x="274" y="-9" type="curve" smooth="yes"/>
			<point x="141" y="-9"/>
			<point x="31" y="88"/>
			<point x="31" y="268" type="curve" smooth="yes"/>
			<point x="31" y="448"/>
			<point x="146" y="548"/>
			<point x="283" y="548" type="curve" smooth="yes"/>
			<point x="361" y="548"/>
			<point x="412" y="517"/>
			<point x="444" y="471" type="curve"/>
			<point x="448" y="471" type="line"/>
			<point x="448" y="536" type="line"/>
			<point x="593" y="536" type="line"/>
			<point x="593" y="-191" type="line"/>
		</contour>
		<contour>
			<point x="310" y="119" type="curve" smooth="yes"/>
			<point x="392" y="119"/>
			<point x="444" y="171"/>
			<point x="444" y="267" type="curve" smooth="yes"/>
			<point x="444" y="361"/>
			<point x="390" y="416"/>
			<point x="310" y="416" type="curve" smooth="yes"/>
			<point x="233" y="416"/>
			<point x="187" y="359"/>
			<point x="187" y="267" type="curve" smooth="yes"/>
			<point x="187" y="175"/>
			<point x="232" y="119"/>
		</contour>
	</outline>
</glyph>
<glyph name="r" format="2">
	<advance width="378"/>
	<unicode hex="0072"/>
	<anchor x="196" y="536" name="top"/>
	<anchor x="113" y="0" name="bottom"/>
	<outline>
		<contour>
			<point x="191" y="0" type="line"/>
			<point x="191" y="281" type="line" smooth="yes"/>
			<point x="191" y="361"/>
			<point x="229" y="398"/>
			<point x="299" y="398" type="curve" smooth="yes"/>
			<point x="317" y="398"/>
			<point x="336" y="395"/>
			<point x="352" y="390" type="curve"/>
			<point x="352" y="536" type="line"/>
			<point x="341" y="540"/>
			<point x="326" y="543"/>
			<point x="306" y="543" type="curve" smooth="yes"/>
			<point x="247" y="543"/>
			<point x="201" y="517"/>
			<point x="175" y="457" type="curve"/>
			<point x="173" y="457" type="line"/>
			<point x="173" y="536" type="line"/>
			<point x="41" y="536" type="line"/>
			<point x="41" y="0" type="line"/>
		</contour>
	</outline>
</glyph>
<glyph name="s" format="2">
	<advance width="480"/>
	<unicode hex="0073"/>
	<anchor x="241" y="536" name="top"/>
	<anchor x="236" y="-13" name="bottom"/>
	<outline>
		<contour>
			<point x="33" y="379" type="curve" smooth="yes"/>
			<point x="33" y="298"/>
			<point x="80" y="247"/>
			<point x="183" y="221" type="curve" smooth="yes"/>
			<point x="253" y="203" type="line" smooth="yes"/>
			<point x="312" y="188"/>
			<point x="322" y="172"/>
			<point x="322" y="151" type="curve" smooth="yes"/>
			<point x="322" y="124"/>
			<point x="297" y="106"/>
			<point x="249" y="106" type="curve" smooth="yes"/>
			<point x="199" y="106"/>
			<point x="168" y="127"/>
			<point x="160" y="171" type="curve"/>
			<point x="11" y="171" type="line"/>
			<point x="32" y="51"/>
			<point x="114" y="-14"/>
			<point x="253" y="-14" type="curve" smooth="yes"/>
			<point x="381" y="-14"/>
			<point x="470" y="52"/>
			<point x="471" y="165" type="curve" smooth="yes"/>
			<point x="471" y="238"/>
			<point x="421" y="294"/>
			<point x="315" y="320" type="curve" smooth="yes"/>
			<point x="242" y="338" type="line" smooth="yes"/>
			<point x="187" y="352"/>
			<point x="175" y="363"/>
			<point x="175" y="387" type="curve" smooth="yes"/>
			<point x="175" y="413"/>
			<point x="200" y="430"/>
			<point x="245" y="430" type="curve" smooth="yes"/>
			<point x="290" y="430"/>
			<point x="321" y="409"/>
			<point x="327" y="371" type="curve"/>
			<point x="465" y="371" type="line"/>
			<point x="449" y="486"/>
			<point x="368" y="550"/>
			<point x="245" y="550" type="curve" smooth="yes"/>
			<point x="114" y="550"/>
			<point x="33" y="478"/>
		</contour>
	</outline>
</glyph>
<glyph name="t" format="2">
	<advance width="389"/>
	<unicode hex="0074"/>
	<anchor x="194" y="0" name="bottom"/>
	<outline>
		<contour>
			<point x="20" y="400" type="line"/>
			<point x="357" y="400" type="line"/>
			<point x="357" y="536" type="line"/>
			<point x="20" y="536" type="line"/>
		</contour>
		<contour>
			<point x="246" y="664" type="line"/>
			<point x="96" y="664" type="line"/>
			<point x="96" y="520" type="line"/>
			<point x="96" y="169" type="line" smooth="yes"/>
			<point x="96" y="46"/>
			<point x="162" y="-10"/>
			<point x="273" y="-10" type="curve" smooth="yes"/>
			<point x="307" y="-10"/>
			<point x="329" y="-7"/>
			<point x="357" y="0" type="curve"/>
			<point x="357" y="137" type="line"/>
			<point x="339" y="133"/>
			<point x="321" y="131"/>
			<point x="303" y="131" type="curve" smooth="yes"/>
			<point x="262" y="131"/>
			<point x="246" y="150"/>
			<point x="246" y="189" type="curve" smooth="yes"/>
		</contour>
	</outline>
</glyph>
<glyph name="u" format="2">
	<advance width="576"/>
	<unicode hex="0075"/>
	<anchor x="535" y="-1" name="ogonek"/>
	<anchor x="287" y="-15" name="bottom"/>
	<anchor x="287" y="536" name="top"/>
	<outline>
		<contour>
			<point x="385" y="536" type="line"/>
			<point x="385" y="236" type="line" smooth="yes"/>
			<point x="385" y="151"/>
			<point x="347" y="114"/>
			<point x="286" y="114" type="curve" smooth="yes"/>
			<point x="227" y="114"/>
			<point x="189" y="145"/>
			<point x="189" y="216" type="curve" smooth="yes"/>
			<point x="189" y="536" type="line"/>
			<point x="39" y="536" type="line"/>
			<point x="39" y="212" type="line" smooth="yes"/>
			<point x="39" y="67"/>
			<point x="115" y="-15"/>
			<point x="235" y="-15" type="curve" smooth="yes"/>
			<point x="298" y="-15"/>
			<point x="352" y="8"/>
			<point x="386" y="55" type="curve"/>
			<point x="390" y="55" type="line"/>
			<point x="390" y="0" type="line"/>
			<point x="535" y="0" type="line"/>
			<point x="535" y="536" type="line"/>
		</contour>
	</outline>
</glyph>
<glyph name="v" format="2">
	<advance width="559"/>
	<unicode hex="0076"/>
	<outline>
		<contour>
			<point x="163" y="536" type="line"/>
			<point x="290" y="155" type="line"/>
			<point x="243" y="190" type="line"/>
			<point x="315" y="190" type="line"/>
			<point x="271" y="155" type="line"/>
			<point x="404" y="536" type="line"/>
			<point x="563" y="536" type="line"/>
			<point x="350" y="0" type="line"/>
			<point x="209" y="0" type="line"/>
			<point x="-4" y="536" type="line"/>
		</contour>
	</outline>
</glyph>
<glyph name="w" format="2">
	<advance width="858"/>
	<unicode hex="0077"/>
	<outline>
		<contour>
			<point x="-1" y="536" type="line"/>
			<point x="161" y="536" type="line"/>
			<point x="261" y="176" type="line"/>
			<point x="193" y="213" type="line"/>
			<point x="309" y="213" type="line"/>
			<point x="236" y="158" type="line"/>
			<point x="366" y="536" type="line"/>
			<point x="496" y="536" type="line"/>
			<point x="621" y="182" type="line"/>
			<point x="576" y="213" type="line"/>
			<point x="644" y="213" type="line"/>
			<point x="604" y="176" type="line"/>
			<point x="704" y="536" type="line"/>
			<point x="859" y="536" type="line"/>
			<point x="683" y="0" type="line"/>
			<point x="547" y="0" type="line"/>
			<point x="417" y="345" type="line"/>
			<point x="455" y="315" type="line"/>
			<point x="387" y="315" type="line"/>
			<point x="434" y="345" type="line"/>
			<point x="311" y="0" type="line"/>
			<point x="175" y="0" type="line"/>
		</contour>
	</outline>
</glyph>
<glyph name="x" format="2">
	<advance width="548"/>
	<unicode hex="0078"/>
	<guideline x="420" y="172" angle="59.7022"/>
	<outline>
		<contour>
			<point x="178" y="536" type="line"/>
			<point x="8" y="536" type="line"/>
			<point x="206" y="244" type="line"/>
			<point x="250" y="195" type="line"/>
			<point x="380" y="0" type="line"/>
			<point x="553" y="0" type="line"/>
			<point x="345" y="299" type="line"/>
			<point x="301" y="345" type="line"/>
		</contour>
		<contour>
			<point x="160" y="0" type="line"/>
			<point x="261" y="172" type="line"/>
			<point x="285" y="172" type="line"/>
			<point x="195" y="310" type="line"/>
			<point x="-6" y="0" type="line"/>
		</contour>
		<contour>
			<point x="381" y="536" type="line"/>
			<point x="287" y="373" type="line"/>
			<point x="261" y="373" type="line"/>
			<point x="352" y="238" type="line"/>
			<point x="544" y="536" type="line"/>
		</contour>
	</outline>
</glyph>
<glyph name="y" format="2">
	<advance width="545"/>
	<unicode hex="0079"/>
	<anchor x="291" y="536" name="top"/>
	<anchor x="464" y="-6" name="bottom"/>
	<outline>
		<contour>
			<point x="152" y="-188" type="curve" smooth="yes"/>
			<point x="263" y="-188"/>
			<point x="315" y="-160"/>
			<point x="357" y="-38" type="curve" smooth="yes"/>
			<point x="552" y="536" type="line"/>
			<point x="398" y="536" type="line"/>
			<point x="288" y="179" type="line"/>
			<point x="308" y="193" type="line"/>
			<point x="274" y="193" type="line"/>
			<point x="294" y="180" type="line"/>
			<point x="163" y="536" type="line"/>
			<point x="-3" y="536" type="line"/>
			<point x="215" y="-2" type="line"/>
			<point x="207" y="-21" type="line" smooth="yes"/>
			<point x="198" y="-43"/>
			<point x="178" y="-47"/>
			<point x="148" y="-47" type="curve" smooth="yes"/>
			<point x="118" y="-47"/>
			<point x="90" y="-44"/>
			<point x="62" y="-39" type="curve"/>
			<point x="62" y="-178" type="line"/>
			<point x="92" y="-184"/>
			<point x="121" y="-188"/>
		</contour>
	</outline>
</glyph>
<glyph name="z" format="2">
	<advance width="496"/>
	<unicode hex="007A"/>
	<anchor x="245" y="536" name="top"/>
	<outline>
		<contour>
			<point x="22" y="0" type="line"/>
			<point x="22" y="119" type="line"/>
			<point x="281" y="411" type="line"/>
			<point x="270" y="365" type="line"/>
			<point x="270" y="430" type="line"/>
			<point x="286" y="402" type="line"/>
			<point x="22" y="402" type="line"/>
			<point x="22" y="536" type="line"/>
			<point x="465" y="536" type="line"/>
			<point x="465" y="418" type="line"/>
			<point x="206" y="125" type="line"/>
			<point x="217" y="171" type="line"/>
			<point x="217" y="106" type="line"/>
			<point x="207" y="135" type="line"/>
			<point x="474" y="135" type="line"/>
			<point x="474" y="0" type="line"/>
		</contour>
	</outline>
</glyph>
<glyph name="braceleft" format="2">
	<advance width="348"/>
	<unicode hex="007B"/>
	<outline>
		<contour>
			<point x="16" y="402" type="line"/>
			<point x="16" y="260" type="line"/>
			<point x="50" y="260" type="line" smooth="yes"/>
			<point x="81" y="260"/>
			<point x="96" y="244"/>
			<point x="96" y="214" type="curve" smooth="yes"/>
			<point x="96" y="40" type="line" smooth="yes"/>
			<point x="96" y="-68"/>
			<point x="158" y="-125"/>
			<point x="256" y="-125" type="curve" smooth="yes"/>
			<point x="332" y="-125" type="line"/>
			<point x="332" y="18" type="line"/>
			<point x="271" y="18" type="line" smooth="yes"/>
			<point x="254" y="18"/>
			<point x="244" y="28"/>
			<point x="244" y="48" type="curve" smooth="yes"/>
			<point x="244" y="195" type="line" smooth="yes"/>
			<point x="244" y="258"/>
			<point x="225" y="306"/>
			<point x="172" y="329" type="curve"/>
			<point x="172" y="333" type="line"/>
			<point x="225" y="355"/>
			<point x="244" y="404"/>
			<point x="244" y="466" type="curve" smooth="yes"/>
			<point x="244" y="614" type="line" smooth="yes"/>
			<point x="244" y="634"/>
			<point x="254" y="643"/>
			<point x="271" y="643" type="curve" smooth="yes"/>
			<point x="332" y="643" type="line"/>
			<point x="332" y="786" type="line"/>
			<point x="256" y="786" type="line" smooth="yes"/>
			<point x="158" y="786"/>
			<point x="96" y="729"/>
			<point x="96" y="622" type="curve" smooth="yes"/>
			<point x="96" y="448" type="line" smooth="yes"/>
			<point x="96" y="417"/>
			<point x="81" y="402"/>
			<point x="50" y="402" type="curve" smooth="yes"/>
		</contour>
	</outline>
</glyph>
<glyph name="bar" format="2">
	<advance width="245"/>
	<unicode hex="007C"/>
	<outline>
		<contour>
			<point x="201" y="775" type="line"/>
			<point x="201" y="-143" type="line"/>
			<point x="44" y="-143" type="line"/>
			<point x="44" y="775" type="line"/>
		</contour>
	</outline>
</glyph>
<glyph name="asciitilde" format="2">
	<advance width="620"/>
	<unicode hex="007E"/>
	<outline>
		<contour>
			<point x="465" y="429" type="line"/>
			<point x="465" y="372"/>
			<point x="445" y="349"/>
			<point x="418" y="349" type="curve" smooth="yes"/>
			<point x="367" y="349"/>
			<point x="313" y="433"/>
			<point x="206" y="433" type="curve" smooth="yes"/>
			<point x="92" y="433"/>
			<point x="26" y="356"/>
			<point x="26" y="220" type="curve"/>
			<point x="155" y="199" type="line"/>
			<point x="155" y="255"/>
			<point x="175" y="280"/>
			<point x="203" y="280" type="curve" smooth="yes"/>
			<point x="254" y="280"/>
			<point x="307" y="195"/>
			<point x="414" y="195" type="curve" smooth="yes"/>
			<point x="529" y="195"/>
			<point x="595" y="272"/>
			<point x="595" y="408" type="curve"/>
		</contour>
	</outline>
</glyph>
<glyph name="exclamdown" format="2">
	<advance width="258"/>
	<unicode hex="00A1"/>
	<outline>
		<contour>
			<point x="177" y="295" type="line"/>
			<point x="211" y="91" type="line"/>
			<point x="211" y="-178" type="line"/>
			<point x="47" y="-178" type="line"/>
			<point x="47" y="91" type="line"/>
			<point x="81" y="295" type="line"/>
		</contour>
		<component base="period" xScale="-1" yScale="-1" xOffset="255" yOffset="536"/>
	</outline>
</glyph>
<glyph name="cent" format="2">
	<advance width="620"/>
	<unicode hex="00A2"/>
	<outline>
		<contour>
			<point x="585" y="280" type="curve"/>
			<point x="453" y="317" type="line"/>
			<point x="429" y="250"/>
			<point x="388" y="217"/>
			<point x="321" y="217" type="curve" smooth="yes"/>
			<point x="234" y="217"/>
			<point x="186" y="281"/>
			<point x="186" y="364" type="curve" smooth="yes"/>
			<point x="186" y="448"/>
			<point x="234" y="511"/>
			<point x="321" y="511" type="curve" smooth="yes"/>
			<point x="388" y="511"/>
			<point x="428" y="481"/>
			<point x="450" y="420" type="curve"/>
			<point x="584" y="460" type="line"/>
			<point x="538" y="585"/>
			<point x="452" y="649"/>
			<point x="322" y="649" type="curve" smooth="yes"/>
			<point x="151" y="649"/>
			<point x="36" y="530"/>
			<point x="36" y="364" type="curve" smooth="yes"/>
			<point x="36" y="199"/>
			<point x="151" y="79"/>
			<point x="320" y="80" type="curve" smooth="yes"/>
			<point x="452" y="80"/>
			<point x="546" y="150"/>
		</contour>
		<contour>
			<point x="249" y="731" type="line"/>
			<point x="249" y="619" type="line"/>
			<point x="394" y="619" type="line"/>
			<point x="394" y="731" type="line"/>
		</contour>
		<contour>
			<point x="266" y="609" type="line"/>
			<point x="266" y="127" type="line"/>
			<point x="379" y="127" type="line"/>
			<point x="379" y="609" type="line"/>
		</contour>
		<contour>
			<point x="249" y="119" type="line"/>
			<point x="249" y="-5" type="line"/>
			<point x="394" y="-5" type="line"/>
			<point x="394" y="119" type="line"/>
		</contour>
	</outline>
</glyph>
<glyph name="sterling" format="2">
	<advance width="620"/>
	<unicode hex="00A3"/>
	<outline>
		<contour>
			<point x="47" y="295" type="line"/>
			<point x="487" y="295" type="line"/>
			<point x="487" y="414" type="line"/>
			<point x="192" y="414" type="line"/>
			<point x="47" y="411" type="line"/>
		</contour>
		<contour>
			<point x="41" y="96" type="curve"/>
			<point x="41" y="0" type="line"/>
			<point x="573" y="0" type="line"/>
			<point x="573" y="138" type="line"/>
			<point x="206" y="138" type="line"/>
			<point x="226" y="124" type="line"/>
			<point x="221" y="155" type="line"/>
			<point x="208" y="133" type="line"/>
			<point x="275" y="167"/>
			<point x="302" y="226"/>
			<point x="302" y="288" type="curve" smooth="yes"/>
			<point x="302" y="395"/>
			<point x="229" y="450"/>
			<point x="229" y="529" type="curve" smooth="yes"/>
			<point x="229" y="580"/>
			<point x="262" y="612"/>
			<point x="314" y="612" type="curve" smooth="yes"/>
			<point x="365" y="612"/>
			<point x="402" y="590"/>
			<point x="420" y="523" type="curve"/>
			<point x="551" y="558" type="line"/>
			<point x="518" y="681"/>
			<point x="438" y="742"/>
			<point x="310" y="742" type="curve" smooth="yes"/>
			<point x="170" y="742"/>
			<point x="74" y="658"/>
			<point x="74" y="539" type="curve" smooth="yes"/>
			<point x="74" y="425"/>
			<point x="155" y="355"/>
			<point x="155" y="259" type="curve" smooth="yes"/>
			<point x="155" y="192"/>
			<point x="120" y="134"/>
		</contour>
	</outline>
</glyph>
<glyph name="yen" format="2">
	<advance width="620"/>
	<unicode hex="00A5"/>
	<outline>
		<contour>
			<point x="185" y="727" type="line"/>
			<point x="5" y="727" type="line"/>
			<point x="253" y="318" type="line"/>
			<point x="368" y="318" type="line"/>
			<point x="615" y="727" type="line"/>
			<point x="443" y="727" type="line"/>
			<point x="313" y="479" type="line"/>
			<point x="346" y="482" type="line"/>
			<point x="280" y="482" type="line"/>
			<point x="312" y="479" type="line"/>
		</contour>
		<contour>
			<point x="390" y="377" type="line"/>
			<point x="230" y="377" type="line"/>
			<point x="230" y="0" type="line"/>
			<point x="390" y="0" type="line"/>
		</contour>
		<contour>
			<point x="21" y="216" type="line"/>
			<point x="599" y="216" type="line"/>
			<point x="599" y="332" type="line"/>
			<point x="21" y="332" type="line"/>
		</contour>
		<contour>
			<point x="21" y="392" type="line"/>
			<point x="234" y="392" type="line"/>
			<point x="234" y="508" type="line"/>
			<point x="21" y="508" type="line"/>
		</contour>
		<contour>
			<point x="388" y="392" type="line"/>
			<point x="599" y="392" type="line"/>
			<point x="599" y="508" type="line"/>
			<point x="388" y="508" type="line"/>
		</contour>
	</outline>
</glyph>
<glyph name="section" format="2">
	<advance width="582"/>
	<unicode hex="00A7"/>
	<outline>
		<contour>
			<point x="523" y="9" type="curve"/>
			<point x="523" y="-111"/>
			<point x="431" y="-190"/>
			<point x="291" y="-190" type="curve" smooth="yes"/>
			<point x="142" y="-190"/>
			<point x="58" y="-111"/>
			<point x="45" y="19" type="curve"/>
			<point x="188" y="36" type="line"/>
			<point x="197" y="-33"/>
			<point x="233" y="-61"/>
			<point x="292" y="-61" type="curve" smooth="yes"/>
			<point x="351" y="-61"/>
			<point x="382" y="-34"/>
			<point x="382" y="5" type="curve" smooth="yes"/>
			<point x="382" y="34"/>
			<point x="365" y="57"/>
			<point x="322" y="73" type="curve" smooth="yes"/>
			<point x="153" y="138" type="line" smooth="yes"/>
			<point x="50" y="176"/>
			<point x="12" y="238"/>
			<point x="12" y="314" type="curve" smooth="yes"/>
			<point x="12" y="393"/>
			<point x="54" y="457"/>
			<point x="143" y="493" type="curve"/>
			<point x="201" y="419" type="line"/>
			<point x="164" y="405"/>
			<point x="148" y="370"/>
			<point x="148" y="336" type="curve" smooth="yes"/>
			<point x="148" y="302"/>
			<point x="167" y="279"/>
			<point x="208" y="263" type="curve" smooth="yes"/>
			<point x="498" y="158" type="line"/>
			<point x="498" y="94" type="line"/>
			<point x="513" y="73"/>
			<point x="523" y="46"/>
		</contour>
		<contour>
			<point x="68" y="553" type="curve"/>
			<point x="68" y="664"/>
			<point x="156" y="742"/>
			<point x="287" y="742" type="curve" smooth="yes"/>
			<point x="425" y="742"/>
			<point x="491" y="659"/>
			<point x="513" y="557" type="curve"/>
			<point x="372" y="539" type="line"/>
			<point x="364" y="584"/>
			<point x="343" y="615"/>
			<point x="286" y="615" type="curve" smooth="yes"/>
			<point x="238" y="615"/>
			<point x="211" y="588"/>
			<point x="211" y="554" type="curve" smooth="yes"/>
			<point x="211" y="524"/>
			<point x="222" y="502"/>
			<point x="268" y="483" type="curve" smooth="yes"/>
			<point x="423" y="423" type="line" smooth="yes"/>
			<point x="526" y="384"/>
			<point x="566" y="325"/>
			<point x="566" y="244" type="curve" smooth="yes"/>
			<point x="566" y="163"/>
			<point x="518" y="100"/>
			<point x="434" y="58" type="curve"/>
			<point x="376" y="144" type="line"/>
			<point x="411" y="159"/>
			<point x="426" y="189"/>
			<point x="426" y="226" type="curve" smooth="yes"/>
			<point x="426" y="255"/>
			<point x="413" y="279"/>
			<point x="377" y="293" type="curve" smooth="yes"/>
			<point x="91" y="403" type="line"/>
			<point x="91" y="470" type="line"/>
			<point x="76" y="492"/>
			<point x="68" y="519"/>
		</contour>
	</outline>
</glyph>
<glyph name="copyright" format="2">
	<advance width="1020"/>
	<unicode hex="00A9"/>
	<outline>
		<contour>
			<point x="767" y="284" type="line"/>
			<point x="740" y="169"/>
			<point x="650" y="96"/>
			<point x="511" y="96" type="curve" smooth="yes"/>
			<point x="352" y="96"/>
			<point x="242" y="207"/>
			<point x="242" y="363" type="curve" smooth="yes"/>
			<point x="242" y="519"/>
			<point x="352" y="631"/>
			<point x="511" y="631" type="curve" smooth="yes"/>
			<point x="641" y="631"/>
			<point x="730" y="565"/>
			<point x="765" y="454" type="curve"/>
			<point x="626" y="407" type="line"/>
			<point x="608" y="457"/>
			<point x="577" y="486"/>
			<point x="512" y="486" type="curve" smooth="yes"/>
			<point x="440" y="486"/>
			<point x="396" y="434"/>
			<point x="396" y="363" type="curve" smooth="yes"/>
			<point x="396" y="293"/>
			<point x="440" y="241"/>
			<point x="512" y="241" type="curve" smooth="yes"/>
			<point x="575" y="241"/>
			<point x="613" y="271"/>
			<point x="627" y="326" type="curve"/>
		</contour>
		<contour>
			<point x="508" y="-102" type="curve" smooth="yes"/>
			<point x="233" y="-102"/>
			<point x="28" y="84"/>
			<point x="28" y="362" type="curve" smooth="yes"/>
			<point x="28" y="640"/>
			<point x="233" y="828"/>
			<point x="508" y="828" type="curve" smooth="yes"/>
			<point x="783" y="828"/>
			<point x="992" y="640"/>
			<point x="992" y="362" type="curve" smooth="yes"/>
			<point x="992" y="84"/>
			<point x="783" y="-102"/>
		</contour>
		<contour>
			<point x="508" y="3" type="curve" smooth="yes"/>
			<point x="733" y="3"/>
			<point x="882" y="140"/>
			<point x="882" y="361" type="curve" smooth="yes"/>
			<point x="882" y="583"/>
			<point x="733" y="724"/>
			<point x="508" y="724" type="curve" smooth="yes"/>
			<point x="280" y="724"/>
			<point x="137" y="583"/>
			<point x="137" y="361" type="curve" smooth="yes"/>
			<point x="137" y="140"/>
			<point x="280" y="3"/>
		</contour>
	</outline>
</glyph>
<glyph name="ordfeminine" format="2">
	<advance width="346"/>
	<unicode hex="00AA"/>
	<guideline x="641" y="999" angle="90"/>
	<outline>
		<contour>
			<point x="43" y="673" type="line"/>
			<point x="78" y="714"/>
			<point x="119" y="735"/>
			<point x="181" y="735" type="curve" smooth="yes"/>
			<point x="265" y="735"/>
			<point x="321" y="686"/>
			<point x="321" y="599" type="curve" smooth="yes"/>
			<point x="321" y="401" type="line"/>
			<point x="233" y="401" type="line"/>
			<point x="229" y="439" type="line"/>
			<point x="227" y="439" type="line"/>
			<point x="207" y="410"/>
			<point x="172" y="395"/>
			<point x="129" y="395" type="curve" smooth="yes"/>
			<point x="63" y="395"/>
			<point x="19" y="435"/>
			<point x="19" y="495" type="curve" smooth="yes"/>
			<point x="19" y="553"/>
			<point x="65" y="594"/>
			<point x="136" y="594" type="curve" smooth="yes"/>
			<point x="217" y="594" type="line"/>
			<point x="217" y="596" type="line" smooth="yes"/>
			<point x="217" y="628"/>
			<point x="201" y="643"/>
			<point x="172" y="643" type="curve" smooth="yes"/>
			<point x="150" y="643"/>
			<point x="131" y="634"/>
			<point x="119" y="617" type="curve"/>
		</contour>
		<contour>
			<point x="160" y="474" type="curve" smooth="yes"/>
			<point x="193" y="474"/>
			<point x="217" y="492"/>
			<point x="217" y="525" type="curve"/>
			<point x="217" y="527" type="line"/>
			<point x="160" y="527" type="line" smooth="yes"/>
			<point x="134" y="527"/>
			<point x="123" y="517"/>
			<point x="123" y="500" type="curve" smooth="yes"/>
			<point x="123" y="484"/>
			<point x="134" y="474"/>
		</contour>
		<contour>
			<point x="25" y="250" type="line"/>
			<point x="321" y="250" type="line"/>
			<point x="321" y="347" type="line"/>
			<point x="25" y="347" type="line"/>
		</contour>
	</outline>
</glyph>
<glyph name="logicalnot" format="2">
	<advance width="620"/>
	<unicode hex="00AC"/>
	<outline>
		<contour>
			<point x="422" y="231" type="line"/>
			<point x="422" y="67" type="line"/>
			<point x="562" y="67" type="line"/>
			<point x="562" y="371" type="line"/>
			<point x="58" y="371" type="line"/>
			<point x="58" y="231" type="line"/>
		</contour>
	</outline>
</glyph>
<glyph name="registered" format="2">
	<advance width="471"/>
	<unicode hex="00AE"/>
	<outline>
		<contour>
			<point x="235" y="347" type="curve" smooth="yes"/>
			<point x="106" y="347"/>
			<point x="10" y="434"/>
			<point x="10" y="564" type="curve" smooth="yes"/>
			<point x="10" y="694"/>
			<point x="106" y="782"/>
			<point x="235" y="782" type="curve" smooth="yes"/>
			<point x="363" y="782"/>
			<point x="461" y="694"/>
			<point x="461" y="564" type="curve" smooth="yes"/>
			<point x="461" y="434"/>
			<point x="363" y="347"/>
		</contour>
		<contour>
			<point x="235" y="408" type="curve" smooth="yes"/>
			<point x="333" y="408"/>
			<point x="397" y="466"/>
			<point x="397" y="564" type="curve" smooth="yes"/>
			<point x="397" y="661"/>
			<point x="333" y="722"/>
			<point x="235" y="722" type="curve" smooth="yes"/>
			<point x="136" y="722"/>
			<point x="74" y="661"/>
			<point x="74" y="564" type="curve" smooth="yes"/>
			<point x="73" y="466"/>
			<point x="136" y="408"/>
		</contour>
		<contour>
			<point x="300" y="555" type="line"/>
			<point x="339" y="458" type="line"/>
			<point x="257" y="458" type="line"/>
			<point x="229" y="543" type="line"/>
		</contour>
		<contour>
			<point x="145" y="672" type="line"/>
			<point x="252" y="672" type="line" smooth="yes"/>
			<point x="309" y="672"/>
			<point x="343" y="641"/>
			<point x="343" y="593" type="curve" smooth="yes"/>
			<point x="343" y="545"/>
			<point x="309" y="514"/>
			<point x="252" y="514" type="curve" smooth="yes"/>
			<point x="205" y="514" type="line"/>
			<point x="205" y="570" type="line"/>
			<point x="247" y="570" type="line" smooth="yes"/>
			<point x="261" y="570"/>
			<point x="267" y="577"/>
			<point x="267" y="589" type="curve" smooth="yes"/>
			<point x="267" y="600"/>
			<point x="261" y="607"/>
			<point x="247" y="607" type="curve" smooth="yes"/>
			<point x="223" y="607" type="line"/>
			<point x="223" y="458" type="line"/>
			<point x="145" y="458" type="line"/>
		</contour>
	</outline>
</glyph>
<glyph name="degree" format="2">
	<advance width="402"/>
	<unicode hex="00B0"/>
	<outline>
		<contour>
			<point x="201" y="390" type="curve" smooth="yes"/>
			<point x="306" y="390"/>
			<point x="376" y="463"/>
			<point x="376" y="563" type="curve" smooth="yes"/>
			<point x="376" y="662"/>
			<point x="306" y="735"/>
			<point x="201" y="735" type="curve" smooth="yes"/>
			<point x="97" y="735"/>
			<point x="26" y="662"/>
			<point x="26" y="563" type="curve" smooth="yes"/>
			<point x="26" y="463"/>
			<point x="97" y="390"/>
		</contour>
		<contour>
			<point x="201" y="492" type="curve" smooth="yes"/>
			<point x="158" y="492"/>
			<point x="132" y="521"/>
			<point x="132" y="563" type="curve" smooth="yes"/>
			<point x="132" y="603"/>
			<point x="158" y="633"/>
			<point x="201" y="633" type="curve" smooth="yes"/>
			<point x="243" y="633"/>
			<point x="269" y="603"/>
			<point x="269" y="563" type="curve" smooth="yes"/>
			<point x="269" y="521"/>
			<point x="243" y="492"/>
		</contour>
	</outline>
</glyph>
<glyph name="plusminus" format="2">
	<advance width="620"/>
	<unicode hex="00B1"/>
	<outline>
		<contour>
			<point x="62" y="345" type="line"/>
			<point x="558" y="345" type="line"/>
			<point x="558" y="485" type="line"/>
			<point x="62" y="485" type="line"/>
		</contour>
		<contour>
			<point x="381" y="179" type="line"/>
			<point x="381" y="652" type="line"/>
			<point x="240" y="652" type="line"/>
			<point x="240" y="179" type="line"/>
		</contour>
		<contour>
			<point x="62" y="0" type="line"/>
			<point x="558" y="0" type="line"/>
			<point x="558" y="139" type="line"/>
			<point x="62" y="139" type="line"/>
		</contour>
	</outline>
</glyph>
<glyph name="paragraph" format="2">
	<advance width="660"/>
	<unicode hex="00B6"/>
	<outline>
		<contour>
			<point x="277" y="727" type="line" smooth="yes"/>
			<point x="119" y="727"/>
			<point x="26" y="647"/>
			<point x="26" y="510" type="curve" smooth="yes"/>
			<point x="26" y="374"/>
			<point x="119" y="293"/>
			<point x="276" y="293" type="curve" smooth="yes"/>
			<point x="292" y="293" type="line"/>
			<point x="292" y="-178" type="line"/>
			<point x="423" y="-178" type="line"/>
			<point x="423" y="599" type="line"/>
			<point x="491" y="599" type="line"/>
			<point x="491" y="-178" type="line"/>
			<point x="619" y="-178" type="line"/>
			<point x="619" y="727" type="line"/>
		</contour>
	</outline>
</glyph>
<glyph name="ordmasculine" format="2">
	<advance width="386"/>
	<unicode hex="00BA"/>
	<outline>
		<contour>
			<point x="193" y="395" type="curve" smooth="yes"/>
			<point x="92" y="395"/>
			<point x="21" y="466"/>
			<point x="21" y="564" type="curve" smooth="yes"/>
			<point x="21" y="663"/>
			<point x="92" y="735"/>
			<point x="193" y="735" type="curve" smooth="yes"/>
			<point x="295" y="735"/>
			<point x="366" y="663"/>
			<point x="366" y="564" type="curve" smooth="yes"/>
			<point x="366" y="466"/>
			<point x="295" y="395"/>
		</contour>
		<contour>
			<point x="193" y="493" type="curve" smooth="yes"/>
			<point x="236" y="493"/>
			<point x="263" y="523"/>
			<point x="263" y="564" type="curve" smooth="yes"/>
			<point x="263" y="606"/>
			<point x="236" y="637"/>
			<point x="193" y="637" type="curve" smooth="yes"/>
			<point x="151" y="637"/>
			<point x="124" y="606"/>
			<point x="124" y="564" type="curve" smooth="yes"/>
			<point x="124" y="523"/>
			<point x="151" y="493"/>
		</contour>
		<contour>
			<point x="25" y="250" type="line"/>
			<point x="361" y="250" type="line"/>
			<point x="361" y="347" type="line"/>
			<point x="25" y="347" type="line"/>
		</contour>
	</outline>
</glyph>
<glyph name="questiondown" format="2">
	<advance width="471"/>
	<unicode hex="00BF"/>
	<outline>
		<contour>
			<point x="325" y="243" type="line" smooth="yes"/>
			<point x="325" y="181"/>
			<point x="309" y="143"/>
			<point x="252" y="107" type="curve" smooth="yes"/>
			<point x="220" y="88" type="line" smooth="yes"/>
			<point x="180" y="62"/>
			<point x="165" y="39"/>
			<point x="165" y="3" type="curve" smooth="yes"/>
			<point x="165" y="-37"/>
			<point x="191" y="-66"/>
			<point x="247" y="-66" type="curve" smooth="yes"/>
			<point x="304" y="-66"/>
			<point x="334" y="-39"/>
			<point x="347" y="10" type="curve"/>
			<point x="467" y="-15" type="line"/>
			<point x="442" y="-119"/>
			<point x="369" y="-187"/>
			<point x="245" y="-187" type="curve" smooth="yes"/>
			<point x="111" y="-187"/>
			<point x="26" y="-108"/>
			<point x="26" y="1" type="curve" smooth="yes"/>
			<point x="26" y="74"/>
			<point x="53" y="125"/>
			<point x="116" y="163" type="curve" smooth="yes"/>
			<point x="147" y="181" type="line" smooth="yes"/>
			<point x="184" y="203"/>
			<point x="192" y="217"/>
			<point x="192" y="253" type="curve" smooth="yes"/>
			<point x="192" y="309" type="line"/>
			<point x="325" y="309" type="line"/>
		</contour>
		<component base="period" xScale="-1" yScale="-1" xOffset="384" yOffset="536"/>
	</outline>
</glyph>
<glyph name="AE" format="2">
	<advance width="903"/>
	<unicode hex="00C6"/>
	<guideline x="581" y="575" angle="66.3523"/>
	<guideline x="1445" y="1188" angle="0"/>
	<outline>
		<contour>
			<point x="146" y="146" type="line"/>
			<point x="528" y="146" type="line"/>
			<point x="528" y="279" type="line"/>
			<point x="198" y="279" type="line"/>
		</contour>
		<contour>
			<point x="885" y="0" type="line"/>
			<point x="885" y="133" type="line"/>
			<point x="593" y="133" type="line"/>
			<point x="593" y="304" type="line"/>
			<point x="735" y="304" type="line"/>
			<point x="735" y="437" type="line"/>
			<point x="593" y="437" type="line"/>
			<point x="593" y="594" type="line"/>
			<point x="869" y="594" type="line"/>
			<point x="869" y="727" type="line"/>
			<point x="334" y="727" type="line"/>
			<point x="-4" y="0" type="line"/>
			<point x="173" y="0" type="line"/>
			<point x="433" y="594" type="line"/>
			<point x="437" y="594" type="line"/>
			<point x="437" y="0" type="line"/>
		</contour>
	</outline>
</glyph>
<glyph name="Eth" format="2">
	<advance width="725"/>
	<unicode hex="00D0"/>
	<outline>
		<contour>
			<point x="12" y="302" type="line"/>
			<point x="12" y="441" type="line"/>
			<point x="82" y="441" type="line"/>
			<point x="208" y="433" type="line"/>
			<point x="388" y="433" type="line"/>
			<point x="388" y="310" type="line"/>
			<point x="208" y="310" type="line"/>
			<point x="82" y="302" type="line"/>
		</contour>
		<component base="D" xOffset="29"/>
	</outline>
</glyph>
<glyph name="Oslash" format="2">
	<advance width="815"/>
	<unicode hex="00D8"/>
	<anchor x="406" y="727" name="top"/>
	<outline>
		<contour>
			<point x="19" y="54" type="line"/>
			<point x="124" y="165" type="line"/>
			<point x="175" y="212" type="line"/>
			<point x="553" y="611" type="line"/>
			<point x="595" y="662" type="line"/>
			<point x="695" y="768" type="line"/>
			<point x="795" y="672" type="line"/>
			<point x="693" y="563" type="line"/>
			<point x="645" y="520" type="line"/>
			<point x="260" y="114" type="line"/>
			<point x="222" y="67" type="line"/>
			<point x="120" y="-42" type="line"/>
		</contour>
		<component base="O"/>
	</outline>
</glyph>
<glyph name="Thorn" format="2">
	<advance width="594"/>
	<unicode hex="00DE"/>
	<outline>
		<contour>
			<point x="152" y="467" type="line"/>
			<point x="310" y="467" type="line" smooth="yes"/>
			<point x="384" y="467"/>
			<point x="418" y="426"/>
			<point x="418" y="365" type="curve" smooth="yes"/>
			<point x="418" y="304"/>
			<point x="383" y="264"/>
			<point x="310" y="264" type="curve"/>
			<point x="152" y="264" type="line"/>
			<point x="152" y="130" type="line"/>
			<point x="315" y="130" type="line"/>
			<point x="479" y="130"/>
			<point x="575" y="220"/>
			<point x="575" y="364" type="curve" smooth="yes"/>
			<point x="575" y="511"/>
			<point x="479" y="601"/>
			<point x="314" y="601" type="curve" smooth="yes"/>
			<point x="152" y="601" type="line"/>
		</contour>
		<contour>
			<point x="41" y="727" type="line"/>
			<point x="41" y="0" type="line"/>
			<point x="200" y="0" type="line"/>
			<point x="200" y="727" type="line"/>
		</contour>
	</outline>
</glyph>
<glyph name="germandbls" format="2">
	<advance width="569"/>
	<unicode hex="00DF"/>
	<outline>
		<contour>
			<point x="248" y="0" type="line"/>
			<point x="301" y="0" type="line" smooth="yes"/>
			<point x="456" y="0"/>
			<point x="545" y="89"/>
			<point x="545" y="230" type="curve" smooth="yes"/>
			<point x="545" y="326"/>
			<point x="492" y="400"/>
			<point x="396" y="425" type="curve"/>
			<point x="396" y="427" type="line"/>
			<point x="450" y="449"/>
			<point x="480" y="495"/>
			<point x="480" y="555" type="curve" smooth="yes"/>
			<point x="480" y="664"/>
			<point x="402" y="732"/>
			<point x="273" y="732" type="curve" smooth="yes"/>
			<point x="247" y="732" type="line" smooth="yes"/>
			<point x="122" y="732"/>
			<point x="41" y="657"/>
			<point x="41" y="521" type="curve" smooth="yes"/>
			<point x="41" y="0" type="line"/>
			<point x="190" y="0" type="line"/>
			<point x="190" y="521" type="line" smooth="yes"/>
			<point x="190" y="574"/>
			<point x="216" y="602"/>
			<point x="263" y="602" type="curve" smooth="yes"/>
			<point x="270" y="602" type="line" smooth="yes"/>
			<point x="322" y="602"/>
			<point x="347" y="575"/>
			<point x="347" y="535" type="curve" smooth="yes"/>
			<point x="347" y="495"/>
			<point x="323" y="467"/>
			<point x="274" y="467" type="curve" smooth="yes"/>
			<point x="248" y="467" type="line"/>
			<point x="248" y="340" type="line"/>
			<point x="290" y="340" type="line"/>
			<point x="373" y="340"/>
			<point x="404" y="300"/>
			<point x="404" y="238" type="curve" smooth="yes"/>
			<point x="404" y="176"/>
			<point x="373" y="136"/>
			<point x="290" y="136" type="curve"/>
			<point x="248" y="136" type="line"/>
		</contour>
	</outline>
</glyph>
<glyph name="ae" format="2">
	<advance width="902"/>
	<unicode hex="00E6"/>
	<outline>
		<contour>
			<point x="246" y="107" type="curve" smooth="yes"/>
			<point x="193" y="107"/>
			<point x="169" y="129"/>
			<point x="169" y="164" type="curve" smooth="yes"/>
			<point x="169" y="200"/>
			<point x="192" y="223"/>
			<point x="243" y="223" type="curve" smooth="yes"/>
			<point x="359" y="223" type="line"/>
			<point x="359" y="210" type="line"/>
			<point x="359" y="143"/>
			<point x="311" y="107"/>
		</contour>
		<contour>
			<point x="628" y="117" type="curve" smooth="yes"/>
			<point x="543" y="117"/>
			<point x="502" y="171"/>
			<point x="502" y="255" type="curve"/>
			<point x="502" y="279" type="line"/>
			<point x="502" y="371"/>
			<point x="541" y="424"/>
			<point x="619" y="424" type="curve" smooth="yes"/>
			<point x="685" y="424"/>
			<point x="728" y="385"/>
			<point x="729" y="309" type="curve"/>
			<point x="759" y="322" type="line"/>
			<point x="439" y="322" type="line"/>
			<point x="439" y="226" type="line"/>
			<point x="874" y="226" type="line"/>
			<point x="896" y="426"/>
			<point x="796" y="549"/>
			<point x="623" y="549" type="curve" smooth="yes"/>
			<point x="547" y="549"/>
			<point x="490" y="521"/>
			<point x="450" y="473" type="curve"/>
			<point x="447" y="473" type="line"/>
			<point x="410" y="522"/>
			<point x="351" y="550"/>
			<point x="264" y="550" type="curve" smooth="yes"/>
			<point x="168" y="549"/>
			<point x="96" y="507"/>
			<point x="52" y="433" type="curve"/>
			<point x="162" y="364" type="line"/>
			<point x="185" y="401"/>
			<point x="217" y="423"/>
			<point x="264" y="423" type="curve" smooth="yes"/>
			<point x="322" y="423"/>
			<point x="359" y="392"/>
			<point x="359" y="330" type="curve" smooth="yes"/>
			<point x="359" y="322" type="line"/>
			<point x="219" y="322" type="line" smooth="yes"/>
			<point x="99" y="322"/>
			<point x="26" y="253"/>
			<point x="26" y="154" type="curve" smooth="yes"/>
			<point x="26" y="55"/>
			<point x="100" y="-13"/>
			<point x="225" y="-13" type="curve" smooth="yes"/>
			<point x="316" y="-13"/>
			<point x="383" y="20"/>
			<point x="419" y="80" type="curve"/>
			<point x="422" y="80" type="line"/>
			<point x="466" y="20"/>
			<point x="543" y="-13"/>
			<point x="628" y="-13" type="curve" smooth="yes"/>
			<point x="731" y="-13"/>
			<point x="811" y="31"/>
			<point x="859" y="106" type="curve"/>
			<point x="747" y="176" type="line"/>
			<point x="722" y="138"/>
			<point x="683" y="117"/>
		</contour>
	</outline>
</glyph>
<glyph name="eth" format="2">
	<advance width="613"/>
	<unicode hex="00F0"/>
	<outline>
		<contour>
			<point x="110" y="539" type="line"/>
			<point x="86" y="623" type="line"/>
			<point x="230" y="665" type="line"/>
			<point x="230" y="678" type="line"/>
			<point x="336" y="688" type="line"/>
			<point x="505" y="735" type="line"/>
			<point x="529" y="651" type="line"/>
			<point x="456" y="630" type="line"/>
			<point x="456" y="615" type="line"/>
			<point x="336" y="604" type="line"/>
		</contour>
		<contour>
			<point x="176" y="253" type="curve" smooth="yes"/>
			<point x="176" y="178"/>
			<point x="225" y="121"/>
			<point x="304" y="121" type="curve" smooth="yes"/>
			<point x="384" y="121"/>
			<point x="433" y="179"/>
			<point x="433" y="253" type="curve"/>
			<point x="433" y="328"/>
			<point x="385" y="381"/>
			<point x="304" y="381" type="curve" smooth="yes"/>
			<point x="224" y="381"/>
			<point x="176" y="328"/>
		</contour>
		<contour>
			<point x="583" y="290" type="curve"/>
			<point x="583" y="91"/>
			<point x="473" y="-16"/>
			<point x="300" y="-16" type="curve" smooth="yes"/>
			<point x="140" y="-16"/>
			<point x="26" y="88"/>
			<point x="26" y="252" type="curve" smooth="yes"/>
			<point x="26" y="396"/>
			<point x="123" y="498"/>
			<point x="260" y="498" type="curve" smooth="yes"/>
			<point x="324" y="498"/>
			<point x="374" y="477"/>
			<point x="407" y="442" type="curve"/>
			<point x="410" y="443" type="line"/>
			<point x="376" y="561"/>
			<point x="274" y="670"/>
			<point x="109" y="724" type="curve"/>
			<point x="109" y="727" type="line"/>
			<point x="245" y="759" type="line"/>
			<point x="469" y="690"/>
			<point x="583" y="490"/>
		</contour>
	</outline>
</glyph>
<glyph name="divide" format="2">
	<advance width="620"/>
	<unicode hex="00F7"/>
	<outline>
		<contour>
			<point x="45" y="238" type="line"/>
			<point x="576" y="238" type="line"/>
			<point x="576" y="378" type="line"/>
			<point x="45" y="378" type="line"/>
		</contour>
		<contour>
			<point x="228" y="442" type="line"/>
			<point x="228" y="603" type="line"/>
			<point x="393" y="603" type="line"/>
			<point x="393" y="442" type="line"/>
		</contour>
		<contour>
			<point x="228" y="13" type="line"/>
			<point x="228" y="174" type="line"/>
			<point x="393" y="174" type="line"/>
			<point x="393" y="13" type="line"/>
		</contour>
	</outline>
</glyph>
<glyph name="oslash" format="2">
	<advance width="628"/>
	<unicode hex="00F8"/>
	<anchor x="315" y="536" name="top"/>
	<outline>
		<contour>
			<point x="21" y="51" type="line"/>
			<point x="97" y="133" type="line"/>
			<point x="153" y="164" type="line"/>
			<point x="405" y="436" type="line"/>
			<point x="434" y="496" type="line"/>
			<point x="513" y="580" type="line"/>
			<point x="607" y="490" type="line"/>
			<point x="529" y="406" type="line"/>
			<point x="472" y="373" type="line"/>
			<point x="228" y="110" type="line"/>
			<point x="196" y="48" type="line"/>
			<point x="116" y="-39" type="line"/>
		</contour>
		<component base="o"/>
	</outline>
</glyph>
<glyph name="thorn" format="2">
	<advance width="626"/>
	<unicode hex="00FE"/>
	<outline>
		<contour>
			<point x="598" y="268" type="curve" smooth="yes"/>
			<point x="598" y="448"/>
			<point x="487" y="541"/>
			<point x="350" y="541" type="curve" smooth="yes"/>
			<point x="278" y="541"/>
			<point x="231" y="520"/>
			<point x="195" y="479" type="curve"/>
			<point x="191" y="479" type="line"/>
			<point x="191" y="536" type="line"/>
			<point x="191" y="727" type="line"/>
			<point x="41" y="727" type="line"/>
			<point x="41" y="-178" type="line"/>
			<point x="191" y="-178" type="line"/>
			<point x="191" y="0" type="line"/>
			<point x="191" y="54" type="line"/>
			<point x="195" y="54" type="line"/>
			<point x="231" y="13"/>
			<point x="278" y="-9"/>
			<point x="350" y="-9" type="curve" smooth="yes"/>
			<point x="487" y="-9"/>
			<point x="598" y="88"/>
		</contour>
		<contour>
			<point x="442" y="268" type="curve" smooth="yes"/>
			<point x="442" y="176"/>
			<point x="391" y="121"/>
			<point x="317" y="121" type="curve" smooth="yes"/>
			<point x="243" y="121"/>
			<point x="190" y="172"/>
			<point x="190" y="266" type="curve" smooth="yes"/>
			<point x="190" y="360"/>
			<point x="243" y="412"/>
			<point x="317" y="412" type="curve" smooth="yes"/>
			<point x="391" y="412"/>
			<point x="442" y="360"/>
		</contour>
	</outline>
</glyph>
<glyph name="aogonek" format="2">
	<advance width="546"/>
	<unicode hex="0105"/>
	<outline>
		<contour>
			<point x="379" y="21" type="line"/>
			<point x="378" y="-2" type="line"/>
			<point x="336" y="-26" type="line" smooth="yes"/>
			<point x="293" y="-50"/>
			<point x="276" y="-71"/>
			<point x="276" y="-107" type="curve" smooth="yes"/>
			<point x="276" y="-153"/>
			<point x="311" y="-178"/>
			<point x="374" y="-178" type="curve" smooth="yes"/>
			<point x="509" y="-178" type="line"/>
			<point x="509" y="-73" type="line"/>
			<point x="435" y="-73" type="line" smooth="yes"/>
			<point x="425" y="-73"/>
			<point x="420" y="-68"/>
			<point x="420" y="-61" type="curve" smooth="yes"/>
			<point x="420" y="-56"/>
			<point x="421" y="-51"/>
			<point x="429" y="-47" type="curve" smooth="yes"/>
			<point x="509" y="0" type="line"/>
			<point x="484" y="34" type="line"/>
		</contour>
		<component base="a"/>
	</outline>
</glyph>
<glyph name="dcaron" format="2">
	<advance width="767"/>
	<unicode hex="010F"/>
	<outline>
		<contour>
			<point x="740" y="486" type="line"/>
			<point x="796" y="727" type="line"/>
			<point x="643" y="727" type="line"/>
			<point x="643" y="486" type="line"/>
		</contour>
		<component base="d"/>
	</outline>
</glyph>
<glyph name="dcroat" format="2">
	<advance width="628"/>
	<unicode hex="0111"/>
	<outline>
		<contour>
			<point x="267" y="583" type="line"/>
			<point x="628" y="583" type="line"/>
			<point x="628" y="697" type="line"/>
			<point x="267" y="697" type="line"/>
		</contour>
		<component base="d"/>
	</outline>
</glyph>
<glyph name="eogonek" format="2">
	<advance width="598"/>
	<unicode hex="0119"/>
	<outline>
		<contour>
			<point x="532" y="87" type="curve"/>
			<point x="462" y="120" type="line"/>
			<point x="398" y="60" type="line"/>
			<point x="432" y="4" type="line"/>
			<point x="420" y="-6"/>
			<point x="410" y="-16"/>
			<point x="376" y="-43" type="curve" smooth="yes"/>
			<point x="314" y="-94"/>
			<point x="341" y="-178"/>
			<point x="419" y="-178" type="curve" smooth="yes"/>
			<point x="556" y="-178" type="line"/>
			<point x="556" y="-73" type="line"/>
			<point x="488" y="-73" type="line" smooth="yes"/>
			<point x="474" y="-73"/>
			<point x="470" y="-65"/>
			<point x="475" y="-52" type="curve" smooth="yes"/>
			<point x="482" y="-33"/>
			<point x="514" y="42"/>
		</contour>
		<component base="e"/>
	</outline>
</glyph>
<glyph name="idotless" format="2">
	<advance width="232"/>
	<unicode hex="0131"/>
	<anchor x="191" y="-1" name="ogonek"/>
	<anchor x="116" y="0" name="bottom"/>
	<anchor x="116" y="536" name="top"/>
	<outline>
		<contour>
			<point x="191" y="0" type="line"/>
			<point x="191" y="536" type="line"/>
			<point x="41" y="536" type="line"/>
			<point x="41" y="0" type="line"/>
		</contour>
	</outline>
</glyph>
<glyph name="IJ" format="2">
	<advance width="549"/>
	<unicode hex="0132"/>
	<outline>
		<contour>
			<point x="186" y="727" type="line"/>
			<point x="186" y="275" type="line"/>
			<point x="39" y="275" type="line"/>
			<point x="39" y="727" type="line"/>
		</contour>
		<contour>
			<point x="513" y="727" type="line"/>
			<point x="513" y="242" type="line" smooth="yes"/>
			<point x="513" y="72"/>
			<point x="411" y="-15"/>
			<point x="259" y="-15" type="curve" smooth="yes"/>
			<point x="122" y="-15"/>
			<point x="37" y="55"/>
			<point x="16" y="188" type="curve"/>
			<point x="161" y="218" type="line"/>
			<point x="172" y="159"/>
			<point x="199" y="129"/>
			<point x="252" y="129" type="curve" smooth="yes"/>
			<point x="321" y="129"/>
			<point x="354" y="167"/>
			<point x="354" y="242" type="curve" smooth="yes"/>
			<point x="354" y="727" type="line"/>
		</contour>
	</outline>
</glyph>
<glyph name="Lcaron" format="2">
	<advance width="536"/>
	<unicode hex="013D"/>
	<outline>
		<contour>
			<point x="405" y="486" type="line"/>
			<point x="491" y="727" type="line"/>
			<point x="335" y="747" type="line"/>
			<point x="298" y="486" type="line"/>
		</contour>
		<component base="L"/>
	</outline>
</glyph>
<glyph name="lcaron" format="2">
	<advance width="368"/>
	<unicode hex="013E"/>
	<outline>
		<contour>
			<point x="340" y="486" type="line"/>
			<point x="397" y="727" type="line"/>
			<point x="244" y="727" type="line"/>
			<point x="244" y="486" type="line"/>
		</contour>
		<component base="l"/>
	</outline>
</glyph>
<glyph name="Lslash" format="2">
	<advance width="551"/>
	<unicode hex="0141"/>
	<note>
		just draw this
	</note>
	<outline>
		<contour>
			<point x="15" y="196" type="line"/>
			<point x="391" y="389" type="line"/>
			<point x="391" y="549" type="line"/>
			<point x="15" y="357" type="line"/>
		</contour>
		<component base="L" xOffset="15"/>
	</outline>
</glyph>
<glyph name="lslash" format="2">
	<advance width="255"/>
	<unicode hex="0142"/>
	<guideline x="355" y="584" angle="27.1419"/>
	<note>
		just draw this
	</note>
	<outline>
		<contour>
			<point x="5" y="204" type="line"/>
			<point x="239" y="324" type="line"/>
			<point x="239" y="484" type="line"/>
			<point x="5" y="364" type="line"/>
		</contour>
		<component base="l" xOffset="5"/>
	</outline>
</glyph>
<glyph name="OE" format="2">
	<advance width="1133"/>
	<unicode hex="0152"/>
	<outline>
		<contour>
			<point x="405" y="143" type="curve" smooth="yes"/>
			<point x="275" y="143"/>
			<point x="197" y="228"/>
			<point x="197" y="363" type="curve" smooth="yes"/>
			<point x="197" y="497"/>
			<point x="275" y="584"/>
			<point x="405" y="584" type="curve" smooth="yes"/>
			<point x="533" y="584"/>
			<point x="616" y="497"/>
			<point x="616" y="363" type="curve" smooth="yes"/>
			<point x="616" y="228"/>
			<point x="533" y="143"/>
		</contour>
		<contour>
			<point x="377" y="-15" type="curve" smooth="yes"/>
			<point x="474" y="-15"/>
			<point x="559" y="20"/>
			<point x="611" y="79" type="curve"/>
			<point x="670" y="79" type="line"/>
			<point x="670" y="647" type="line"/>
			<point x="611" y="647" type="line"/>
			<point x="559" y="707"/>
			<point x="474" y="742"/>
			<point x="377" y="742" type="curve" smooth="yes"/>
			<point x="171" y="742"/>
			<point x="27" y="586"/>
			<point x="27" y="363" type="curve" smooth="yes"/>
			<point x="27" y="139"/>
			<point x="171" y="-15"/>
		</contour>
		<component base="E" xOffset="575"/>
	</outline>
</glyph>
<glyph name="oe" format="2">
	<advance width="970"/>
	<unicode hex="0153"/>
	<outline>
		<contour>
			<point x="304" y="127" type="curve" smooth="yes"/>
			<point x="223" y="127"/>
			<point x="177" y="184"/>
			<point x="177" y="272" type="curve" smooth="yes"/>
			<point x="177" y="359"/>
			<point x="223" y="418"/>
			<point x="304" y="418" type="curve" smooth="yes"/>
			<point x="384" y="418"/>
			<point x="430" y="359"/>
			<point x="430" y="272" type="curve" smooth="yes"/>
			<point x="430" y="184"/>
			<point x="384" y="127"/>
		</contour>
		<contour>
			<point x="692" y="113" type="curve" smooth="yes"/>
			<point x="607" y="113"/>
			<point x="565" y="169"/>
			<point x="565" y="255" type="curve"/>
			<point x="565" y="279" type="line"/>
			<point x="565" y="371"/>
			<point x="605" y="425"/>
			<point x="684" y="425" type="curve" smooth="yes"/>
			<point x="753" y="425"/>
			<point x="793" y="386"/>
			<point x="795" y="309" type="curve"/>
			<point x="822" y="320" type="line"/>
			<point x="508" y="320" type="line"/>
			<point x="508" y="225" type="line"/>
			<point x="940" y="225" type="line"/>
			<point x="963" y="424"/>
			<point x="856" y="549"/>
			<point x="696" y="549" type="curve" smooth="yes"/>
			<point x="610" y="549"/>
			<point x="546" y="524"/>
			<point x="501" y="465" type="curve"/>
			<point x="498" y="465" type="line"/>
			<point x="456" y="519"/>
			<point x="389" y="549"/>
			<point x="304" y="549" type="curve" smooth="yes"/>
			<point x="139" y="549"/>
			<point x="28" y="440"/>
			<point x="28" y="272" type="curve" smooth="yes"/>
			<point x="28" y="104"/>
			<point x="139" y="-13"/>
			<point x="304" y="-13" type="curve" smooth="yes"/>
			<point x="389" y="-13"/>
			<point x="455" y="18"/>
			<point x="495" y="72" type="curve"/>
			<point x="498" y="72" type="line"/>
			<point x="540" y="14"/>
			<point x="610" y="-13"/>
			<point x="697" y="-13" type="curve" smooth="yes"/>
			<point x="791" y="-13"/>
			<point x="873" y="32"/>
			<point x="921" y="106" type="curve"/>
			<point x="809" y="176" type="line"/>
			<point x="782" y="142"/>
			<point x="747" y="113"/>
		</contour>
	</outline>
</glyph>
<glyph name="tcaron" format="2">
	<advance width="386"/>
	<unicode hex="0165"/>
	<outline>
		<contour>
			<point x="398" y="590" type="line"/>
			<point x="454" y="773" type="line"/>
			<point x="301" y="798" type="line"/>
			<point x="301" y="590" type="line"/>
		</contour>
		<component base="t"/>
	</outline>
</glyph>
<glyph name="florin" format="2">
	<advance width="451"/>
	<unicode hex="0192"/>
	<outline>
		<contour>
			<point x="31" y="465" type="line"/>
			<point x="31" y="328" type="line"/>
			<point x="420" y="328" type="line"/>
			<point x="420" y="465" type="line"/>
		</contour>
		<contour>
			<point x="270" y="142" type="curve" smooth="yes"/>
			<point x="321" y="564" type="line" smooth="yes"/>
			<point x="324" y="585"/>
			<point x="335" y="595"/>
			<point x="353" y="595" type="curve" smooth="yes"/>
			<point x="438" y="595" type="line"/>
			<point x="438" y="727" type="line"/>
			<point x="344" y="727" type="line" smooth="yes"/>
			<point x="246" y="727"/>
			<point x="184" y="675"/>
			<point x="172" y="582" type="curve" smooth="yes"/>
			<point x="121" y="162" type="line" smooth="yes"/>
			<point x="119" y="141"/>
			<point x="108" y="131"/>
			<point x="90" y="131" type="curve" smooth="yes"/>
			<point x="6" y="131" type="line"/>
			<point x="6" y="0" type="line"/>
			<point x="98" y="0" type="line" smooth="yes"/>
			<point x="197" y="0"/>
			<point x="259" y="51"/>
		</contour>
	</outline>
</glyph>
<glyph name="Ohorn" format="2">
	<advance width="814"/>
	<unicode hex="01A0"/>
	<anchor x="406" y="727" name="top"/>
	<outline>
		<contour>
			<point x="406" y="-15" type="curve" smooth="yes"/>
			<point x="627" y="-15"/>
			<point x="788" y="139"/>
			<point x="788" y="363" type="curve" smooth="yes"/>
			<point x="788" y="489"/>
			<point x="737" y="593"/>
			<point x="653" y="660" type="curve"/>
			<point x="653" y="665" type="line"/>
			<point x="703" y="668"/>
			<point x="731" y="697"/>
			<point x="731" y="752" type="curve" smooth="yes"/>
			<point x="731" y="823" type="line"/>
			<point x="589" y="823" type="line"/>
			<point x="589" y="763" type="line" smooth="yes"/>
			<point x="589" y="739"/>
			<point x="576" y="728"/>
			<point x="555" y="728" type="curve"/>
			<point x="517" y="728"/>
			<point x="488" y="742"/>
			<point x="406" y="742" type="curve" smooth="yes"/>
			<point x="185" y="742"/>
			<point x="27" y="586"/>
			<point x="27" y="363" type="curve" smooth="yes"/>
			<point x="27" y="139"/>
			<point x="185" y="-15"/>
		</contour>
		<contour>
			<point x="406" y="136" type="curve" smooth="yes"/>
			<point x="275" y="136"/>
			<point x="193" y="224"/>
			<point x="193" y="363" type="curve" smooth="yes"/>
			<point x="193" y="502"/>
			<point x="275" y="591"/>
			<point x="406" y="591" type="curve" smooth="yes"/>
			<point x="537" y="591"/>
			<point x="622" y="502"/>
			<point x="622" y="363" type="curve" smooth="yes"/>
			<point x="622" y="224"/>
			<point x="537" y="136"/>
		</contour>
	</outline>
</glyph>
<glyph name="ohorn" format="2">
	<advance width="628"/>
	<unicode hex="01A1"/>
	<anchor x="572" y="0" name="ogonek"/>
	<anchor x="314" y="0" name="bottom"/>
	<anchor x="313" y="536" name="top"/>
	<outline>
		<contour>
			<point x="315" y="-17" type="curve" smooth="yes"/>
			<point x="485" y="-17"/>
			<point x="603" y="103"/>
			<point x="603" y="268" type="curve" smooth="yes"/>
			<point x="603" y="346"/>
			<point x="576" y="415"/>
			<point x="529" y="465" type="curve"/>
			<point x="529" y="469" type="line"/>
			<point x="587" y="472"/>
			<point x="620" y="501"/>
			<point x="620" y="561" type="curve" smooth="yes"/>
			<point x="620" y="630" type="line"/>
			<point x="484" y="630" type="line"/>
			<point x="484" y="571" type="line" smooth="yes"/>
			<point x="484" y="548"/>
			<point x="472" y="537"/>
			<point x="450" y="537" type="curve"/>
			<point x="416" y="537"/>
			<point x="390" y="553"/>
			<point x="315" y="553" type="curve" smooth="yes"/>
			<point x="144" y="553"/>
			<point x="26" y="432"/>
			<point x="26" y="268" type="curve" smooth="yes"/>
			<point x="26" y="103"/>
			<point x="144" y="-17"/>
		</contour>
		<contour>
			<point x="315" y="123" type="curve" smooth="yes"/>
			<point x="229" y="123"/>
			<point x="176" y="184"/>
			<point x="176" y="268" type="curve" smooth="yes"/>
			<point x="176" y="352"/>
			<point x="229" y="414"/>
			<point x="315" y="414" type="curve" smooth="yes"/>
			<point x="401" y="414"/>
			<point x="453" y="352"/>
			<point x="453" y="268" type="curve" smooth="yes"/>
			<point x="453" y="184"/>
			<point x="401" y="123"/>
		</contour>
	</outline>
</glyph>
<glyph name="Uhorn" format="2">
	<advance width="647"/>
	<unicode hex="01AF"/>
	<anchor x="323" y="727" name="top"/>
	<outline>
		<contour>
			<point x="531" y="823" type="line"/>
			<point x="531" y="756" type="line" smooth="yes"/>
			<point x="531" y="735"/>
			<point x="522" y="727"/>
			<point x="501" y="727" type="curve"/>
			<point x="454" y="727" type="line"/>
			<point x="497" y="672" type="line"/>
			<point x="596" y="672" type="line" smooth="yes"/>
			<point x="643" y="672"/>
			<point x="671" y="704"/>
			<point x="671" y="748" type="curve" smooth="yes"/>
			<point x="671" y="823" type="line"/>
		</contour>
		<component base="U"/>
	</outline>
</glyph>
<glyph name="uhorn" format="2">
	<advance width="585"/>
	<unicode hex="01B0"/>
	<anchor x="285" y="536" name="top"/>
	<outline>
		<contour>
			<point x="454" y="630" type="line"/>
			<point x="454" y="565" type="line" smooth="yes"/>
			<point x="454" y="546"/>
			<point x="444" y="536"/>
			<point x="428" y="536" type="curve" smooth="yes"/>
			<point x="385" y="536" type="line"/>
			<point x="438" y="489" type="line"/>
			<point x="506" y="489" type="line"/>
			<point x="555" y="489"/>
			<point x="586" y="515"/>
			<point x="586" y="561" type="curve" smooth="yes"/>
			<point x="586" y="630" type="line"/>
		</contour>
		<component base="u"/>
	</outline>
</glyph>
<glyph name="jdotless" format="2">
	<advance width="236"/>
	<unicode hex="0237"/>
	<anchor x="118" y="536" name="top"/>
	<outline>
		<contour>
			<point x="43" y="536" type="line"/>
			<point x="43" y="-13" type="line" smooth="yes"/>
			<point x="43" y="-39"/>
			<point x="30" y="-51"/>
			<point x="5" y="-51" type="curve" smooth="yes"/>
			<point x="-8" y="-51"/>
			<point x="-23" y="-49"/>
			<point x="-36" y="-46" type="curve"/>
			<point x="-36" y="-177" type="line"/>
			<point x="-15" y="-181"/>
			<point x="7" y="-184"/>
			<point x="28" y="-184" type="curve" smooth="yes"/>
			<point x="129" y="-184"/>
			<point x="193" y="-123"/>
			<point x="193" y="-21" type="curve" smooth="yes"/>
			<point x="193" y="536" type="line"/>
		</contour>
	</outline>
</glyph>
<glyph name="gravecomb" format="2">
	<advance width="0"/>
	<unicode hex="0300"/>
	<anchor x="0" y="536" name="_top"/>
	<outline>
		<contour>
			<point x="-72" y="599" type="line"/>
			<point x="65" y="599" type="line"/>
			<point x="2" y="773" type="line"/>
			<point x="-139" y="727" type="line"/>
		</contour>
	</outline>
</glyph>
<glyph name="acutecomb" format="2">
	<advance width="0"/>
	<unicode hex="0301"/>
	<anchor x="0" y="536" name="_top"/>
	<outline>
		<contour>
			<point x="72" y="599" type="line"/>
			<point x="139" y="727" type="line"/>
			<point x="-2" y="773" type="line"/>
			<point x="-65" y="599" type="line"/>
		</contour>
	</outline>
</glyph>
<glyph name="circumflexcomb" format="2">
	<advance width="0"/>
	<unicode hex="0302"/>
	<anchor x="166" y="598" name="side"/>
	<anchor x="0" y="703" name="top"/>
	<anchor x="0" y="536" name="_top"/>
	<outline>
		<contour>
			<point x="-46" y="599" type="line"/>
			<point x="-2" y="639" type="line"/>
			<point x="2" y="639" type="line"/>
			<point x="46" y="599" type="line"/>
			<point x="189" y="599" type="line"/>
			<point x="52" y="738" type="line"/>
			<point x="-52" y="738" type="line"/>
			<point x="-189" y="599" type="line"/>
		</contour>
	</outline>
</glyph>
<glyph name="tildecomb" format="2">
	<advance width="0"/>
	<unicode hex="0303"/>
	<anchor x="0" y="536" name="_top"/>
	<outline>
		<contour>
			<point x="-115" y="598" type="line"/>
			<point x="-108" y="638"/>
			<point x="-94" y="650"/>
			<point x="-72" y="650" type="curve" smooth="yes"/>
			<point x="-60" y="650"/>
			<point x="-51" y="646"/>
			<point x="-40" y="640" type="curve" smooth="yes"/>
			<point x="15" y="610" type="line" smooth="yes"/>
			<point x="32" y="600"/>
			<point x="55" y="594"/>
			<point x="78" y="594" type="curve" smooth="yes"/>
			<point x="137" y="594"/>
			<point x="200" y="632"/>
			<point x="215" y="735" type="curve"/>
			<point x="115" y="771" type="line"/>
			<point x="108" y="731"/>
			<point x="94" y="719"/>
			<point x="72" y="719" type="curve" smooth="yes"/>
			<point x="60" y="719"/>
			<point x="51" y="723"/>
			<point x="40" y="729" type="curve" smooth="yes"/>
			<point x="-15" y="759" type="line" smooth="yes"/>
			<point x="-32" y="769"/>
			<point x="-55" y="775"/>
			<point x="-78" y="775" type="curve" smooth="yes"/>
			<point x="-137" y="775"/>
			<point x="-200" y="737"/>
			<point x="-215" y="634" type="curve"/>
		</contour>
	</outline>
</glyph>
<glyph name="macroncomb" format="2">
	<advance width="0"/>
	<unicode hex="0304"/>
	<anchor x="0" y="536" name="_top"/>
	<outline>
		<contour>
			<point x="-159" y="598" type="line"/>
			<point x="159" y="598" type="line"/>
			<point x="159" y="727" type="line"/>
			<point x="-159" y="727" type="line"/>
		</contour>
	</outline>
</glyph>
<glyph name="brevecomb" format="2">
	<advance width="0"/>
	<unicode hex="0306"/>
	<anchor x="0" y="704" name="top"/>
	<anchor x="0" y="536" name="_top"/>
	<outline>
		<contour>
			<point x="0" y="590" type="curve" smooth="yes"/>
			<point x="91" y="590"/>
			<point x="151" y="640"/>
			<point x="161" y="727" type="curve"/>
			<point x="65" y="746" type="line"/>
			<point x="55" y="707"/>
			<point x="33" y="690"/>
			<point x="0" y="690" type="curve" smooth="yes"/>
			<point x="-33" y="690"/>
			<point x="-55" y="707"/>
			<point x="-64" y="746" type="curve"/>
			<point x="-161" y="727" type="line"/>
			<point x="-151" y="640"/>
			<point x="-91" y="590"/>
		</contour>
	</outline>
</glyph>
<glyph name="dieresiscomb" format="2">
	<advance width="0"/>
	<unicode hex="0308"/>
	<anchor x="0" y="536" name="_top"/>
	<outline>
		<contour>
			<point x="-172" y="598" type="line"/>
			<point x="-172" y="727" type="line"/>
			<point x="-30" y="727" type="line"/>
			<point x="-30" y="598" type="line"/>
		</contour>
		<contour>
			<point x="30" y="598" type="line"/>
			<point x="30" y="727" type="line"/>
			<point x="172" y="727" type="line"/>
			<point x="172" y="598" type="line"/>
		</contour>
	</outline>
</glyph>
<glyph name="hookcomb" format="2">
	<advance width="0"/>
	<unicode hex="0309"/>
	<guideline x="-38" y="1288" angle="220.5526"/>
	<anchor x="0" y="536" name="_top"/>
	<outline>
		<contour>
			<point x="62" y="599" type="line"/>
			<point x="85" y="619" type="line" smooth="yes"/>
			<point x="116" y="645"/>
			<point x="129" y="673"/>
			<point x="129" y="706" type="curve" smooth="yes"/>
			<point x="129" y="764"/>
			<point x="87" y="802"/>
			<point x="13" y="802" type="curve" smooth="yes"/>
			<point x="-103" y="802" type="line"/>
			<point x="-103" y="693" type="line"/>
			<point x="-18" y="693" type="line" smooth="yes"/>
			<point x="-4" y="693"/>
			<point x="2" y="687"/>
			<point x="2" y="676" type="curve" smooth="yes"/>
			<point x="2" y="669"/>
			<point x="-2" y="664"/>
			<point x="-12" y="655" type="curve" smooth="yes"/>
			<point x="-74" y="602" type="line"/>
			<point x="-74" y="599" type="line"/>
		</contour>
	</outline>
</glyph>
<glyph name="ringcomb" format="2">
	<advance width="0"/>
	<unicode hex="030A"/>
	<anchor x="0" y="665" name="_ring"/>
	<anchor x="0" y="536" name="_top"/>
	<outline>
		<contour>
			<point x="0" y="578" type="curve" smooth="yes"/>
			<point x="88" y="578"/>
			<point x="148" y="639"/>
			<point x="148" y="724" type="curve" smooth="yes"/>
			<point x="148" y="808"/>
			<point x="88" y="869"/>
			<point x="0" y="869" type="curve" smooth="yes"/>
			<point x="-88" y="869"/>
			<point x="-148" y="808"/>
			<point x="-148" y="724" type="curve" smooth="yes"/>
			<point x="-148" y="639"/>
			<point x="-88" y="578"/>
		</contour>
		<contour>
			<point x="0" y="666" type="curve" smooth="yes"/>
			<point x="-35" y="666"/>
			<point x="-56" y="691"/>
			<point x="-56" y="724" type="curve" smooth="yes"/>
			<point x="-56" y="756"/>
			<point x="-35" y="781"/>
			<point x="0" y="781" type="curve" smooth="yes"/>
			<point x="35" y="781"/>
			<point x="56" y="756"/>
			<point x="56" y="724" type="curve" smooth="yes"/>
			<point x="56" y="691"/>
			<point x="35" y="666"/>
		</contour>
	</outline>
</glyph>
<glyph name="hungarumlautcmb" format="2">
	<advance width="0"/>
	<unicode hex="030B"/>
	<anchor x="0" y="536" name="_top"/>
	<outline>
		<contour>
			<point x="168" y="599" type="line"/>
			<point x="244" y="727" type="line"/>
			<point x="104" y="773" type="line"/>
			<point x="31" y="599" type="line"/>
		</contour>
		<contour>
			<point x="-33" y="599" type="line"/>
			<point x="19" y="727" type="line"/>
			<point x="-122" y="773" type="line"/>
			<point x="-169" y="599" type="line"/>
		</contour>
	</outline>
</glyph>
<glyph name="horncmb" format="2">
	<advance width="0"/>
	<unicode hex="031B"/>
	<anchor x="0" y="536" name="_horn"/>
	<outline>
		<contour>
			<point x="108" y="630" type="line"/>
			<point x="240" y="630" type="line"/>
			<point x="240" y="566" type="line" smooth="yes"/>
			<point x="240" y="492"/>
			<point x="199" y="435"/>
			<point x="95" y="435" type="curve"/>
			<point x="0" y="435" type="line"/>
			<point x="0" y="536" type="line"/>
			<point x="82" y="536" type="line"/>
			<point x="98" y="536"/>
			<point x="108" y="546"/>
			<point x="108" y="566" type="curve" smooth="yes"/>
		</contour>
	</outline>
</glyph>
<glyph name="cedillacomb" format="2">
	<advance width="0"/>
	<unicode hex="0327"/>
	<anchor x="0" y="0" name="_bottom"/>
	<outline>
		<contour>
			<point x="51" y="18" type="line"/>
			<point x="-52" y="18" type="line"/>
			<point x="-52" y="-88" type="line"/>
			<point x="2" y="-88" type="line" smooth="yes"/>
			<point x="20" y="-88"/>
			<point x="28" y="-97"/>
			<point x="28" y="-112" type="curve" smooth="yes"/>
			<point x="28" y="-127"/>
			<point x="20" y="-137"/>
			<point x="1" y="-137" type="curve" smooth="yes"/>
			<point x="-125" y="-137" type="line"/>
			<point x="-125" y="-218" type="line"/>
			<point x="59" y="-218" type="line"/>
			<point x="131" y="-218"/>
			<point x="162" y="-175"/>
			<point x="162" y="-125" type="curve" smooth="yes"/>
			<point x="162" y="-74"/>
			<point x="131" y="-38"/>
			<point x="60" y="-38" type="curve"/>
			<point x="51" y="-38" type="line"/>
		</contour>
	</outline>
</glyph>
<glyph name="ogonekcmb" format="2">
	<advance width="0"/>
	<unicode hex="0328"/>
	<anchor x="97" y="0" name="_ogonek"/>
	<outline>
		<contour>
			<point x="-20" y="0" type="line"/>
			<point x="-20" y="-4" type="line"/>
			<point x="-65" y="-26" type="line" smooth="yes"/>
			<point x="-108" y="-45"/>
			<point x="-126" y="-66"/>
			<point x="-126" y="-105" type="curve" smooth="yes"/>
			<point x="-126" y="-152"/>
			<point x="-91" y="-178"/>
			<point x="-28" y="-178" type="curve" smooth="yes"/>
			<point x="98" y="-178" type="line"/>
			<point x="98" y="-73" type="line"/>
			<point x="24" y="-73" type="line" smooth="yes"/>
			<point x="14" y="-73"/>
			<point x="9" y="-68"/>
			<point x="9" y="-61" type="curve" smooth="yes"/>
			<point x="9" y="-55"/>
			<point x="10" y="-51"/>
			<point x="17" y="-47" type="curve" smooth="yes"/>
			<point x="98" y="0" type="line"/>
			<point x="72" y="34" type="line"/>
		</contour>
	</outline>
</glyph>
<glyph name="Delta" format="2">
	<advance width="620"/>
	<unicode hex="0394"/>
	<guideline x="1285" y="203" angle="0"/>
	<outline>
		<contour>
			<point x="306" y="476" type="line"/>
			<point x="312" y="476" type="line"/>
			<point x="436" y="142" type="line"/>
			<point x="436" y="137" type="line"/>
			<point x="181" y="137" type="line"/>
			<point x="181" y="142" type="line"/>
		</contour>
		<contour>
			<point x="257" y="727" type="line"/>
			<point x="13" y="100" type="line"/>
			<point x="13" y="0" type="line"/>
			<point x="608" y="0" type="line"/>
			<point x="608" y="100" type="line"/>
			<point x="364" y="727" type="line"/>
		</contour>
	</outline>
</glyph>
<glyph name="Omega" format="2">
	<advance width="804"/>
	<unicode hex="03A9"/>
	<outline>
		<contour>
			<point x="402" y="742" type="curve"/>
			<point x="609" y="742"/>
			<point x="759" y="614"/>
			<point x="759" y="400" type="curve"/>
			<point x="758" y="212"/>
			<point x="613" y="138"/>
			<point x="612" y="138" type="curve"/>
			<point x="612" y="133" type="line"/>
			<point x="768" y="133" type="line"/>
			<point x="768" y="0" type="line"/>
			<point x="455" y="0" type="line"/>
			<point x="455" y="188" type="line"/>
			<point x="461" y="190"/>
			<point x="600" y="236"/>
			<point x="600" y="388" type="curve"/>
			<point x="601" y="521"/>
			<point x="520" y="596"/>
			<point x="402" y="596" type="curve"/>
			<point x="285" y="596"/>
			<point x="205" y="521"/>
			<point x="205" y="388" type="curve"/>
			<point x="205" y="236"/>
			<point x="344" y="190"/>
			<point x="350" y="188" type="curve"/>
			<point x="350" y="0" type="line"/>
			<point x="36" y="0" type="line"/>
			<point x="36" y="133" type="line"/>
			<point x="193" y="133" type="line"/>
			<point x="193" y="138" type="line"/>
			<point x="193" y="138"/>
			<point x="46" y="212"/>
			<point x="46" y="400" type="curve"/>
			<point x="46" y="614"/>
			<point x="196" y="742"/>
		</contour>
	</outline>
</glyph>
<glyph name="mu" format="2">
	<advance width="590"/>
	<unicode hex="03BC"/>
	<outline>
		<contour>
			<point x="580" y="0" type="line"/>
			<point x="580" y="136" type="line"/>
			<point x="556" y="136" type="line" smooth="yes"/>
			<point x="542" y="136"/>
			<point x="537" y="142"/>
			<point x="537" y="155" type="curve"/>
			<point x="537" y="536" type="line"/>
			<point x="387" y="536" type="line"/>
			<point x="387" y="226" type="line" smooth="yes"/>
			<point x="387" y="148"/>
			<point x="349" y="114"/>
			<point x="289" y="114" type="curve"/>
			<point x="233" y="114"/>
			<point x="192" y="148"/>
			<point x="192" y="225" type="curve" smooth="yes"/>
			<point x="192" y="536" type="line"/>
			<point x="41" y="536" type="line"/>
			<point x="41" y="-178" type="line"/>
			<point x="188" y="-178" type="line"/>
			<point x="188" y="37" type="line"/>
			<point x="190" y="37" type="line"/>
			<point x="203" y="10"/>
			<point x="230" y="-13"/>
			<point x="287" y="-13" type="curve"/>
			<point x="357" y="-13"/>
			<point x="392" y="39"/>
			<point x="396" y="70" type="curve"/>
			<point x="400" y="70" type="line"/>
			<point x="401" y="38"/>
			<point x="439" y="0"/>
			<point x="508" y="0" type="curve" smooth="yes"/>
		</contour>
	</outline>
</glyph>
<glyph name="pi" format="2">
	<advance width="625"/>
	<unicode hex="03C0"/>
	<outline>
		<contour>
			<point x="19" y="536" type="line"/>
			<point x="19" y="403" type="line"/>
			<point x="81" y="403" type="line"/>
			<point x="81" y="0" type="line"/>
			<point x="230" y="0" type="line"/>
			<point x="230" y="403" type="line"/>
			<point x="388" y="403" type="line"/>
			<point x="388" y="148" type="line" smooth="yes"/>
			<point x="388" y="39"/>
			<point x="440" y="0"/>
			<point x="523" y="0" type="curve" smooth="yes"/>
			<point x="590" y="0" type="line"/>
			<point x="590" y="131" type="line"/>
			<point x="562" y="131" type="line" smooth="yes"/>
			<point x="540" y="131"/>
			<point x="534" y="134"/>
			<point x="534" y="157" type="curve" smooth="yes"/>
			<point x="534" y="403" type="line"/>
			<point x="597" y="403" type="line"/>
			<point x="597" y="536" type="line"/>
		</contour>
	</outline>
</glyph>
<glyph name="Germandbls" format="2">
	<advance width="627"/>
	<unicode hex="1E9E"/>
	<outline>
		<contour>
			<point x="251" y="0" type="line"/>
			<point x="351" y="0" type="line" smooth="yes"/>
			<point x="514" y="0"/>
			<point x="605" y="88"/>
			<point x="605" y="231" type="curve" smooth="yes"/>
			<point x="605" y="349"/>
			<point x="529" y="446"/>
			<point x="382" y="446" type="curve" smooth="yes"/>
			<point x="325" y="446" type="line"/>
			<point x="420" y="430" type="line"/>
			<point x="420" y="449" type="line"/>
			<point x="577" y="637" type="line"/>
			<point x="577" y="727" type="line"/>
			<point x="231" y="727" type="line" smooth="yes"/>
			<point x="103" y="727"/>
			<point x="36" y="646"/>
			<point x="36" y="533" type="curve" smooth="yes"/>
			<point x="36" y="0" type="line"/>
			<point x="194" y="0" type="line"/>
			<point x="194" y="524" type="line" smooth="yes"/>
			<point x="194" y="571"/>
			<point x="215" y="589"/>
			<point x="260" y="589" type="curve" smooth="yes"/>
			<point x="389" y="589" type="line"/>
			<point x="389" y="586" type="line"/>
			<point x="251" y="426" type="line"/>
			<point x="251" y="340" type="line"/>
			<point x="336" y="340" type="line" smooth="yes"/>
			<point x="426" y="340"/>
			<point x="459" y="300"/>
			<point x="459" y="238" type="curve" smooth="yes"/>
			<point x="459" y="176"/>
			<point x="426" y="136"/>
			<point x="336" y="136" type="curve" smooth="yes"/>
			<point x="251" y="136" type="line"/>
		</contour>
	</outline>
</glyph>
<glyph name="endash" format="2">
	<advance width="620"/>
	<unicode hex="2013"/>
	<outline>
		<contour>
			<point x="52" y="231" type="line"/>
			<point x="569" y="231" type="line"/>
			<point x="569" y="371" type="line"/>
			<point x="52" y="371" type="line"/>
		</contour>
	</outline>
</glyph>
<glyph name="emdash" format="2">
	<advance width="1017"/>
	<unicode hex="2014"/>
	<outline>
		<contour>
			<point x="52" y="231" type="line"/>
			<point x="965" y="231" type="line"/>
			<point x="965" y="371" type="line"/>
			<point x="52" y="371" type="line"/>
		</contour>
	</outline>
</glyph>
<glyph name="quoteleft" format="2">
	<advance width="239"/>
	<unicode hex="2018"/>
	<outline>
		<contour>
			<point x="202" y="603" type="line"/>
			<point x="202" y="436" type="line"/>
			<point x="36" y="436" type="line"/>
			<point x="36" y="603" type="line"/>
			<point x="110" y="747" type="line"/>
			<point x="201" y="747" type="line"/>
			<point x="156" y="606" type="line"/>
			<point x="158" y="603" type="line"/>
		</contour>
	</outline>
</glyph>
<glyph name="dagger" format="2">
	<advance width="482"/>
	<unicode hex="2020"/>
	<outline>
		<contour>
			<point x="315" y="727" type="line"/>
			<point x="167" y="727" type="line"/>
			<point x="167" y="-62" type="line" smooth="yes"/>
			<point x="167" y="-143"/>
			<point x="207" y="-178"/>
			<point x="280" y="-178" type="curve" smooth="yes"/>
			<point x="315" y="-178" type="line"/>
		</contour>
		<contour>
			<point x="16" y="417" type="line"/>
			<point x="467" y="417" type="line"/>
			<point x="467" y="536" type="line"/>
			<point x="16" y="536" type="line"/>
		</contour>
	</outline>
</glyph>
<glyph name="daggerdbl" format="2">
	<advance width="483"/>
	<unicode hex="2021"/>
	<outline>
		<contour>
			<point x="316" y="727" type="line"/>
			<point x="167" y="727" type="line"/>
			<point x="167" y="-178" type="line"/>
			<point x="316" y="-178" type="line"/>
		</contour>
		<contour>
			<point x="16" y="417" type="line"/>
			<point x="467" y="417" type="line"/>
			<point x="467" y="536" type="line"/>
			<point x="16" y="536" type="line"/>
		</contour>
		<contour>
			<point x="16" y="152" type="line"/>
			<point x="467" y="152" type="line"/>
			<point x="467" y="270" type="line"/>
			<point x="16" y="270" type="line"/>
		</contour>
	</outline>
</glyph>
<glyph name="bullet" format="2">
	<advance width="400"/>
	<unicode hex="2022"/>
	<outline>
		<contour>
			<point x="49" y="138" type="line"/>
			<point x="49" y="443" type="line"/>
			<point x="352" y="443" type="line"/>
			<point x="352" y="138" type="line"/>
		</contour>
	</outline>
</glyph>
<glyph name="guilsinglleft" format="2">
	<advance width="318"/>
	<unicode hex="2039"/>
	<guideline x="882.43" y="975.84" angle="319.8123"/>
	<guideline x="551.45" y="494.9" angle="220.1679"/>
	<outline>
		<contour>
			<point x="211" y="94" type="line"/>
			<point x="26" y="267" type="line"/>
			<point x="26" y="339" type="line"/>
			<point x="211" y="510" type="line"/>
			<point x="292" y="422" type="line"/>
			<point x="173" y="306" type="line"/>
			<point x="173" y="300" type="line"/>
			<point x="293" y="183" type="line"/>
		</contour>
	</outline>
</glyph>
<glyph name="fraction" format="2">
	<advance width="100"/>
	<unicode hex="2044"/>
	<guideline y="727" name="capCenter"/>
	<outline>
		<contour>
			<point x="344" y="727" type="line"/>
			<point x="-112" y="0" type="line"/>
			<point x="-244" y="0" type="line"/>
			<point x="212" y="727" type="line"/>
		</contour>
	</outline>
</glyph>
<glyph name="commercialminus" format="2">
	<advance width="620"/>
	<unicode hex="2052"/>
	<guideline y="727" name="capCenter"/>
	<outline>
		<contour>
			<point x="594" y="727" type="line"/>
			<point x="190" y="0" type="line"/>
			<point x="27" y="0" type="line"/>
			<point x="431" y="727" type="line"/>
		</contour>
		<component base="period" xOffset="-1" yOffset="561"/>
		<component base="period" xOffset="369"/>
	</outline>
</glyph>
<glyph name="Euro" format="2">
	<advance width="620"/>
	<unicode hex="20AC"/>
	<outline>
		<contour>
			<point x="597" y="185" type="curve"/>
			<point x="462" y="243" type="line"/>
			<point x="453" y="165"/>
			<point x="418" y="131"/>
			<point x="344" y="131" type="curve" smooth="yes"/>
			<point x="261" y="131"/>
			<point x="224" y="179"/>
			<point x="224" y="274" type="curve" smooth="yes"/>
			<point x="224" y="454" type="line" smooth="yes"/>
			<point x="224" y="549"/>
			<point x="259" y="597"/>
			<point x="342" y="597" type="curve" smooth="yes"/>
			<point x="404" y="597"/>
			<point x="436" y="567"/>
			<point x="451" y="508" type="curve"/>
			<point x="595" y="539" type="line"/>
			<point x="561" y="669"/>
			<point x="472" y="739"/>
			<point x="339" y="739" type="curve" smooth="yes"/>
			<point x="172" y="739"/>
			<point x="69" y="640"/>
			<point x="69" y="460" type="curve" smooth="yes"/>
			<point x="69" y="267" type="line" smooth="yes"/>
			<point x="69" y="88"/>
			<point x="174" y="-12"/>
			<point x="340" y="-12" type="curve" smooth="yes"/>
			<point x="480" y="-12"/>
			<point x="568" y="58"/>
		</contour>
		<contour>
			<point x="21" y="393" type="line"/>
			<point x="382" y="393" type="line"/>
			<point x="382" y="504" type="line"/>
			<point x="21" y="504" type="line"/>
		</contour>
		<contour>
			<point x="21" y="224" type="line"/>
			<point x="382" y="224" type="line"/>
			<point x="382" y="335" type="line"/>
			<point x="21" y="335" type="line"/>
		</contour>
	</outline>
</glyph>
<glyph name="trademark" format="2">
	<advance width="693"/>
	<unicode hex="2122"/>
	<outline>
		<contour>
			<point x="15" y="631" type="line"/>
			<point x="100" y="631" type="line"/>
			<point x="100" y="402" type="line"/>
			<point x="202" y="402" type="line"/>
			<point x="202" y="631" type="line"/>
			<point x="287" y="631" type="line"/>
			<point x="287" y="727" type="line"/>
			<point x="15" y="727" type="line"/>
		</contour>
		<contour>
			<point x="323" y="402" type="line"/>
			<point x="424" y="402" type="line"/>
			<point x="424" y="514" type="line"/>
			<point x="428" y="514" type="line"/>
			<point x="491" y="402" type="line"/>
			<point x="505" y="402" type="line"/>
			<point x="568" y="514" type="line"/>
			<point x="573" y="514" type="line"/>
			<point x="573" y="402" type="line"/>
			<point x="673" y="402" type="line"/>
			<point x="673" y="727" type="line"/>
			<point x="581" y="727" type="line"/>
			<point x="502" y="583" type="line"/>
			<point x="497" y="583" type="line"/>
			<point x="417" y="727" type="line"/>
			<point x="323" y="727" type="line"/>
		</contour>
	</outline>
</glyph>
<glyph name="arrowleft" format="2">
	<advance width="750"/>
	<unicode hex="2190"/>
	<outline>
		<contour>
			<point x="356" y="20" type="line"/>
			<point x="19" y="328" type="line"/>
			<point x="19" y="400" type="line"/>
			<point x="356" y="707" type="line"/>
			<point x="445" y="612" type="line"/>
			<point x="248" y="437" type="line"/>
			<point x="248" y="431" type="line"/>
			<point x="746" y="431" type="line"/>
			<point x="746" y="297" type="line"/>
			<point x="247" y="297" type="line"/>
			<point x="247" y="291" type="line"/>
			<point x="445" y="116" type="line"/>
		</contour>
	</outline>
</glyph>
<glyph name="arrowup" format="2">
	<advance width="750"/>
	<unicode hex="2191"/>
	<outline>
		<contour>
			<point x="719" y="390" type="line"/>
			<point x="411" y="727" type="line"/>
			<point x="339" y="727" type="line"/>
			<point x="32" y="390" type="line"/>
			<point x="127" y="301" type="line"/>
			<point x="302" y="498" type="line"/>
			<point x="308" y="498" type="line"/>
			<point x="308" y="0" type="line"/>
			<point x="442" y="0" type="line"/>
			<point x="442" y="499" type="line"/>
			<point x="448" y="499" type="line"/>
			<point x="623" y="301" type="line"/>
		</contour>
	</outline>
</glyph>
<glyph name="arrowright" format="2">
	<advance width="750"/>
	<unicode hex="2192"/>
	<outline>
		<contour>
			<point x="402" y="20" type="line"/>
			<point x="739" y="328" type="line"/>
			<point x="739" y="400" type="line"/>
			<point x="402" y="707" type="line"/>
			<point x="313" y="612" type="line"/>
			<point x="510" y="437" type="line"/>
			<point x="510" y="431" type="line"/>
			<point x="12" y="431" type="line"/>
			<point x="12" y="297" type="line"/>
			<point x="510" y="297" type="line"/>
			<point x="510" y="291" type="line"/>
			<point x="313" y="116" type="line"/>
		</contour>
	</outline>
</glyph>
<glyph name="partialdiff" format="2">
	<advance width="620"/>
	<unicode hex="2202"/>
	<outline>
		<contour>
			<point x="464" y="226"/>
			<point x="393" y="116"/>
			<point x="273" y="116" type="curve" smooth="yes"/>
			<point x="207" y="116"/>
			<point x="161" y="164"/>
			<point x="161" y="233" type="curve" smooth="yes"/>
			<point x="161" y="316"/>
			<point x="217" y="372"/>
			<point x="301" y="372" type="curve" smooth="yes"/>
			<point x="380" y="372"/>
			<point x="432" y="329"/>
			<point x="461" y="239" type="curve"/>
			<point x="498" y="401" type="line"/>
			<point x="460" y="399" type="line"/>
			<point x="424" y="459"/>
			<point x="360" y="492"/>
			<point x="280" y="492" type="curve" smooth="yes"/>
			<point x="123" y="492"/>
			<point x="12" y="387"/>
			<point x="12" y="237" type="curve" smooth="yes"/>
			<point x="12" y="88"/>
			<point x="116" y="-12"/>
			<point x="269" y="-12" type="curve" smooth="yes"/>
			<point x="474" y="-12"/>
			<point x="604" y="154"/>
			<point x="604" y="416" type="curve" smooth="yes"/>
			<point x="604" y="623"/>
			<point x="510" y="727"/>
			<point x="323" y="727" type="curve" smooth="yes"/>
			<point x="222" y="727" type="line"/>
			<point x="222" y="603" type="line"/>
			<point x="309" y="603" type="line" smooth="yes"/>
			<point x="423" y="603"/>
			<point x="464" y="551"/>
			<point x="464" y="411" type="curve" smooth="yes"/>
		</contour>
	</outline>
</glyph>
<glyph name="product" format="2">
	<advance width="696"/>
	<unicode hex="220F"/>
	<outline>
		<contour>
			<point x="248" y="-95" type="line"/>
			<point x="248" y="589" type="line"/>
			<point x="448" y="589" type="line"/>
			<point x="448" y="-95" type="line"/>
			<point x="600" y="-95" type="line"/>
			<point x="600" y="589" type="line"/>
			<point x="677" y="589" type="line"/>
			<point x="677" y="727" type="line"/>
			<point x="19" y="727" type="line"/>
			<point x="19" y="589" type="line"/>
			<point x="96" y="589" type="line"/>
			<point x="96" y="-95" type="line"/>
		</contour>
	</outline>
</glyph>
<glyph name="summation" format="2">
	<advance width="620"/>
	<unicode hex="2211"/>
	<outline>
		<contour>
			<point x="571" y="-178" type="line"/>
			<point x="571" y="-16" type="line"/>
			<point x="280" y="-16" type="line"/>
			<point x="280" y="-13" type="line"/>
			<point x="461" y="224" type="line"/>
			<point x="461" y="326" type="line"/>
			<point x="280" y="563" type="line"/>
			<point x="280" y="566" type="line"/>
			<point x="555" y="566" type="line"/>
			<point x="555" y="727" type="line"/>
			<point x="51" y="727" type="line"/>
			<point x="51" y="598" type="line"/>
			<point x="295" y="279" type="line"/>
			<point x="295" y="276" type="line"/>
			<point x="51" y="-49" type="line"/>
			<point x="51" y="-178" type="line"/>
		</contour>
	</outline>
</glyph>
<glyph name="minus" format="2">
	<advance width="620"/>
	<unicode hex="2212"/>
	<outline>
		<contour>
			<point x="58" y="231" type="line"/>
			<point x="562" y="231" type="line"/>
			<point x="562" y="371" type="line"/>
			<point x="58" y="371" type="line"/>
		</contour>
	</outline>
</glyph>
<glyph name="radical" format="2">
	<advance width="600"/>
	<unicode hex="221A"/>
	<outline>
		<contour>
			<point x="10" y="440" type="line"/>
			<point x="162" y="440" type="line"/>
			<point x="246" y="141" type="line"/>
			<point x="249" y="141" type="line"/>
			<point x="473" y="920" type="line"/>
			<point x="724" y="920" type="line"/>
			<point x="724" y="789" type="line"/>
			<point x="594" y="789" type="line"/>
			<point x="327" y="-95" type="line"/>
			<point x="172" y="-95" type="line"/>
		</contour>
	</outline>
</glyph>
<glyph name="infinity" format="2">
	<advance width="901"/>
	<unicode hex="221E"/>
	<guideline x="523" y="604" angle="90"/>
	<guideline x="539" y="605" angle="0.2269"/>
	<guideline x="1278" y="604" angle="90"/>
	<guideline x="523" y="779" angle="0"/>
	<guideline x="711" y="431" angle="0"/>
	<outline>
		<contour>
			<point x="246" y="522" type="curve" smooth="yes"/>
			<point x="120" y="522"/>
			<point x="28" y="429"/>
			<point x="28" y="302" type="curve" smooth="yes"/>
			<point x="28" y="175"/>
			<point x="120" y="83"/>
			<point x="246" y="83" type="curve" smooth="yes"/>
			<point x="336" y="83"/>
			<point x="398" y="114"/>
			<point x="449" y="185" type="curve"/>
			<point x="452" y="185" type="line"/>
			<point x="504" y="112"/>
			<point x="563" y="83"/>
			<point x="655" y="83" type="curve" smooth="yes"/>
			<point x="781" y="83"/>
			<point x="873" y="175"/>
			<point x="873" y="302" type="curve" smooth="yes"/>
			<point x="873" y="429"/>
			<point x="781" y="522"/>
			<point x="655" y="522" type="curve" smooth="yes"/>
			<point x="568" y="522"/>
			<point x="505" y="489"/>
			<point x="452" y="415" type="curve"/>
			<point x="449" y="415" type="line"/>
			<point x="394" y="491"/>
			<point x="336" y="522"/>
		</contour>
		<contour>
			<point x="173" y="302" type="curve" smooth="yes"/>
			<point x="173" y="353"/>
			<point x="210" y="390"/>
			<point x="262" y="390" type="curve" smooth="yes"/>
			<point x="308" y="390"/>
			<point x="351" y="356"/>
			<point x="376" y="303" type="curve"/>
			<point x="351" y="250"/>
			<point x="308" y="216"/>
			<point x="262" y="216" type="curve" smooth="yes"/>
			<point x="210" y="216"/>
			<point x="173" y="252"/>
		</contour>
		<contour>
			<point x="728" y="303" type="curve" smooth="yes"/>
			<point x="728" y="252"/>
			<point x="691" y="216"/>
			<point x="639" y="216" type="curve" smooth="yes"/>
			<point x="594" y="216"/>
			<point x="551" y="250"/>
			<point x="526" y="303" type="curve"/>
			<point x="550" y="356"/>
			<point x="593" y="389"/>
			<point x="639" y="389" type="curve" smooth="yes"/>
			<point x="691" y="389"/>
			<point x="728" y="353"/>
		</contour>
	</outline>
</glyph>
<glyph name="integral" format="2">
	<advance width="429"/>
	<unicode hex="222B"/>
	<outline>
		<contour>
			<point x="476" y="920" type="line"/>
			<point x="476" y="791" type="line"/>
			<point x="389" y="791" type="line" smooth="yes"/>
			<point x="371" y="791"/>
			<point x="360" y="781"/>
			<point x="358" y="760" type="curve" smooth="yes"/>
			<point x="262" y="-36" type="line" smooth="yes"/>
			<point x="251" y="-127"/>
			<point x="189" y="-178"/>
			<point x="90" y="-178" type="curve" smooth="yes"/>
			<point x="-3" y="-178" type="line"/>
			<point x="-3" y="-50" type="line"/>
			<point x="83" y="-50" type="line" smooth="yes"/>
			<point x="101" y="-50"/>
			<point x="112" y="-40"/>
			<point x="114" y="-19" type="curve" smooth="yes"/>
			<point x="211" y="774" type="line" smooth="yes"/>
			<point x="222" y="868"/>
			<point x="285" y="920"/>
			<point x="383" y="920" type="curve" smooth="yes"/>
		</contour>
	</outline>
</glyph>
<glyph name="approxequal" format="2">
	<advance width="620"/>
	<unicode hex="2248"/>
	<outline>
		<contour>
			<point x="43" y="432" type="line"/>
			<point x="79" y="490"/>
			<point x="138" y="528"/>
			<point x="206" y="528" type="curve" smooth="yes"/>
			<point x="319" y="528"/>
			<point x="345" y="449"/>
			<point x="422" y="449" type="curve" smooth="yes"/>
			<point x="460" y="449"/>
			<point x="494" y="475"/>
			<point x="516" y="518" type="curve"/>
			<point x="578" y="410" type="line"/>
			<point x="541" y="351"/>
			<point x="482" y="310"/>
			<point x="416" y="310" type="curve" smooth="yes"/>
			<point x="305" y="310"/>
			<point x="286" y="389"/>
			<point x="199" y="389" type="curve" smooth="yes"/>
			<point x="159" y="389"/>
			<point x="126" y="367"/>
			<point x="105" y="334" type="curve"/>
		</contour>
		<contour>
			<point x="43" y="192" type="line"/>
			<point x="79" y="250"/>
			<point x="138" y="288"/>
			<point x="206" y="288" type="curve" smooth="yes"/>
			<point x="319" y="288"/>
			<point x="345" y="209"/>
			<point x="422" y="209" type="curve" smooth="yes"/>
			<point x="460" y="209"/>
			<point x="494" y="235"/>
			<point x="516" y="268" type="curve"/>
			<point x="578" y="170" type="line"/>
			<point x="541" y="111"/>
			<point x="482" y="70"/>
			<point x="416" y="70" type="curve" smooth="yes"/>
			<point x="305" y="70"/>
			<point x="286" y="149"/>
			<point x="199" y="149" type="curve" smooth="yes"/>
			<point x="159" y="149"/>
			<point x="126" y="127"/>
			<point x="105" y="84" type="curve"/>
		</contour>
	</outline>
</glyph>
<glyph name="notequal" format="2">
	<advance width="620"/>
	<unicode hex="2260"/>
	<outline>
		<contour>
			<point x="334" y="573" type="line"/>
			<point x="138" y="28" type="line"/>
			<point x="286" y="28" type="line"/>
			<point x="482" y="573" type="line"/>
		</contour>
		<component base="equal"/>
	</outline>
</glyph>
<glyph name="lessequal" format="2">
	<advance width="620"/>
	<unicode hex="2264"/>
	<outline>
		<contour>
			<point x="569" y="580" type="line" smooth="yes"/>
			<point x="51" y="439" type="line"/>
			<point x="51" y="299" type="line"/>
			<point x="569" y="171" type="line"/>
			<point x="569" y="309" type="line"/>
			<point x="208" y="372" type="line"/>
			<point x="234" y="344" type="line"/>
			<point x="234" y="400" type="line"/>
			<point x="208" y="370" type="line"/>
			<point x="569" y="443" type="line"/>
		</contour>
		<contour>
			<point x="51" y="0" type="line"/>
			<point x="569" y="0" type="line"/>
			<point x="569" y="135" type="line"/>
			<point x="51" y="135" type="line"/>
		</contour>
	</outline>
</glyph>
<glyph name="rectangleverticalblack" format="2">
	<advance width="562"/>
	<unicode hex="25AE"/>
	<outline>
		<contour>
			<point x="0" y="-194" type="line"/>
			<point x="562" y="-194" type="line"/>
			<point x="562" y="727" type="line"/>
			<point x="0" y="727" type="line"/>
		</contour>
	</outline>
</glyph>
<glyph name="lozenge" format="2">
	<advance width="620"/>
	<unicode hex="25CA"/>
	<outline>
		<contour>
			<point x="254" y="727" type="line"/>
			<point x="30" y="282" type="line"/>
			<point x="30" y="267" type="line"/>
			<point x="254" y="-178" type="line"/>
			<point x="366" y="-178" type="line"/>
			<point x="591" y="267" type="line"/>
			<point x="591" y="282" type="line"/>
			<point x="366" y="727" type="line"/>
		</contour>
		<contour>
			<point x="306" y="540" type="line"/>
			<point x="312" y="540" type="line"/>
			<point x="439" y="277" type="line"/>
			<point x="439" y="272" type="line"/>
			<point x="312" y="9" type="line"/>
			<point x="306" y="9" type="line"/>
			<point x="179" y="272" type="line"/>
			<point x="179" y="277" type="line"/>
		</contour>
	</outline>
</glyph>
<glyph name="arrowrighttriangle" format="2">
	<advance width="1058"/>
	<unicode hex="279D"/>
	<guideline x="1236" y="592" angle="0"/>
	<guideline x="624" y="862" angle="0"/>
	<guideline x="1983" y="755" angle="270"/>
	<outline>
		<contour>
			<point x="20" y="431" type="line"/>
			<point x="20" y="296" type="line"/>
			<point x="604" y="296" type="line"/>
			<point x="604" y="431" type="line"/>
		</contour>
		<contour>
			<point x="1038" y="308" type="line"/>
			<point x="1038" y="420" type="line"/>
			<point x="460" y="563" type="line"/>
			<point x="432" y="498"/>
			<point x="415" y="475"/>
			<point x="371" y="428" type="curve"/>
			<point x="371" y="300" type="line"/>
			<point x="415" y="252"/>
			<point x="432" y="229"/>
			<point x="460" y="165" type="curve"/>
		</contour>
	</outline>
</glyph>
<glyph name="anglebracketleft" format="2">
	<advance width="298"/>
	<unicode hex="27E8"/>
	<guideline x="584" y="661" angle="90"/>
	<outline>
		<contour>
			<point x="269" y="819" type="line" smooth="yes"/>
			<point x="22" y="373" type="line"/>
			<point x="22" y="262" type="line"/>
			<point x="269" y="-158" type="line"/>
			<point x="269" y="125" type="line"/>
			<point x="151" y="320" type="line"/>
			<point x="151" y="326" type="line"/>
			<point x="269" y="535" type="line"/>
		</contour>
	</outline>
</glyph>
<glyph name="arrowrighttailfeather" format="2">
	<advance width="1053"/>
	<unicode hex="291A"/>
	<outline>
		<contour>
			<point x="414" y="431" type="line"/>
			<point x="414" y="296" type="line"/>
			<point x="1033" y="296" type="line"/>
			<point x="1033" y="431" type="line"/>
		</contour>
		<contour>
			<point x="666" y="298" type="line"/>
			<point x="666" y="430" type="line"/>
			<point x="556" y="556" type="line"/>
			<point x="40" y="556" type="line"/>
			<point x="10" y="503" type="line"/>
			<point x="47" y="470"/>
			<point x="70" y="420"/>
			<point x="70" y="364" type="curve" smooth="yes"/>
			<point x="70" y="308"/>
			<point x="47" y="258"/>
			<point x="10" y="223" type="curve"/>
			<point x="40" y="171" type="line"/>
			<point x="556" y="171" type="line"/>
		</contour>
	</outline>
</glyph>
<glyph name="B.RECT" format="2">
	<advance width="605"/>
	<outline>
		<contour>
			<point x="40" y="0" type="line"/>
			<point x="381" y="0" type="line" smooth="yes"/>
			<point x="500" y="0"/>
			<point x="572" y="62"/>
			<point x="572" y="165" type="curve" smooth="yes"/>
			<point x="572" y="281" type="line" smooth="yes"/>
			<point x="572" y="348"/>
			<point x="542" y="399"/>
			<point x="462" y="419" type="curve"/>
			<point x="479" y="397" type="line"/>
			<point x="479" y="432" type="line"/>
			<point x="463" y="409" type="line"/>
			<point x="522" y="436"/>
			<point x="554" y="483"/>
			<point x="554" y="549" type="curve"/>
			<point x="554" y="657"/>
			<point x="481" y="727"/>
			<point x="334" y="727" type="curve" smooth="yes"/>
			<point x="40" y="727" type="line"/>
		</contour>
		<contour>
			<point x="315" y="596" type="line" smooth="yes"/>
			<point x="376" y="596"/>
			<point x="399" y="572"/>
			<point x="399" y="531" type="curve" smooth="yes"/>
			<point x="399" y="486"/>
			<point x="375" y="461"/>
			<point x="318" y="461" type="curve" smooth="yes"/>
			<point x="197" y="461" type="line"/>
			<point x="197" y="596" type="line"/>
		</contour>
		<contour>
			<point x="350" y="336" type="line" smooth="yes"/>
			<point x="392" y="336"/>
			<point x="416" y="315"/>
			<point x="416" y="267" type="curve" smooth="yes"/>
			<point x="416" y="194" type="line" smooth="yes"/>
			<point x="416" y="150"/>
			<point x="392" y="134"/>
			<point x="351" y="134" type="curve" smooth="yes"/>
			<point x="197" y="134" type="line"/>
			<point x="197" y="336" type="line"/>
		</contour>
	</outline>
</glyph>
<glyph name="C.RECT" format="2">
	<advance width="609"/>
	<anchor x="322" y="727" name="top"/>
	<anchor x="323" y="-1" name="bottom"/>
	<outline>
		<contour>
			<point x="591" y="184" type="curve"/>
			<point x="451" y="245" type="line"/>
			<point x="441" y="171"/>
			<point x="400" y="133"/>
			<point x="322" y="133" type="curve" smooth="yes"/>
			<point x="233" y="133"/>
			<point x="193" y="181"/>
			<point x="193" y="274" type="curve" smooth="yes"/>
			<point x="193" y="454" type="line" smooth="yes"/>
			<point x="193" y="547"/>
			<point x="235" y="594"/>
			<point x="326" y="594" type="curve" smooth="yes"/>
			<point x="392" y="594"/>
			<point x="420" y="565"/>
			<point x="435" y="505" type="curve"/>
			<point x="588" y="538" type="line"/>
			<point x="555" y="669"/>
			<point x="464" y="739"/>
			<point x="322" y="739" type="curve" smooth="yes"/>
			<point x="147" y="739"/>
			<point x="34" y="639"/>
			<point x="34" y="459" type="curve" smooth="yes"/>
			<point x="34" y="268" type="line" smooth="yes"/>
			<point x="34" y="88"/>
			<point x="144" y="-12"/>
			<point x="318" y="-12" type="curve" smooth="yes"/>
			<point x="461" y="-12"/>
			<point x="563" y="54"/>
		</contour>
	</outline>
</glyph>
<glyph name="D.RECT" format="2">
	<advance width="647"/>
	<outline>
		<contour>
			<point x="314" y="145" type="curve" smooth="yes"/>
			<point x="198" y="145" type="line"/>
			<point x="198" y="582" type="line"/>
			<point x="317" y="582" type="line" smooth="yes"/>
			<point x="417" y="582"/>
			<point x="454" y="544"/>
			<point x="454" y="458" type="curve" smooth="yes"/>
			<point x="454" y="269" type="line" smooth="yes"/>
			<point x="454" y="182"/>
			<point x="415" y="145"/>
		</contour>
		<contour>
			<point x="320" y="0" type="line" smooth="yes"/>
			<point x="506" y="0"/>
			<point x="613" y="84"/>
			<point x="613" y="262" type="curve" smooth="yes"/>
			<point x="613" y="465" type="line" smooth="yes"/>
			<point x="613" y="643"/>
			<point x="509" y="727"/>
			<point x="322" y="727" type="curve" smooth="yes"/>
			<point x="40" y="727" type="line"/>
			<point x="40" y="0" type="line"/>
		</contour>
	</outline>
</glyph>
<glyph name="Dcroat.RECT" format="2">
	<advance width="677"/>
	<outline>
		<contour>
			<point x="12" y="302" type="line"/>
			<point x="82" y="302" type="line"/>
			<point x="208" y="310" type="line"/>
			<point x="355" y="310" type="line"/>
			<point x="355" y="433" type="line"/>
			<point x="208" y="433" type="line"/>
			<point x="82" y="441" type="line"/>
			<point x="12" y="441" type="line"/>
		</contour>
		<component base="D.RECT" xOffset="26"/>
	</outline>
</glyph>
<glyph name="E.RECT" format="2">
	<advance width="558"/>
	<anchor x="532" y="0" name="ogonek"/>
	<anchor x="299" y="0" name="bottom"/>
	<anchor x="299" y="727" name="top"/>
	<outline>
		<contour>
			<point x="532" y="0" type="line"/>
			<point x="532" y="146" type="line"/>
			<point x="199" y="146" type="line"/>
			<point x="199" y="325" type="line"/>
			<point x="390" y="325" type="line"/>
			<point x="390" y="464" type="line"/>
			<point x="199" y="464" type="line"/>
			<point x="199" y="582" type="line"/>
			<point x="528" y="582" type="line"/>
			<point x="528" y="727" type="line"/>
			<point x="40" y="727" type="line"/>
			<point x="40" y="0" type="line"/>
		</contour>
	</outline>
</glyph>
<glyph name="G.RECT" format="2">
	<advance width="650"/>
	<anchor x="329" y="727" name="top"/>
	<anchor x="329" y="0" name="bottom"/>
	<outline>
		<contour>
			<point x="327" y="395" type="line"/>
			<point x="327" y="262" type="line"/>
			<point x="481" y="262" type="line"/>
			<point x="459" y="299" type="line"/>
			<point x="459" y="277" type="line" smooth="yes"/>
			<point x="459" y="181"/>
			<point x="424" y="133"/>
			<point x="331" y="133" type="curve" smooth="yes"/>
			<point x="240" y="133"/>
			<point x="196" y="182"/>
			<point x="196" y="277" type="curve" smooth="yes"/>
			<point x="196" y="447" type="line" smooth="yes"/>
			<point x="196" y="543"/>
			<point x="239" y="591"/>
			<point x="331" y="591" type="curve" smooth="yes"/>
			<point x="395" y="591"/>
			<point x="428" y="559"/>
			<point x="446" y="504" type="curve"/>
			<point x="598" y="540" type="line"/>
			<point x="564" y="673"/>
			<point x="466" y="738"/>
			<point x="329" y="738" type="curve" smooth="yes"/>
			<point x="150" y="738"/>
			<point x="34" y="637"/>
			<point x="34" y="453" type="curve" smooth="yes"/>
			<point x="34" y="271" type="line" smooth="yes"/>
			<point x="34" y="87"/>
			<point x="149" y="-13"/>
			<point x="328" y="-13" type="curve" smooth="yes"/>
			<point x="504" y="-13"/>
			<point x="618" y="87"/>
			<point x="618" y="272" type="curve"/>
			<point x="618" y="395" type="line"/>
		</contour>
	</outline>
</glyph>
<glyph name="Germandbls.RECT" format="2">
	<advance width="626"/>
	<outline>
		<contour>
			<point x="251" y="0" type="line"/>
			<point x="404" y="0" type="line" smooth="yes"/>
			<point x="523" y="0"/>
			<point x="595" y="61"/>
			<point x="595" y="165" type="curve" smooth="yes"/>
			<point x="595" y="283" type="line" smooth="yes"/>
			<point x="595" y="390"/>
			<point x="517" y="443"/>
			<point x="437" y="443" type="curve" smooth="yes"/>
			<point x="344" y="443" type="line"/>
			<point x="419" y="429" type="line"/>
			<point x="419" y="448" type="line"/>
			<point x="577" y="637" type="line"/>
			<point x="577" y="727" type="line"/>
			<point x="231" y="727" type="line"/>
			<point x="102" y="727"/>
			<point x="36" y="646"/>
			<point x="36" y="533" type="curve"/>
			<point x="36" y="0" type="line"/>
			<point x="194" y="0" type="line"/>
			<point x="194" y="524" type="line"/>
			<point x="194" y="571"/>
			<point x="214" y="589"/>
			<point x="259" y="589" type="curve"/>
			<point x="382" y="589" type="line"/>
			<point x="382" y="585" type="line"/>
			<point x="250" y="424" type="line"/>
			<point x="250" y="336" type="line"/>
			<point x="372" y="336" type="line" smooth="yes"/>
			<point x="414" y="336"/>
			<point x="438" y="315"/>
			<point x="438" y="267" type="curve" smooth="yes"/>
			<point x="438" y="194" type="line" smooth="yes"/>
			<point x="438" y="150"/>
			<point x="415" y="134"/>
			<point x="374" y="134" type="curve" smooth="yes"/>
			<point x="251" y="134" type="line"/>
		</contour>
	</outline>
</glyph>
<glyph name="I.text" format="2">
	<advance width="493"/>
	<anchor x="245" y="727" name="top"/>
	<anchor x="245" y="0" name="bottom"/>
	<anchor x="463" y="0" name="ogonek"/>
	<outline>
		<contour>
			<point x="30" y="0" type="line"/>
			<point x="463" y="0" type="line"/>
			<point x="463" y="142" type="line"/>
			<point x="326" y="142" type="line"/>
			<point x="326" y="585" type="line"/>
			<point x="463" y="585" type="line"/>
			<point x="463" y="727" type="line"/>
			<point x="30" y="727" type="line"/>
			<point x="30" y="585" type="line"/>
			<point x="167" y="585" type="line"/>
			<point x="167" y="142" type="line"/>
			<point x="30" y="142" type="line"/>
		</contour>
	</outline>
</glyph>
<glyph name="J.001" format="2">
	<advance width="542"/>
	<outline>
		<contour>
			<point x="507" y="727" type="line"/>
			<point x="507" y="242" type="line" smooth="yes"/>
			<point x="507" y="72"/>
			<point x="406" y="-15"/>
			<point x="258" y="-15" type="curve" smooth="yes"/>
			<point x="127" y="-15"/>
			<point x="17" y="45"/>
			<point x="9" y="216" type="curve"/>
			<point x="164" y="216" type="line"/>
			<point x="168" y="152"/>
			<point x="198" y="128"/>
			<point x="256" y="128" type="curve" smooth="yes"/>
			<point x="318" y="128"/>
			<point x="347" y="166"/>
			<point x="347" y="242" type="curve" smooth="yes"/>
			<point x="347" y="727" type="line"/>
		</contour>
	</outline>
</glyph>
<glyph name="M.RECT" format="2">
	<advance width="782"/>
	<outline>
		<contour>
			<point x="40" y="0" type="line"/>
			<point x="40" y="727" type="line"/>
			<point x="163" y="727" type="line"/>
			<point x="410" y="256" type="line"/>
			<point x="350" y="292" type="line"/>
			<point x="434" y="292" type="line"/>
			<point x="376" y="256" type="line"/>
			<point x="622" y="727" type="line"/>
			<point x="742" y="727" type="line"/>
			<point x="742" y="0" type="line"/>
			<point x="592" y="0" type="line"/>
			<point x="592" y="548" type="line"/>
			<point x="701" y="354" type="line"/>
			<point x="553" y="354" type="line"/>
			<point x="666" y="500" type="line"/>
			<point x="393" y="0" type="line"/>
			<point x="390" y="0" type="line"/>
			<point x="117" y="500" type="line"/>
			<point x="229" y="354" type="line"/>
			<point x="82" y="354" type="line"/>
			<point x="190" y="548" type="line"/>
			<point x="190" y="0" type="line"/>
		</contour>
	</outline>
</glyph>
<glyph name="N.RECT" format="2">
	<advance width="666"/>
	<anchor x="329" y="727" name="top"/>
	<anchor x="329" y="0" name="bottom"/>
	<outline>
		<contour>
			<point x="40" y="0" type="line"/>
			<point x="40" y="727" type="line"/>
			<point x="154" y="727" type="line"/>
			<point x="471" y="299" type="line"/>
			<point x="451" y="310" type="line"/>
			<point x="489" y="310" type="line"/>
			<point x="469" y="299" type="line"/>
			<point x="469" y="727" type="line"/>
			<point x="626" y="727" type="line"/>
			<point x="626" y="0" type="line"/>
			<point x="512" y="0" type="line"/>
			<point x="196" y="427" type="line"/>
			<point x="216" y="416" type="line"/>
			<point x="178" y="416" type="line"/>
			<point x="198" y="427" type="line"/>
			<point x="198" y="0" type="line"/>
		</contour>
	</outline>
</glyph>
<glyph name="ND.ord" format="2">
	<advance width="688"/>
	<guideline x="42" y="1129" angle="90"/>
	<outline>
		<contour>
			<point x="25" y="402" type="line"/>
			<point x="125" y="402" type="line"/>
			<point x="125" y="543" type="line"/>
			<point x="129" y="543" type="line"/>
			<point x="238" y="402" type="line"/>
			<point x="312" y="402" type="line"/>
			<point x="312" y="727" type="line"/>
			<point x="213" y="727" type="line"/>
			<point x="213" y="586" type="line"/>
			<point x="209" y="586" type="line"/>
			<point x="100" y="727" type="line"/>
			<point x="25" y="727" type="line"/>
		</contour>
		<contour>
			<point x="510" y="402" type="curve" smooth="yes"/>
			<point x="375" y="402" type="line"/>
			<point x="375" y="727" type="line"/>
			<point x="508" y="727" type="line" smooth="yes"/>
			<point x="605" y="727"/>
			<point x="676" y="666"/>
			<point x="676" y="564" type="curve" smooth="yes"/>
			<point x="676" y="463"/>
			<point x="606" y="402"/>
		</contour>
		<contour>
			<point x="505" y="633" type="curve" smooth="yes"/>
			<point x="476" y="633" type="line"/>
			<point x="476" y="496" type="line"/>
			<point x="505" y="496" type="line" smooth="yes"/>
			<point x="547" y="496"/>
			<point x="573" y="521"/>
			<point x="573" y="565" type="curve" smooth="yes"/>
			<point x="573" y="608"/>
			<point x="547" y="633"/>
		</contour>
		<contour>
			<point x="25" y="250" type="line"/>
			<point x="671" y="250" type="line"/>
			<point x="671" y="347" type="line"/>
			<point x="25" y="347" type="line"/>
		</contour>
	</outline>
</glyph>
<glyph name="O.RECT" format="2">
	<advance width="648"/>
	<anchor x="324" y="727" name="top"/>
	<anchor x="325" y="0" name="bottom"/>
	<outline>
		<contour>
			<point x="325" y="738" type="curve" smooth="yes"/>
			<point x="501" y="738"/>
			<point x="615" y="639"/>
			<point x="615" y="458" type="curve" smooth="yes"/>
			<point x="615" y="268" type="line" smooth="yes"/>
			<point x="615" y="87"/>
			<point x="501" y="-13"/>
			<point x="324" y="-13" type="curve" smooth="yes"/>
			<point x="147" y="-13"/>
			<point x="34" y="87"/>
			<point x="34" y="268" type="curve" smooth="yes"/>
			<point x="34" y="458" type="line" smooth="yes"/>
			<point x="34" y="639"/>
			<point x="147" y="738"/>
		</contour>
		<contour>
			<point x="324" y="594" type="curve" smooth="yes"/>
			<point x="234" y="594"/>
			<point x="193" y="546"/>
			<point x="193" y="453" type="curve" smooth="yes"/>
			<point x="193" y="273" type="line" smooth="yes"/>
			<point x="193" y="180"/>
			<point x="235" y="132"/>
			<point x="324" y="132" type="curve" smooth="yes"/>
			<point x="414" y="132"/>
			<point x="455" y="180"/>
			<point x="455" y="273" type="curve" smooth="yes"/>
			<point x="455" y="453" type="line" smooth="yes"/>
			<point x="455" y="546"/>
			<point x="414" y="594"/>
		</contour>
	</outline>
</glyph>
<glyph name="OE.RECT" format="2">
	<advance width="985"/>
	<guideline x="655" y="547" angle="0"/>
	<anchor x="489" y="727" name="top"/>
	<outline>
		<contour>
			<point x="327" y="594" type="curve" smooth="yes"/>
			<point x="416" y="594"/>
			<point x="458" y="549"/>
			<point x="458" y="452" type="curve" smooth="yes"/>
			<point x="458" y="274" type="line" smooth="yes"/>
			<point x="458" y="180"/>
			<point x="415" y="132"/>
			<point x="325" y="132" type="curve" smooth="yes"/>
			<point x="234" y="132"/>
			<point x="197" y="180"/>
			<point x="197" y="274" type="curve" smooth="yes"/>
			<point x="197" y="452" type="line" smooth="yes"/>
			<point x="197" y="546"/>
			<point x="238" y="594"/>
		</contour>
		<contour>
			<point x="288" y="738" type="curve" smooth="yes"/>
			<point x="136" y="738"/>
			<point x="37" y="639"/>
			<point x="37" y="458" type="curve" smooth="yes"/>
			<point x="37" y="268" type="line" smooth="yes"/>
			<point x="37" y="87"/>
			<point x="133" y="-13"/>
			<point x="284" y="-13" type="curve" smooth="yes"/>
			<point x="356" y="-13"/>
			<point x="418" y="11"/>
			<point x="454" y="62" type="curve"/>
			<point x="489" y="62" type="line"/>
			<point x="489" y="665" type="line"/>
			<point x="454" y="665" type="line"/>
			<point x="419" y="716"/>
			<point x="358" y="738"/>
		</contour>
		<component base="E" xOffset="417"/>
	</outline>
</glyph>
<glyph name="Ohorn.RECT" format="2">
	<advance width="648"/>
	<anchor x="324" y="727" name="top"/>
	<anchor x="324" y="0" name="bottom"/>
	<outline>
		<contour>
			<point x="509" y="823" type="line"/>
			<point x="509" y="762" type="line" smooth="yes"/>
			<point x="509" y="738"/>
			<point x="496" y="727"/>
			<point x="475" y="727" type="curve"/>
			<point x="436" y="727"/>
			<point x="409" y="738"/>
			<point x="324" y="738" type="curve" smooth="yes"/>
			<point x="147" y="738"/>
			<point x="34" y="639"/>
			<point x="34" y="458" type="curve" smooth="yes"/>
			<point x="34" y="268" type="line" smooth="yes"/>
			<point x="34" y="87"/>
			<point x="147" y="-13"/>
			<point x="324" y="-13" type="curve" smooth="yes"/>
			<point x="501" y="-13"/>
			<point x="615" y="87"/>
			<point x="615" y="268" type="curve" smooth="yes"/>
			<point x="615" y="458" type="line" smooth="yes"/>
			<point x="615" y="540"/>
			<point x="591" y="606"/>
			<point x="549" y="652" type="curve"/>
			<point x="549" y="656" type="line"/>
			<point x="614" y="659"/>
			<point x="651" y="690"/>
			<point x="651" y="751" type="curve" smooth="yes"/>
			<point x="651" y="823" type="line"/>
		</contour>
		<contour>
			<point x="324" y="594" type="curve" smooth="yes"/>
			<point x="414" y="594"/>
			<point x="455" y="546"/>
			<point x="455" y="453" type="curve" smooth="yes"/>
			<point x="455" y="273" type="line" smooth="yes"/>
			<point x="455" y="180"/>
			<point x="414" y="132"/>
			<point x="324" y="132" type="curve" smooth="yes"/>
			<point x="235" y="132"/>
			<point x="193" y="180"/>
			<point x="193" y="273" type="curve" smooth="yes"/>
			<point x="193" y="453" type="line" smooth="yes"/>
			<point x="193" y="546"/>
			<point x="234" y="594"/>
		</contour>
	</outline>
</glyph>
<glyph name="Ohorn.flat" format="2">
	<advance width="847"/>
	<anchor x="421" y="727" name="top"/>
	<outline>
		<contour>
			<point x="639" y="846" type="line"/>
			<point x="763" y="846" type="line"/>
			<point x="763" y="725" type="line" smooth="yes"/>
			<point x="763" y="685"/>
			<point x="743" y="654"/>
			<point x="694" y="654" type="curve"/>
			<point x="450" y="654" type="line"/>
			<point x="421" y="664" type="line"/>
			<point x="421" y="742" type="line"/>
			<point x="479" y="742"/>
			<point x="634" y="742"/>
			<point x="636" y="742" type="curve" smooth="yes"/>
			<point x="638" y="742"/>
			<point x="639" y="743"/>
			<point x="639" y="745" type="curve" smooth="yes"/>
		</contour>
		<component base="O"/>
	</outline>
</glyph>
<glyph name="Oslash.RECT" format="2">
	<advance width="645"/>
	<anchor x="318" y="727" name="top"/>
	<outline>
		<contour>
			<point x="41" y="0" type="line"/>
			<point x="107" y="119" type="line"/>
			<point x="172" y="161" type="line"/>
			<point x="402" y="622" type="line"/>
			<point x="421" y="679" type="line"/>
			<point x="484" y="792" type="line"/>
			<point x="606" y="727" type="line"/>
			<point x="540" y="608" type="line"/>
			<point x="474" y="566" type="line"/>
			<point x="245" y="106" type="line"/>
			<point x="227" y="48" type="line"/>
			<point x="163" y="-66" type="line"/>
		</contour>
		<component base="O.RECT"/>
	</outline>
</glyph>
<glyph name="Oslash.RECT_open" format="2">
	<advance width="645"/>
	<anchor x="317" y="727" name="top"/>
	<outline>
		<contour>
			<point x="41" y="0" type="line"/>
			<point x="107" y="119" type="line"/>
			<point x="233" y="61" type="line"/>
			<point x="163" y="-66" type="line"/>
		</contour>
		<contour>
			<point x="414" y="665" type="line"/>
			<point x="484" y="792" type="line"/>
			<point x="606" y="727" type="line"/>
			<point x="540" y="607" type="line"/>
		</contour>
		<component base="O.RECT"/>
	</outline>
</glyph>
<glyph name="Oslash.open" format="2">
	<advance width="815"/>
	<anchor x="406" y="727" name="top"/>
	<outline>
		<contour>
			<point x="222" y="67" type="line"/>
			<point x="120" y="-42" type="line"/>
			<point x="19" y="54" type="line"/>
			<point x="124" y="165" type="line"/>
		</contour>
		<contour>
			<point x="693" y="563" type="line"/>
			<point x="595" y="662" type="line"/>
			<point x="695" y="768" type="line"/>
			<point x="795" y="672" type="line"/>
		</contour>
		<component base="O"/>
	</outline>
</glyph>
<glyph name="P.RECT" format="2">
	<advance width="604"/>
	<outline>
		<contour>
			<point x="40" y="0" type="line"/>
			<point x="199" y="0" type="line"/>
			<point x="199" y="592" type="line"/>
			<point x="342" y="592" type="line" smooth="yes"/>
			<point x="396" y="592"/>
			<point x="422" y="577"/>
			<point x="422" y="512" type="curve" smooth="yes"/>
			<point x="422" y="435" type="line" smooth="yes"/>
			<point x="422" y="369"/>
			<point x="395" y="352"/>
			<point x="342" y="352" type="curve" smooth="yes"/>
			<point x="179" y="352" type="line"/>
			<point x="179" y="221" type="line"/>
			<point x="364" y="221" type="line" smooth="yes"/>
			<point x="503" y="221"/>
			<point x="576" y="306"/>
			<point x="576" y="409" type="curve" smooth="yes"/>
			<point x="576" y="534" type="line" smooth="yes"/>
			<point x="576" y="651"/>
			<point x="500" y="727"/>
			<point x="364" y="727" type="curve" smooth="yes"/>
			<point x="40" y="727" type="line"/>
		</contour>
	</outline>
</glyph>
<glyph name="Q.RECT" format="2">
	<advance width="646"/>
	<outline>
		<contour>
			<point x="486" y="-70" type="line"/>
			<point x="418" y="26" type="line"/>
			<point x="382" y="98" type="line"/>
			<point x="315" y="189" type="line"/>
			<point x="407" y="257" type="line"/>
			<point x="480" y="158" type="line"/>
			<point x="545" y="98" type="line"/>
			<point x="606" y="12" type="line"/>
		</contour>
		<component base="O.RECT"/>
	</outline>
</glyph>
<glyph name="Q.RECT_open" format="2">
	<advance width="642"/>
	<outline>
		<contour>
			<point x="492" y="-80" type="line"/>
			<point x="414" y="26" type="line"/>
			<point x="546" y="102" type="line"/>
			<point x="615" y="7" type="line"/>
		</contour>
		<component base="O.RECT"/>
	</outline>
</glyph>
<glyph name="Q.open" format="2">
	<advance width="814"/>
	<outline>
		<contour>
			<point x="673" y="130" type="line"/>
			<point x="700" y="96" type="line" smooth="yes"/>
			<point x="712" y="82"/>
			<point x="720" y="81"/>
			<point x="738" y="81" type="curve" smooth="yes"/>
			<point x="784" y="81" type="line"/>
			<point x="784" y="-59" type="line"/>
			<point x="712" y="-59" type="line"/>
			<point x="651" y="-59"/>
			<point x="627" y="-51"/>
			<point x="578" y="10" type="curve" smooth="yes"/>
			<point x="556" y="38" type="line"/>
		</contour>
		<component base="O"/>
	</outline>
</glyph>
<glyph name="R.RECT" format="2">
	<advance width="607"/>
	<anchor x="305" y="727" name="top"/>
	<anchor x="305" y="0" name="bottom"/>
	<outline>
		<contour>
			<point x="442" y="321" type="line"/>
			<point x="285" y="294" type="line"/>
			<point x="418" y="0" type="line"/>
			<point x="596" y="0" type="line"/>
		</contour>
		<contour>
			<point x="363" y="220" type="line" smooth="yes"/>
			<point x="503" y="220"/>
			<point x="576" y="300"/>
			<point x="576" y="409" type="curve" smooth="yes"/>
			<point x="576" y="534" type="line" smooth="yes"/>
			<point x="576" y="651"/>
			<point x="502" y="727"/>
			<point x="364" y="727" type="curve" smooth="yes"/>
			<point x="40" y="727" type="line"/>
			<point x="40" y="0" type="line"/>
			<point x="199" y="0" type="line"/>
			<point x="199" y="220" type="line"/>
		</contour>
		<contour>
			<point x="341" y="352" type="curve" smooth="yes"/>
			<point x="199" y="352" type="line"/>
			<point x="199" y="592" type="line"/>
			<point x="340" y="592" type="line" smooth="yes"/>
			<point x="396" y="592"/>
			<point x="422" y="577"/>
			<point x="422" y="511" type="curve" smooth="yes"/>
			<point x="422" y="435" type="line" smooth="yes"/>
			<point x="422" y="369"/>
			<point x="395" y="352"/>
		</contour>
	</outline>
</glyph>
<glyph name="R.text" format="2">
	<advance width="635"/>
	<anchor x="296" y="727" name="top"/>
	<anchor x="296" y="0" name="bottom"/>
	<outline>
		<contour>
			<point x="460" y="321" type="line"/>
			<point x="303" y="294" type="line"/>
			<point x="445" y="0" type="line"/>
			<point x="623" y="0" type="line"/>
		</contour>
		<contour>
			<point x="40" y="727" type="line"/>
			<point x="40" y="0" type="line"/>
			<point x="199" y="0" type="line"/>
			<point x="199" y="591" type="line"/>
			<point x="329" y="591" type="line" smooth="yes"/>
			<point x="403" y="591"/>
			<point x="437" y="549"/>
			<point x="437" y="488" type="curve" smooth="yes"/>
			<point x="437" y="428"/>
			<point x="402" y="388"/>
			<point x="329" y="388" type="curve" smooth="yes"/>
			<point x="151" y="388" type="line"/>
			<point x="151" y="252" type="line"/>
			<point x="334" y="252" type="line" smooth="yes"/>
			<point x="498" y="252"/>
			<point x="594" y="344"/>
			<point x="594" y="490" type="curve" smooth="yes"/>
			<point x="594" y="637"/>
			<point x="498" y="727"/>
			<point x="333" y="727" type="curve" smooth="yes"/>
		</contour>
	</outline>
</glyph>
<glyph name="RD.ord" format="2">
	<advance width="658"/>
	<guideline x="42" y="1129" angle="90"/>
	<outline>
		<contour>
			<point x="480" y="402" type="curve" smooth="yes"/>
			<point x="345" y="402" type="line"/>
			<point x="345" y="727" type="line"/>
			<point x="478" y="727" type="line" smooth="yes"/>
			<point x="575" y="727"/>
			<point x="646" y="666"/>
			<point x="646" y="564" type="curve" smooth="yes"/>
			<point x="646" y="463"/>
			<point x="576" y="402"/>
		</contour>
		<contour>
			<point x="475" y="633" type="curve" smooth="yes"/>
			<point x="446" y="633" type="line"/>
			<point x="446" y="496" type="line"/>
			<point x="475" y="496" type="line" smooth="yes"/>
			<point x="517" y="496"/>
			<point x="543" y="521"/>
			<point x="543" y="565" type="curve" smooth="yes"/>
			<point x="543" y="608"/>
			<point x="517" y="633"/>
		</contour>
		<contour>
			<point x="240" y="548" type="line"/>
			<point x="143" y="533" type="line"/>
			<point x="198" y="402" type="line"/>
			<point x="307" y="402" type="line"/>
		</contour>
		<contour>
			<point x="25" y="727" type="line"/>
			<point x="25" y="402" type="line"/>
			<point x="127" y="402" type="line"/>
			<point x="127" y="644" type="line"/>
			<point x="166" y="644" type="line" smooth="yes"/>
			<point x="193" y="644"/>
			<point x="204" y="630"/>
			<point x="204" y="609" type="curve" smooth="yes"/>
			<point x="204" y="588"/>
			<point x="192" y="574"/>
			<point x="166" y="574" type="curve" smooth="yes"/>
			<point x="99" y="574" type="line"/>
			<point x="99" y="499" type="line"/>
			<point x="177" y="499" type="line" smooth="yes"/>
			<point x="255" y="499"/>
			<point x="301" y="543"/>
			<point x="301" y="613" type="curve" smooth="yes"/>
			<point x="301" y="686"/>
			<point x="254" y="727"/>
			<point x="176" y="727" type="curve" smooth="yes"/>
		</contour>
		<contour>
			<point x="25" y="250" type="line"/>
			<point x="641" y="250" type="line"/>
			<point x="641" y="347" type="line"/>
			<point x="25" y="347" type="line"/>
		</contour>
	</outline>
</glyph>
<glyph name="ST.ord" format="2">
	<advance width="600"/>
	<guideline x="475" y="1309" angle="38.1765"/>
	<guideline x="1160" y="1357" angle="90"/>
	<outline>
		<contour>
			<point x="25" y="632" type="curve" smooth="yes"/>
			<point x="25" y="581"/>
			<point x="59" y="546"/>
			<point x="111" y="533" type="curve" smooth="yes"/>
			<point x="155" y="521" type="line" smooth="yes"/>
			<point x="178" y="515"/>
			<point x="186" y="508"/>
			<point x="186" y="496" type="curve" smooth="yes"/>
			<point x="186" y="481"/>
			<point x="171" y="475"/>
			<point x="147" y="475" type="curve" smooth="yes"/>
			<point x="116" y="475"/>
			<point x="92" y="487"/>
			<point x="74" y="514" type="curve"/>
			<point x="4" y="459" type="line"/>
			<point x="35" y="418"/>
			<point x="79" y="395"/>
			<point x="147" y="395" type="curve" smooth="yes"/>
			<point x="233" y="395"/>
			<point x="289" y="437"/>
			<point x="289" y="503" type="curve" smooth="yes"/>
			<point x="289" y="552"/>
			<point x="264" y="582"/>
			<point x="202" y="599" type="curve" smooth="yes"/>
			<point x="156" y="612" type="line" smooth="yes"/>
			<point x="129" y="620"/>
			<point x="122" y="626"/>
			<point x="122" y="637" type="curve" smooth="yes"/>
			<point x="122" y="648"/>
			<point x="132" y="655"/>
			<point x="150" y="655" type="curve" smooth="yes"/>
			<point x="171" y="655"/>
			<point x="191" y="647"/>
			<point x="207" y="628" type="curve"/>
			<point x="272" y="680" type="line"/>
			<point x="242" y="718"/>
			<point x="200" y="735"/>
			<point x="149" y="735" type="curve" smooth="yes"/>
			<point x="74" y="735"/>
			<point x="25" y="694"/>
		</contour>
		<contour>
			<point x="309" y="631" type="line"/>
			<point x="393" y="631" type="line"/>
			<point x="393" y="402" type="line"/>
			<point x="495" y="402" type="line"/>
			<point x="495" y="631" type="line"/>
			<point x="580" y="631" type="line"/>
			<point x="580" y="727" type="line"/>
			<point x="309" y="727" type="line"/>
		</contour>
		<contour>
			<point x="580" y="250" type="line"/>
			<point x="580" y="347" type="line"/>
			<point x="21" y="347" type="line"/>
			<point x="21" y="250" type="line"/>
		</contour>
	</outline>
</glyph>
<glyph name="TH.ord" format="2">
	<advance width="634"/>
	<guideline x="1225" y="1129" angle="90"/>
	<guideline x="30" y="1357" angle="90"/>
	<outline>
		<contour>
			<point x="428" y="727" type="line"/>
			<point x="325" y="727" type="line"/>
			<point x="325" y="402" type="line"/>
			<point x="428" y="402" type="line"/>
			<point x="428" y="522" type="line"/>
			<point x="510" y="522" type="line"/>
			<point x="510" y="402" type="line"/>
			<point x="613" y="402" type="line"/>
			<point x="613" y="727" type="line"/>
			<point x="510" y="727" type="line"/>
			<point x="510" y="607" type="line"/>
			<point x="428" y="607" type="line"/>
		</contour>
		<contour>
			<point x="15" y="631" type="line"/>
			<point x="100" y="631" type="line"/>
			<point x="100" y="402" type="line"/>
			<point x="202" y="402" type="line"/>
			<point x="202" y="631" type="line"/>
			<point x="287" y="631" type="line"/>
			<point x="287" y="727" type="line"/>
			<point x="15" y="727" type="line"/>
		</contour>
		<contour>
			<point x="15" y="250" type="line"/>
			<point x="613" y="250" type="line"/>
			<point x="613" y="347" type="line"/>
			<point x="15" y="347" type="line"/>
		</contour>
	</outline>
</glyph>
<glyph name="U.RECT" format="2">
	<advance width="646"/>
	<anchor x="321" y="727" name="top"/>
	<anchor x="321" y="0" name="bottom"/>
	<anchor x="462" y="0" name="ogonek"/>
	<outline>
		<contour>
			<point x="608" y="727" type="line"/>
			<point x="448" y="727" type="line"/>
			<point x="448" y="228" type="line" smooth="yes"/>
			<point x="448" y="158"/>
			<point x="422" y="135"/>
			<point x="357" y="135" type="curve" smooth="yes"/>
			<point x="288" y="135" type="line" smooth="yes"/>
			<point x="222" y="135"/>
			<point x="198" y="156"/>
			<point x="198" y="228" type="curve" smooth="yes"/>
			<point x="198" y="727" type="line"/>
			<point x="38" y="727" type="line"/>
			<point x="38" y="200" type="line" smooth="yes"/>
			<point x="38" y="60"/>
			<point x="117" y="-10"/>
			<point x="260" y="-10" type="curve" smooth="yes"/>
			<point x="384" y="-10" type="line" smooth="yes"/>
			<point x="516" y="-10"/>
			<point x="608" y="57"/>
			<point x="608" y="201" type="curve" smooth="yes"/>
		</contour>
	</outline>
</glyph>
<glyph name="Uhorn.RECT" format="2">
	<advance width="646"/>
	<anchor x="313" y="727" name="top"/>
	<outline>
		<contour>
			<point x="518" y="841" type="line"/>
			<point x="518" y="756" type="line" smooth="yes"/>
			<point x="518" y="737"/>
			<point x="508" y="727"/>
			<point x="492" y="727" type="curve" smooth="yes"/>
			<point x="448" y="727" type="line"/>
			<point x="470" y="632" type="line"/>
			<point x="560" y="632" type="line"/>
			<point x="620" y="632"/>
			<point x="657" y="676"/>
			<point x="657" y="752" type="curve" smooth="yes"/>
			<point x="657" y="841" type="line"/>
		</contour>
		<component base="U.RECT"/>
	</outline>
</glyph>
<glyph name="W.RECT" format="2">
	<advance width="931"/>
	<anchor x="469" y="727" name="top"/>
	<anchor x="467" y="0" name="bottom"/>
	<outline>
		<contour>
			<point x="176" y="727" type="line"/>
			<point x="282" y="264" type="line"/>
			<point x="243" y="296" type="line"/>
			<point x="306" y="296" type="line"/>
			<point x="267" y="265" type="line"/>
			<point x="467" y="727" type="line"/>
			<point x="471" y="727" type="line"/>
			<point x="668" y="265" type="line"/>
			<point x="629" y="297" type="line"/>
			<point x="692" y="297" type="line"/>
			<point x="653" y="265" type="line"/>
			<point x="763" y="727" type="line"/>
			<point x="940" y="727" type="line"/>
			<point x="747" y="0" type="line"/>
			<point x="630" y="0" type="line"/>
			<point x="416" y="497" type="line"/>
			<point x="542" y="369" type="line"/>
			<point x="392" y="369" type="line"/>
			<point x="518" y="497" type="line"/>
			<point x="300" y="0" type="line"/>
			<point x="185" y="0" type="line"/>
			<point x="-10" y="727" type="line"/>
		</contour>
	</outline>
</glyph>
<glyph name="_gridunit" format="2">
	<advance width="49"/>
	<outline>
		<contour>
			<point x="6" y="4" type="line"/>
			<point x="4" y="6" type="line"/>
			<point x="4" y="43" type="line"/>
			<point x="6" y="45" type="line"/>
			<point x="43" y="45" type="line"/>
			<point x="45" y="43" type="line"/>
			<point x="45" y="6" type="line"/>
			<point x="43" y="4" type="line"/>
		</contour>
	</outline>
</glyph>
